solid OpenSCAD_Model
  facet normal 0 0 -1
    outer loop
      vertex -20 0 -1.25
      vertex -19.8423 2.50666 -1.25
      vertex -19.8423 -2.50666 -1.25
    endloop
  endfacet
  facet normal 0 0 -1
    outer loop
      vertex -19.8423 -2.50666 -1.25
      vertex -19.8423 2.50666 -1.25
      vertex -19.3717 4.9738 -1.25
    endloop
  endfacet
  facet normal 0 0 -1
    outer loop
      vertex -19.8423 -2.50666 -1.25
      vertex -19.3717 4.9738 -1.25
      vertex -18.5955 7.36249 -1.25
    endloop
  endfacet
  facet normal 0 0 -1
    outer loop
      vertex -19.8423 -2.50666 -1.25
      vertex -18.5955 7.36249 -1.25
      vertex -17.5261 9.63507 -1.25
    endloop
  endfacet
  facet normal 0 0 -1
    outer loop
      vertex -19.8423 -2.50666 -1.25
      vertex -17.5261 9.63507 -1.25
      vertex -16.1803 11.7557 -1.25
    endloop
  endfacet
  facet normal 0 0 -1
    outer loop
      vertex -19.8423 -2.50666 -1.25
      vertex -16.1803 11.7557 -1.25
      vertex -14.5794 13.6909 -1.25
    endloop
  endfacet
  facet normal 0 0 -1
    outer loop
      vertex -19.8423 -2.50666 -1.25
      vertex -14.5794 13.6909 -1.25
      vertex -12.7485 15.4103 -1.25
    endloop
  endfacet
  facet normal 0 0 -1
    outer loop
      vertex -19.8423 -2.50666 -1.25
      vertex -12.7485 15.4103 -1.25
      vertex -10.7165 16.8866 -1.25
    endloop
  endfacet
  facet normal 0 0 -1
    outer loop
      vertex -19.8423 -2.50666 -1.25
      vertex -10.7165 16.8866 -1.25
      vertex -8.51559 18.0965 -1.25
    endloop
  endfacet
  facet normal 0 0 -1
    outer loop
      vertex -19.8423 -2.50666 -1.25
      vertex -8.51559 18.0965 -1.25
      vertex -6.18034 19.0211 -1.25
    endloop
  endfacet
  facet normal 0 0 -1
    outer loop
      vertex -19.8423 -2.50666 -1.25
      vertex -6.18034 19.0211 -1.25
      vertex -3.74763 19.6457 -1.25
    endloop
  endfacet
  facet normal 0 0 -1
    outer loop
      vertex -10.225 10.225 -1.25
      vertex -3.74763 19.6457 -1.25
      vertex -1.25581 19.9605 -1.25
    endloop
  endfacet
  facet normal 0 0 -1
    outer loop
      vertex -1.25 10.225 -1.25
      vertex 8.51559 18.0965 -1.25
      vertex 10.7165 16.8866 -1.25
    endloop
  endfacet
  facet normal 0 0 -1
    outer loop
      vertex 1.25 10.225 -1.25
      vertex 10.7165 16.8866 -1.25
      vertex 12.7485 15.4103 -1.25
    endloop
  endfacet
  facet normal 0 0 -1
    outer loop
      vertex 10.225 10.225 -1.25
      vertex 14.5794 13.6909 -1.25
      vertex 16.1803 11.7557 -1.25
    endloop
  endfacet
  facet normal 0 0 -1
    outer loop
      vertex -1.25 10.225 -1.25
      vertex 1.25 10.225 -1.25
      vertex -1.25 7 -1.25
    endloop
  endfacet
  facet normal 0 0 -1
    outer loop
      vertex 10.225 1.25 -1.25
      vertex 19.8423 2.50666 -1.25
      vertex 20 0 -1.25
    endloop
  endfacet
  facet normal 0 0 -1
    outer loop
      vertex 10.225 -1.25 -1.25
      vertex 20 0 -1.25
      vertex 19.8423 -2.50666 -1.25
    endloop
  endfacet
  facet normal 0 0 -1
    outer loop
      vertex 10.225 -1.25 -1.25
      vertex 17.5261 -9.63507 -1.25
      vertex 16.1803 -11.7557 -1.25
    endloop
  endfacet
  facet normal 0 0 -1
    outer loop
      vertex 1.25 -10.225 -1.25
      vertex 14.5794 -13.6909 -1.25
      vertex 12.7485 -15.4103 -1.25
    endloop
  endfacet
  facet normal 0 0 -1
    outer loop
      vertex -1.25 -10.225 -1.25
      vertex 12.7485 -15.4103 -1.25
      vertex 10.7165 -16.8866 -1.25
    endloop
  endfacet
  facet normal 0 0 -1
    outer loop
      vertex 10.225 -1.25 -1.25
      vertex 19.8423 -2.50666 -1.25
      vertex 19.3717 -4.9738 -1.25
    endloop
  endfacet
  facet normal 0 0 -1
    outer loop
      vertex -1.25 -10.225 -1.25
      vertex 3.74763 -19.6457 -1.25
      vertex -10.225 -10.225 -1.25
    endloop
  endfacet
  facet normal 0 0 -1
    outer loop
      vertex -10.225 -10.225 -1.25
      vertex 3.74763 -19.6457 -1.25
      vertex 1.25581 -19.9605 -1.25
    endloop
  endfacet
  facet normal 0 0 -1
    outer loop
      vertex -19.8423 -2.50666 -1.25
      vertex 1.25581 -19.9605 -1.25
      vertex -1.25581 -19.9605 -1.25
    endloop
  endfacet
  facet normal 0 0 -1
    outer loop
      vertex -19.8423 -2.50666 -1.25
      vertex -1.25581 -19.9605 -1.25
      vertex -3.74763 -19.6457 -1.25
    endloop
  endfacet
  facet normal 0 0 -1
    outer loop
      vertex -19.8423 -2.50666 -1.25
      vertex -3.74763 -19.6457 -1.25
      vertex -6.18034 -19.0211 -1.25
    endloop
  endfacet
  facet normal 0 0 -1
    outer loop
      vertex -19.8423 -2.50666 -1.25
      vertex -6.18034 -19.0211 -1.25
      vertex -8.51559 -18.0965 -1.25
    endloop
  endfacet
  facet normal 0 0 -1
    outer loop
      vertex -19.8423 -2.50666 -1.25
      vertex -8.51559 -18.0965 -1.25
      vertex -10.7165 -16.8866 -1.25
    endloop
  endfacet
  facet normal 0 0 -1
    outer loop
      vertex -19.8423 -2.50666 -1.25
      vertex -10.7165 -16.8866 -1.25
      vertex -12.7485 -15.4103 -1.25
    endloop
  endfacet
  facet normal 0 0 -1
    outer loop
      vertex -19.8423 -2.50666 -1.25
      vertex -12.7485 -15.4103 -1.25
      vertex -14.5794 -13.6909 -1.25
    endloop
  endfacet
  facet normal 0 0 -1
    outer loop
      vertex -19.8423 -2.50666 -1.25
      vertex -14.5794 -13.6909 -1.25
      vertex -16.1803 -11.7557 -1.25
    endloop
  endfacet
  facet normal 0 0 -1
    outer loop
      vertex -19.8423 -2.50666 -1.25
      vertex -16.1803 -11.7557 -1.25
      vertex -17.5261 -9.63507 -1.25
    endloop
  endfacet
  facet normal 0 0 -1
    outer loop
      vertex -19.8423 -2.50666 -1.25
      vertex -17.5261 -9.63507 -1.25
      vertex -18.5955 -7.36249 -1.25
    endloop
  endfacet
  facet normal 0 0 -1
    outer loop
      vertex -19.8423 -2.50666 -1.25
      vertex -18.5955 -7.36249 -1.25
      vertex -19.3717 -4.9738 -1.25
    endloop
  endfacet
  facet normal 0 0 -1
    outer loop
      vertex -10.225 -10.225 -1.25
      vertex -19.8423 -2.50666 -1.25
      vertex -10.225 -1.25 -1.25
    endloop
  endfacet
  facet normal 0 0 -1
    outer loop
      vertex -1.25 -10.225 -1.25
      vertex 6.18034 -19.0211 -1.25
      vertex 3.74763 -19.6457 -1.25
    endloop
  endfacet
  facet normal 0 0 -1
    outer loop
      vertex -19.8423 -2.50666 -1.25
      vertex -10.225 -10.225 -1.25
      vertex 1.25581 -19.9605 -1.25
    endloop
  endfacet
  facet normal 0 0 -1
    outer loop
      vertex 10.225 -1.25 -1.25
      vertex 19.3717 -4.9738 -1.25
      vertex 18.5955 -7.36249 -1.25
    endloop
  endfacet
  facet normal 0 0 -1
    outer loop
      vertex 10.225 -1.25 -1.25
      vertex 16.1803 -11.7557 -1.25
      vertex 10.225 -10.225 -1.25
    endloop
  endfacet
  facet normal 0 0 -1
    outer loop
      vertex 10.225 -1.25 -1.25
      vertex 18.5955 -7.36249 -1.25
      vertex 17.5261 -9.63507 -1.25
    endloop
  endfacet
  facet normal 0 0 -1
    outer loop
      vertex -10.225 -1.25 -1.25
      vertex -19.8423 -2.50666 -1.25
      vertex -7 1.25 -1.25
    endloop
  endfacet
  facet normal 0 0 -1
    outer loop
      vertex 7 -1.25 -1.25
      vertex 20 0 -1.25
      vertex 10.225 -1.25 -1.25
    endloop
  endfacet
  facet normal 0 0 -1
    outer loop
      vertex 10.225 10.225 -1.25
      vertex 16.1803 11.7557 -1.25
      vertex 17.5261 9.63507 -1.25
    endloop
  endfacet
  facet normal 0 0 -1
    outer loop
      vertex 10.225 10.225 -1.25
      vertex 19.8423 2.50666 -1.25
      vertex 10.225 1.25 -1.25
    endloop
  endfacet
  facet normal 0 0 -1
    outer loop
      vertex 10.225 10.225 -1.25
      vertex 19.3717 4.9738 -1.25
      vertex 19.8423 2.50666 -1.25
    endloop
  endfacet
  facet normal 0 0 -1
    outer loop
      vertex 1.25 10.225 -1.25
      vertex 12.7485 15.4103 -1.25
      vertex 14.5794 13.6909 -1.25
    endloop
  endfacet
  facet normal 0 0 -1
    outer loop
      vertex -10.225 10.225 -1.25
      vertex 1.25581 19.9605 -1.25
      vertex 3.74763 19.6457 -1.25
    endloop
  endfacet
  facet normal 0 0 -1
    outer loop
      vertex 1.25 7 -1.25
      vertex -1.25 7 -1.25
      vertex 1.25 10.225 -1.25
    endloop
  endfacet
  facet normal 0 0 -1
    outer loop
      vertex -10.225 10.225 -1.25
      vertex 8.51559 18.0965 -1.25
      vertex -1.25 10.225 -1.25
    endloop
  endfacet
  facet normal 0 0 -1
    outer loop
      vertex -7 -1.25 -1.25
      vertex -10.225 -1.25 -1.25
      vertex -7 1.25 -1.25
    endloop
  endfacet
  facet normal 0 0 -1
    outer loop
      vertex -10.225 10.225 -1.25
      vertex 6.18034 19.0211 -1.25
      vertex 8.51559 18.0965 -1.25
    endloop
  endfacet
  facet normal 0 0 -1
    outer loop
      vertex -10.225 10.225 -1.25
      vertex -1.25581 19.9605 -1.25
      vertex 1.25581 19.9605 -1.25
    endloop
  endfacet
  facet normal 0 0 -1
    outer loop
      vertex -19.8423 -2.50666 -1.25
      vertex -3.74763 19.6457 -1.25
      vertex -10.225 10.225 -1.25
    endloop
  endfacet
  facet normal 0 0 -1
    outer loop
      vertex -10.225 1.25 -1.25
      vertex -19.8423 -2.50666 -1.25
      vertex -10.225 10.225 -1.25
    endloop
  endfacet
  facet normal 0 0 -1
    outer loop
      vertex 1.25 10.225 -1.25
      vertex 14.5794 13.6909 -1.25
      vertex 10.225 10.225 -1.25
    endloop
  endfacet
  facet normal 0 0 -1
    outer loop
      vertex -1.25 10.225 -1.25
      vertex 10.7165 16.8866 -1.25
      vertex 1.25 10.225 -1.25
    endloop
  endfacet
  facet normal 0 0 -1
    outer loop
      vertex -10.225 10.225 -1.25
      vertex 3.74763 19.6457 -1.25
      vertex 6.18034 19.0211 -1.25
    endloop
  endfacet
  facet normal 0 0 -1
    outer loop
      vertex 10.225 10.225 -1.25
      vertex 17.5261 9.63507 -1.25
      vertex 18.5955 7.36249 -1.25
    endloop
  endfacet
  facet normal 0 0 -1
    outer loop
      vertex 10.225 10.225 -1.25
      vertex 18.5955 7.36249 -1.25
      vertex 19.3717 4.9738 -1.25
    endloop
  endfacet
  facet normal 0 0 -1
    outer loop
      vertex 7 1.25 -1.25
      vertex 10.225 1.25 -1.25
      vertex 20 0 -1.25
    endloop
  endfacet
  facet normal 0 0 -1
    outer loop
      vertex 7 1.25 -1.25
      vertex 20 0 -1.25
      vertex 7 -1.25 -1.25
    endloop
  endfacet
  facet normal 0 0 -1
    outer loop
      vertex 10.225 -10.225 -1.25
      vertex 16.1803 -11.7557 -1.25
      vertex 14.5794 -13.6909 -1.25
    endloop
  endfacet
  facet normal 0 0 -1
    outer loop
      vertex 10.225 -10.225 -1.25
      vertex 14.5794 -13.6909 -1.25
      vertex 1.25 -10.225 -1.25
    endloop
  endfacet
  facet normal 0 0 -1
    outer loop
      vertex 1.25 -10.225 -1.25
      vertex -1.25 -7 -1.25
      vertex 1.25 -7 -1.25
    endloop
  endfacet
  facet normal 0 0 -1
    outer loop
      vertex 1.25 -10.225 -1.25
      vertex 12.7485 -15.4103 -1.25
      vertex -1.25 -10.225 -1.25
    endloop
  endfacet
  facet normal 0 0 -1
    outer loop
      vertex -1.25 -10.225 -1.25
      vertex 10.7165 -16.8866 -1.25
      vertex 8.51559 -18.0965 -1.25
    endloop
  endfacet
  facet normal 0 0 -1
    outer loop
      vertex -1.25 -10.225 -1.25
      vertex 8.51559 -18.0965 -1.25
      vertex 6.18034 -19.0211 -1.25
    endloop
  endfacet
  facet normal 0 0 -1
    outer loop
      vertex -1.25 -7 -1.25
      vertex 1.25 -10.225 -1.25
      vertex -1.25 -10.225 -1.25
    endloop
  endfacet
  facet normal 0 0 -1
    outer loop
      vertex -7 1.25 -1.25
      vertex -19.8423 -2.50666 -1.25
      vertex -10.225 1.25 -1.25
    endloop
  endfacet
  facet normal -0.998027 0.0627905 0
    outer loop
      vertex -20 0 -1.25
      vertex -20 0 1.25
      vertex -19.8423 2.50666 -1.25
    endloop
  endfacet
  facet normal -0.998027 0.0627905 0
    outer loop
      vertex -19.8423 2.50666 -1.25
      vertex -20 0 1.25
      vertex -19.8423 2.50666 1.25
    endloop
  endfacet
  facet normal -0.998027 -0.0627905 0
    outer loop
      vertex -20 0 -1.25
      vertex -19.8423 -2.50666 -1.25
      vertex -20 0 1.25
    endloop
  endfacet
  facet normal -0.998027 -0.0627905 0
    outer loop
      vertex -20 0 1.25
      vertex -19.8423 -2.50666 -1.25
      vertex -19.8423 -2.50666 1.25
    endloop
  endfacet
  facet normal -0.982287 -0.187381 0
    outer loop
      vertex -19.8423 -2.50666 -1.25
      vertex -19.3717 -4.9738 -1.25
      vertex -19.8423 -2.50666 1.25
    endloop
  endfacet
  facet normal -0.982287 -0.187381 0
    outer loop
      vertex -19.8423 -2.50666 1.25
      vertex -19.3717 -4.9738 -1.25
      vertex -19.3717 -4.9738 1.25
    endloop
  endfacet
  facet normal -0.951057 -0.309017 0
    outer loop
      vertex -19.3717 -4.9738 -1.25
      vertex -18.5955 -7.36249 -1.25
      vertex -19.3717 -4.9738 1.25
    endloop
  endfacet
  facet normal -0.951057 -0.309017 0
    outer loop
      vertex -19.3717 -4.9738 1.25
      vertex -18.5955 -7.36249 -1.25
      vertex -18.5955 -7.36249 1.25
    endloop
  endfacet
  facet normal -0.904827 -0.425779 0
    outer loop
      vertex -18.5955 -7.36249 -1.25
      vertex -17.5261 -9.63507 -1.25
      vertex -18.5955 -7.36249 1.25
    endloop
  endfacet
  facet normal -0.904827 -0.425779 0
    outer loop
      vertex -18.5955 -7.36249 1.25
      vertex -17.5261 -9.63507 -1.25
      vertex -17.5261 -9.63507 1.25
    endloop
  endfacet
  facet normal -0.844328 -0.535827 0
    outer loop
      vertex -17.5261 -9.63507 -1.25
      vertex -16.1803 -11.7557 -1.25
      vertex -17.5261 -9.63507 1.25
    endloop
  endfacet
  facet normal -0.844328 -0.535827 0
    outer loop
      vertex -17.5261 -9.63507 1.25
      vertex -16.1803 -11.7557 -1.25
      vertex -16.1803 -11.7557 1.25
    endloop
  endfacet
  facet normal -0.770513 -0.637424 0
    outer loop
      vertex -16.1803 -11.7557 -1.25
      vertex -14.5794 -13.6909 -1.25
      vertex -16.1803 -11.7557 1.25
    endloop
  endfacet
  facet normal -0.770513 -0.637424 0
    outer loop
      vertex -16.1803 -11.7557 1.25
      vertex -14.5794 -13.6909 -1.25
      vertex -14.5794 -13.6909 1.25
    endloop
  endfacet
  facet normal -0.684547 -0.728969 0
    outer loop
      vertex -14.5794 -13.6909 1.25
      vertex -14.5794 -13.6909 -1.25
      vertex -12.7485 -15.4103 -1.25
    endloop
  endfacet
  facet normal -0.684547 -0.728969 0
    outer loop
      vertex -12.7485 -15.4103 1.25
      vertex -14.5794 -13.6909 1.25
      vertex -12.7485 -15.4103 -1.25
    endloop
  endfacet
  facet normal -0.587785 -0.809017 0
    outer loop
      vertex -12.7485 -15.4103 1.25
      vertex -12.7485 -15.4103 -1.25
      vertex -10.7165 -16.8866 -1.25
    endloop
  endfacet
  facet normal -0.587785 -0.809017 0
    outer loop
      vertex -10.7165 -16.8866 1.25
      vertex -12.7485 -15.4103 1.25
      vertex -10.7165 -16.8866 -1.25
    endloop
  endfacet
  facet normal -0.481754 -0.876307 0
    outer loop
      vertex -10.7165 -16.8866 1.25
      vertex -10.7165 -16.8866 -1.25
      vertex -8.51559 -18.0965 -1.25
    endloop
  endfacet
  facet normal -0.481754 -0.876307 0
    outer loop
      vertex -8.51559 -18.0965 1.25
      vertex -10.7165 -16.8866 1.25
      vertex -8.51559 -18.0965 -1.25
    endloop
  endfacet
  facet normal -0.368124 -0.929777 0
    outer loop
      vertex -8.51559 -18.0965 1.25
      vertex -8.51559 -18.0965 -1.25
      vertex -6.18034 -19.0211 -1.25
    endloop
  endfacet
  facet normal -0.368124 -0.929777 0
    outer loop
      vertex -6.18034 -19.0211 1.25
      vertex -8.51559 -18.0965 1.25
      vertex -6.18034 -19.0211 -1.25
    endloop
  endfacet
  facet normal -0.24869 -0.968583 0
    outer loop
      vertex -6.18034 -19.0211 1.25
      vertex -6.18034 -19.0211 -1.25
      vertex -3.74763 -19.6457 -1.25
    endloop
  endfacet
  facet normal -0.24869 -0.968583 0
    outer loop
      vertex -3.74763 -19.6457 1.25
      vertex -6.18034 -19.0211 1.25
      vertex -3.74763 -19.6457 -1.25
    endloop
  endfacet
  facet normal -0.125333 -0.992115 0
    outer loop
      vertex -3.74763 -19.6457 1.25
      vertex -3.74763 -19.6457 -1.25
      vertex -1.25581 -19.9605 -1.25
    endloop
  endfacet
  facet normal -0.125333 -0.992115 0
    outer loop
      vertex -1.25581 -19.9605 1.25
      vertex -3.74763 -19.6457 1.25
      vertex -1.25581 -19.9605 -1.25
    endloop
  endfacet
  facet normal 0 -1 0
    outer loop
      vertex -1.25581 -19.9605 1.25
      vertex -1.25581 -19.9605 -1.25
      vertex 1.25581 -19.9605 -1.25
    endloop
  endfacet
  facet normal 0 -1 0
    outer loop
      vertex 1.25581 -19.9605 1.25
      vertex -1.25581 -19.9605 1.25
      vertex 1.25581 -19.9605 -1.25
    endloop
  endfacet
  facet normal 0.125333 -0.992115 0
    outer loop
      vertex 1.25581 -19.9605 1.25
      vertex 1.25581 -19.9605 -1.25
      vertex 3.74763 -19.6457 -1.25
    endloop
  endfacet
  facet normal 0.125333 -0.992115 0
    outer loop
      vertex 3.74763 -19.6457 1.25
      vertex 1.25581 -19.9605 1.25
      vertex 3.74763 -19.6457 -1.25
    endloop
  endfacet
  facet normal 0.24869 -0.968583 0
    outer loop
      vertex 3.74763 -19.6457 1.25
      vertex 3.74763 -19.6457 -1.25
      vertex 6.18034 -19.0211 -1.25
    endloop
  endfacet
  facet normal 0.24869 -0.968583 0
    outer loop
      vertex 6.18034 -19.0211 1.25
      vertex 3.74763 -19.6457 1.25
      vertex 6.18034 -19.0211 -1.25
    endloop
  endfacet
  facet normal 0.368124 -0.929777 0
    outer loop
      vertex 6.18034 -19.0211 1.25
      vertex 6.18034 -19.0211 -1.25
      vertex 8.51559 -18.0965 -1.25
    endloop
  endfacet
  facet normal 0.368124 -0.929777 0
    outer loop
      vertex 8.51559 -18.0965 1.25
      vertex 6.18034 -19.0211 1.25
      vertex 8.51559 -18.0965 -1.25
    endloop
  endfacet
  facet normal 0.481754 -0.876307 0
    outer loop
      vertex 8.51559 -18.0965 1.25
      vertex 8.51559 -18.0965 -1.25
      vertex 10.7165 -16.8866 -1.25
    endloop
  endfacet
  facet normal 0.481754 -0.876307 0
    outer loop
      vertex 10.7165 -16.8866 1.25
      vertex 8.51559 -18.0965 1.25
      vertex 10.7165 -16.8866 -1.25
    endloop
  endfacet
  facet normal 0.587785 -0.809017 0
    outer loop
      vertex 10.7165 -16.8866 1.25
      vertex 10.7165 -16.8866 -1.25
      vertex 12.7485 -15.4103 -1.25
    endloop
  endfacet
  facet normal 0.587785 -0.809017 0
    outer loop
      vertex 12.7485 -15.4103 1.25
      vertex 10.7165 -16.8866 1.25
      vertex 12.7485 -15.4103 -1.25
    endloop
  endfacet
  facet normal 0.684547 -0.728969 0
    outer loop
      vertex 12.7485 -15.4103 1.25
      vertex 12.7485 -15.4103 -1.25
      vertex 14.5794 -13.6909 -1.25
    endloop
  endfacet
  facet normal 0.684547 -0.728969 0
    outer loop
      vertex 14.5794 -13.6909 1.25
      vertex 12.7485 -15.4103 1.25
      vertex 14.5794 -13.6909 -1.25
    endloop
  endfacet
  facet normal 0.770513 -0.637424 0
    outer loop
      vertex 14.5794 -13.6909 1.25
      vertex 14.5794 -13.6909 -1.25
      vertex 16.1803 -11.7557 -1.25
    endloop
  endfacet
  facet normal 0.770513 -0.637424 0
    outer loop
      vertex 16.1803 -11.7557 1.25
      vertex 14.5794 -13.6909 1.25
      vertex 16.1803 -11.7557 -1.25
    endloop
  endfacet
  facet normal 0.844328 -0.535827 0
    outer loop
      vertex 16.1803 -11.7557 1.25
      vertex 16.1803 -11.7557 -1.25
      vertex 17.5261 -9.63507 -1.25
    endloop
  endfacet
  facet normal 0.844328 -0.535827 0
    outer loop
      vertex 17.5261 -9.63507 1.25
      vertex 16.1803 -11.7557 1.25
      vertex 17.5261 -9.63507 -1.25
    endloop
  endfacet
  facet normal 0.904827 -0.425779 0
    outer loop
      vertex 17.5261 -9.63507 1.25
      vertex 17.5261 -9.63507 -1.25
      vertex 18.5955 -7.36249 -1.25
    endloop
  endfacet
  facet normal 0.904827 -0.425779 0
    outer loop
      vertex 18.5955 -7.36249 1.25
      vertex 17.5261 -9.63507 1.25
      vertex 18.5955 -7.36249 -1.25
    endloop
  endfacet
  facet normal 0.951057 -0.309017 0
    outer loop
      vertex 18.5955 -7.36249 1.25
      vertex 18.5955 -7.36249 -1.25
      vertex 19.3717 -4.9738 -1.25
    endloop
  endfacet
  facet normal 0.951057 -0.309017 0
    outer loop
      vertex 19.3717 -4.9738 1.25
      vertex 18.5955 -7.36249 1.25
      vertex 19.3717 -4.9738 -1.25
    endloop
  endfacet
  facet normal 0.982287 -0.187381 0
    outer loop
      vertex 19.3717 -4.9738 1.25
      vertex 19.3717 -4.9738 -1.25
      vertex 19.8423 -2.50666 -1.25
    endloop
  endfacet
  facet normal 0.982287 -0.187381 0
    outer loop
      vertex 19.8423 -2.50666 1.25
      vertex 19.3717 -4.9738 1.25
      vertex 19.8423 -2.50666 -1.25
    endloop
  endfacet
  facet normal 0.998027 -0.0627905 0
    outer loop
      vertex 19.8423 -2.50666 1.25
      vertex 19.8423 -2.50666 -1.25
      vertex 20 0 -1.25
    endloop
  endfacet
  facet normal 0.998027 -0.0627905 0
    outer loop
      vertex 20 0 1.25
      vertex 19.8423 -2.50666 1.25
      vertex 20 0 -1.25
    endloop
  endfacet
  facet normal 0.998027 0.0627905 0
    outer loop
      vertex 20 0 -1.25
      vertex 19.8423 2.50666 -1.25
      vertex 19.8423 2.50666 1.25
    endloop
  endfacet
  facet normal 0.998027 0.0627905 0
    outer loop
      vertex 20 0 1.25
      vertex 20 0 -1.25
      vertex 19.8423 2.50666 1.25
    endloop
  endfacet
  facet normal 0.982287 0.187381 0
    outer loop
      vertex 19.8423 2.50666 -1.25
      vertex 19.3717 4.9738 -1.25
      vertex 19.3717 4.9738 1.25
    endloop
  endfacet
  facet normal 0.982287 0.187381 0
    outer loop
      vertex 19.8423 2.50666 1.25
      vertex 19.8423 2.50666 -1.25
      vertex 19.3717 4.9738 1.25
    endloop
  endfacet
  facet normal 0.951057 0.309017 0
    outer loop
      vertex 19.3717 4.9738 -1.25
      vertex 18.5955 7.36249 -1.25
      vertex 18.5955 7.36249 1.25
    endloop
  endfacet
  facet normal 0.951057 0.309017 0
    outer loop
      vertex 19.3717 4.9738 1.25
      vertex 19.3717 4.9738 -1.25
      vertex 18.5955 7.36249 1.25
    endloop
  endfacet
  facet normal 0.904827 0.425779 0
    outer loop
      vertex 18.5955 7.36249 -1.25
      vertex 17.5261 9.63507 -1.25
      vertex 17.5261 9.63507 1.25
    endloop
  endfacet
  facet normal 0.904827 0.425779 0
    outer loop
      vertex 18.5955 7.36249 1.25
      vertex 18.5955 7.36249 -1.25
      vertex 17.5261 9.63507 1.25
    endloop
  endfacet
  facet normal 0.844328 0.535827 0
    outer loop
      vertex 17.5261 9.63507 -1.25
      vertex 16.1803 11.7557 -1.25
      vertex 16.1803 11.7557 1.25
    endloop
  endfacet
  facet normal 0.844328 0.535827 0
    outer loop
      vertex 17.5261 9.63507 1.25
      vertex 17.5261 9.63507 -1.25
      vertex 16.1803 11.7557 1.25
    endloop
  endfacet
  facet normal 0.770513 0.637424 0
    outer loop
      vertex 16.1803 11.7557 -1.25
      vertex 14.5794 13.6909 -1.25
      vertex 14.5794 13.6909 1.25
    endloop
  endfacet
  facet normal 0.770513 0.637424 0
    outer loop
      vertex 16.1803 11.7557 1.25
      vertex 16.1803 11.7557 -1.25
      vertex 14.5794 13.6909 1.25
    endloop
  endfacet
  facet normal 0.684547 0.728969 0
    outer loop
      vertex 12.7485 15.4103 -1.25
      vertex 12.7485 15.4103 1.25
      vertex 14.5794 13.6909 -1.25
    endloop
  endfacet
  facet normal 0.684547 0.728969 0
    outer loop
      vertex 14.5794 13.6909 -1.25
      vertex 12.7485 15.4103 1.25
      vertex 14.5794 13.6909 1.25
    endloop
  endfacet
  facet normal 0.587785 0.809017 0
    outer loop
      vertex 10.7165 16.8866 -1.25
      vertex 10.7165 16.8866 1.25
      vertex 12.7485 15.4103 -1.25
    endloop
  endfacet
  facet normal 0.587785 0.809017 0
    outer loop
      vertex 12.7485 15.4103 -1.25
      vertex 10.7165 16.8866 1.25
      vertex 12.7485 15.4103 1.25
    endloop
  endfacet
  facet normal 0.481754 0.876307 0
    outer loop
      vertex 8.51559 18.0965 -1.25
      vertex 8.51559 18.0965 1.25
      vertex 10.7165 16.8866 -1.25
    endloop
  endfacet
  facet normal 0.481754 0.876307 0
    outer loop
      vertex 10.7165 16.8866 -1.25
      vertex 8.51559 18.0965 1.25
      vertex 10.7165 16.8866 1.25
    endloop
  endfacet
  facet normal 0.368124 0.929777 0
    outer loop
      vertex 6.18034 19.0211 -1.25
      vertex 6.18034 19.0211 1.25
      vertex 8.51559 18.0965 -1.25
    endloop
  endfacet
  facet normal 0.368124 0.929777 0
    outer loop
      vertex 8.51559 18.0965 -1.25
      vertex 6.18034 19.0211 1.25
      vertex 8.51559 18.0965 1.25
    endloop
  endfacet
  facet normal 0.24869 0.968583 0
    outer loop
      vertex 3.74763 19.6457 -1.25
      vertex 3.74763 19.6457 1.25
      vertex 6.18034 19.0211 -1.25
    endloop
  endfacet
  facet normal 0.24869 0.968583 0
    outer loop
      vertex 6.18034 19.0211 -1.25
      vertex 3.74763 19.6457 1.25
      vertex 6.18034 19.0211 1.25
    endloop
  endfacet
  facet normal 0.125333 0.992115 0
    outer loop
      vertex 1.25581 19.9605 -1.25
      vertex 1.25581 19.9605 1.25
      vertex 3.74763 19.6457 -1.25
    endloop
  endfacet
  facet normal 0.125333 0.992115 0
    outer loop
      vertex 3.74763 19.6457 -1.25
      vertex 1.25581 19.9605 1.25
      vertex 3.74763 19.6457 1.25
    endloop
  endfacet
  facet normal 0 1 0
    outer loop
      vertex -1.25581 19.9605 -1.25
      vertex -1.25581 19.9605 1.25
      vertex 1.25581 19.9605 -1.25
    endloop
  endfacet
  facet normal 0 1 0
    outer loop
      vertex 1.25581 19.9605 -1.25
      vertex -1.25581 19.9605 1.25
      vertex 1.25581 19.9605 1.25
    endloop
  endfacet
  facet normal -0.125333 0.992115 0
    outer loop
      vertex -3.74763 19.6457 -1.25
      vertex -3.74763 19.6457 1.25
      vertex -1.25581 19.9605 -1.25
    endloop
  endfacet
  facet normal -0.125333 0.992115 0
    outer loop
      vertex -1.25581 19.9605 -1.25
      vertex -3.74763 19.6457 1.25
      vertex -1.25581 19.9605 1.25
    endloop
  endfacet
  facet normal -0.24869 0.968583 0
    outer loop
      vertex -6.18034 19.0211 -1.25
      vertex -6.18034 19.0211 1.25
      vertex -3.74763 19.6457 -1.25
    endloop
  endfacet
  facet normal -0.24869 0.968583 0
    outer loop
      vertex -3.74763 19.6457 -1.25
      vertex -6.18034 19.0211 1.25
      vertex -3.74763 19.6457 1.25
    endloop
  endfacet
  facet normal -0.368124 0.929777 0
    outer loop
      vertex -8.51559 18.0965 -1.25
      vertex -8.51559 18.0965 1.25
      vertex -6.18034 19.0211 -1.25
    endloop
  endfacet
  facet normal -0.368124 0.929777 0
    outer loop
      vertex -6.18034 19.0211 -1.25
      vertex -8.51559 18.0965 1.25
      vertex -6.18034 19.0211 1.25
    endloop
  endfacet
  facet normal -0.481754 0.876307 0
    outer loop
      vertex -10.7165 16.8866 -1.25
      vertex -10.7165 16.8866 1.25
      vertex -8.51559 18.0965 -1.25
    endloop
  endfacet
  facet normal -0.481754 0.876307 0
    outer loop
      vertex -8.51559 18.0965 -1.25
      vertex -10.7165 16.8866 1.25
      vertex -8.51559 18.0965 1.25
    endloop
  endfacet
  facet normal -0.587785 0.809017 0
    outer loop
      vertex -12.7485 15.4103 -1.25
      vertex -12.7485 15.4103 1.25
      vertex -10.7165 16.8866 -1.25
    endloop
  endfacet
  facet normal -0.587785 0.809017 0
    outer loop
      vertex -10.7165 16.8866 -1.25
      vertex -12.7485 15.4103 1.25
      vertex -10.7165 16.8866 1.25
    endloop
  endfacet
  facet normal -0.684547 0.728969 0
    outer loop
      vertex -14.5794 13.6909 -1.25
      vertex -14.5794 13.6909 1.25
      vertex -12.7485 15.4103 -1.25
    endloop
  endfacet
  facet normal -0.684547 0.728969 0
    outer loop
      vertex -12.7485 15.4103 -1.25
      vertex -14.5794 13.6909 1.25
      vertex -12.7485 15.4103 1.25
    endloop
  endfacet
  facet normal -0.770513 0.637424 0
    outer loop
      vertex -16.1803 11.7557 -1.25
      vertex -16.1803 11.7557 1.25
      vertex -14.5794 13.6909 -1.25
    endloop
  endfacet
  facet normal -0.770513 0.637424 0
    outer loop
      vertex -14.5794 13.6909 -1.25
      vertex -16.1803 11.7557 1.25
      vertex -14.5794 13.6909 1.25
    endloop
  endfacet
  facet normal -0.844328 0.535827 0
    outer loop
      vertex -17.5261 9.63507 -1.25
      vertex -17.5261 9.63507 1.25
      vertex -16.1803 11.7557 -1.25
    endloop
  endfacet
  facet normal -0.844328 0.535827 0
    outer loop
      vertex -16.1803 11.7557 -1.25
      vertex -17.5261 9.63507 1.25
      vertex -16.1803 11.7557 1.25
    endloop
  endfacet
  facet normal -0.904827 0.425779 0
    outer loop
      vertex -18.5955 7.36249 -1.25
      vertex -18.5955 7.36249 1.25
      vertex -17.5261 9.63507 -1.25
    endloop
  endfacet
  facet normal -0.904827 0.425779 0
    outer loop
      vertex -17.5261 9.63507 -1.25
      vertex -18.5955 7.36249 1.25
      vertex -17.5261 9.63507 1.25
    endloop
  endfacet
  facet normal -0.951057 0.309017 0
    outer loop
      vertex -19.3717 4.9738 -1.25
      vertex -19.3717 4.9738 1.25
      vertex -18.5955 7.36249 -1.25
    endloop
  endfacet
  facet normal -0.951057 0.309017 0
    outer loop
      vertex -18.5955 7.36249 -1.25
      vertex -19.3717 4.9738 1.25
      vertex -18.5955 7.36249 1.25
    endloop
  endfacet
  facet normal -0.982287 0.187381 0
    outer loop
      vertex -19.8423 2.50666 -1.25
      vertex -19.8423 2.50666 1.25
      vertex -19.3717 4.9738 -1.25
    endloop
  endfacet
  facet normal -0.982287 0.187381 0
    outer loop
      vertex -19.3717 4.9738 -1.25
      vertex -19.8423 2.50666 1.25
      vertex -19.3717 4.9738 1.25
    endloop
  endfacet
  facet normal -1.22461e-16 -1 0
    outer loop
      vertex -10.225 -1.25 1.25
      vertex -10.225 -1.25 -1.25
      vertex -7 -1.25 -1.25
    endloop
  endfacet
  facet normal -1.22461e-16 -1 0
    outer loop
      vertex -7 -1.25 1.25
      vertex -10.225 -1.25 1.25
      vertex -7 -1.25 -1.25
    endloop
  endfacet
  facet normal 1 0 0
    outer loop
      vertex -10.225 -1.25 -1.25
      vertex -10.225 -1.25 1.25
      vertex -10.225 -10.225 1.25
    endloop
  endfacet
  facet normal 1 0 0
    outer loop
      vertex -10.225 -10.225 -1.25
      vertex -10.225 -1.25 -1.25
      vertex -10.225 -10.225 1.25
    endloop
  endfacet
  facet normal 1 -1.22461e-16 0
    outer loop
      vertex -7 -1.25 1.25
      vertex -7 -1.25 -1.25
      vertex -7 1.25 -1.25
    endloop
  endfacet
  facet normal 1 -1.22461e-16 0
    outer loop
      vertex -7 1.25 1.25
      vertex -7 -1.25 1.25
      vertex -7 1.25 -1.25
    endloop
  endfacet
  facet normal 1.22461e-16 1 0
    outer loop
      vertex -10.225 1.25 -1.25
      vertex -10.225 1.25 1.25
      vertex -7 1.25 -1.25
    endloop
  endfacet
  facet normal 1.22461e-16 1 0
    outer loop
      vertex -7 1.25 -1.25
      vertex -10.225 1.25 1.25
      vertex -7 1.25 1.25
    endloop
  endfacet
  facet normal 1 0 0
    outer loop
      vertex -10.225 10.225 -1.25
      vertex -10.225 10.225 1.25
      vertex -10.225 1.25 1.25
    endloop
  endfacet
  facet normal 1 0 0
    outer loop
      vertex -10.225 1.25 -1.25
      vertex -10.225 10.225 -1.25
      vertex -10.225 1.25 1.25
    endloop
  endfacet
  facet normal 0 -1 0
    outer loop
      vertex -1.25 10.225 -1.25
      vertex -1.25 10.225 1.25
      vertex -10.225 10.225 1.25
    endloop
  endfacet
  facet normal 0 -1 0
    outer loop
      vertex -10.225 10.225 -1.25
      vertex -1.25 10.225 -1.25
      vertex -10.225 10.225 1.25
    endloop
  endfacet
  facet normal -1 2.22045e-16 0
    outer loop
      vertex -1.25 7 -1.25
      vertex -1.25 7 1.25
      vertex -1.25 10.225 -1.25
    endloop
  endfacet
  facet normal -1 2.22045e-16 0
    outer loop
      vertex -1.25 10.225 -1.25
      vertex -1.25 7 1.25
      vertex -1.25 10.225 1.25
    endloop
  endfacet
  facet normal -2.22045e-16 -1 0
    outer loop
      vertex -1.25 7 1.25
      vertex -1.25 7 -1.25
      vertex 1.25 7 -1.25
    endloop
  endfacet
  facet normal -2.22045e-16 -1 0
    outer loop
      vertex 1.25 7 1.25
      vertex -1.25 7 1.25
      vertex 1.25 7 -1.25
    endloop
  endfacet
  facet normal 1 -2.22045e-16 0
    outer loop
      vertex 1.25 7 1.25
      vertex 1.25 7 -1.25
      vertex 1.25 10.225 -1.25
    endloop
  endfacet
  facet normal 1 -2.22045e-16 0
    outer loop
      vertex 1.25 10.225 1.25
      vertex 1.25 7 1.25
      vertex 1.25 10.225 -1.25
    endloop
  endfacet
  facet normal 0 -1 0
    outer loop
      vertex 10.225 10.225 -1.25
      vertex 10.225 10.225 1.25
      vertex 1.25 10.225 1.25
    endloop
  endfacet
  facet normal 0 -1 0
    outer loop
      vertex 1.25 10.225 -1.25
      vertex 10.225 10.225 -1.25
      vertex 1.25 10.225 1.25
    endloop
  endfacet
  facet normal -1 0 0
    outer loop
      vertex 10.225 10.225 1.25
      vertex 10.225 10.225 -1.25
      vertex 10.225 1.25 1.25
    endloop
  endfacet
  facet normal -1 0 0
    outer loop
      vertex 10.225 1.25 1.25
      vertex 10.225 10.225 -1.25
      vertex 10.225 1.25 -1.25
    endloop
  endfacet
  facet normal 0 1 0
    outer loop
      vertex 7 1.25 -1.25
      vertex 7 1.25 1.25
      vertex 10.225 1.25 -1.25
    endloop
  endfacet
  facet normal 0 1 0
    outer loop
      vertex 10.225 1.25 -1.25
      vertex 7 1.25 1.25
      vertex 10.225 1.25 1.25
    endloop
  endfacet
  facet normal -1 0 0
    outer loop
      vertex 7 -1.25 -1.25
      vertex 7 -1.25 1.25
      vertex 7 1.25 -1.25
    endloop
  endfacet
  facet normal -1 0 0
    outer loop
      vertex 7 1.25 -1.25
      vertex 7 -1.25 1.25
      vertex 7 1.25 1.25
    endloop
  endfacet
  facet normal 0 -1 0
    outer loop
      vertex 7 -1.25 1.25
      vertex 7 -1.25 -1.25
      vertex 10.225 -1.25 -1.25
    endloop
  endfacet
  facet normal 0 -1 0
    outer loop
      vertex 10.225 -1.25 1.25
      vertex 7 -1.25 1.25
      vertex 10.225 -1.25 -1.25
    endloop
  endfacet
  facet normal -1 0 0
    outer loop
      vertex 10.225 -1.25 1.25
      vertex 10.225 -1.25 -1.25
      vertex 10.225 -10.225 1.25
    endloop
  endfacet
  facet normal -1 0 0
    outer loop
      vertex 10.225 -10.225 1.25
      vertex 10.225 -1.25 -1.25
      vertex 10.225 -10.225 -1.25
    endloop
  endfacet
  facet normal 0 1 0
    outer loop
      vertex 10.225 -10.225 1.25
      vertex 10.225 -10.225 -1.25
      vertex 1.25 -10.225 1.25
    endloop
  endfacet
  facet normal 0 1 0
    outer loop
      vertex 1.25 -10.225 1.25
      vertex 10.225 -10.225 -1.25
      vertex 1.25 -10.225 -1.25
    endloop
  endfacet
  facet normal 1 -2.22045e-16 0
    outer loop
      vertex 1.25 -10.225 1.25
      vertex 1.25 -10.225 -1.25
      vertex 1.25 -7 -1.25
    endloop
  endfacet
  facet normal 1 -2.22045e-16 0
    outer loop
      vertex 1.25 -7 1.25
      vertex 1.25 -10.225 1.25
      vertex 1.25 -7 -1.25
    endloop
  endfacet
  facet normal 2.22045e-16 1 0
    outer loop
      vertex -1.25 -7 -1.25
      vertex -1.25 -7 1.25
      vertex 1.25 -7 -1.25
    endloop
  endfacet
  facet normal 2.22045e-16 1 0
    outer loop
      vertex 1.25 -7 -1.25
      vertex -1.25 -7 1.25
      vertex 1.25 -7 1.25
    endloop
  endfacet
  facet normal -1 2.22045e-16 0
    outer loop
      vertex -1.25 -10.225 -1.25
      vertex -1.25 -10.225 1.25
      vertex -1.25 -7 -1.25
    endloop
  endfacet
  facet normal -1 2.22045e-16 0
    outer loop
      vertex -1.25 -7 -1.25
      vertex -1.25 -10.225 1.25
      vertex -1.25 -7 1.25
    endloop
  endfacet
  facet normal 0 1 0
    outer loop
      vertex -1.25 -10.225 1.25
      vertex -1.25 -10.225 -1.25
      vertex -10.225 -10.225 1.25
    endloop
  endfacet
  facet normal 0 1 0
    outer loop
      vertex -10.225 -10.225 1.25
      vertex -1.25 -10.225 -1.25
      vertex -10.225 -10.225 -1.25
    endloop
  endfacet
  facet normal 0 0 1
    outer loop
      vertex -19.8423 2.50666 1.25
      vertex -20 0 1.25
      vertex -19.8423 -2.50666 1.25
    endloop
  endfacet
  facet normal 0 0 1
    outer loop
      vertex -18.5955 -7.36249 1.25
      vertex -19.8423 2.50666 1.25
      vertex -19.3717 -4.9738 1.25
    endloop
  endfacet
  facet normal 0 0 1
    outer loop
      vertex -19.3717 -4.9738 1.25
      vertex -19.8423 2.50666 1.25
      vertex -19.8423 -2.50666 1.25
    endloop
  endfacet
  facet normal 0 0 1
    outer loop
      vertex -17.5261 -9.63507 1.25
      vertex -19.8423 2.50666 1.25
      vertex -18.5955 -7.36249 1.25
    endloop
  endfacet
  facet normal 0 0 1
    outer loop
      vertex -16.1803 -11.7557 1.25
      vertex -19.8423 2.50666 1.25
      vertex -17.5261 -9.63507 1.25
    endloop
  endfacet
  facet normal 0 0 1
    outer loop
      vertex -14.5794 -13.6909 1.25
      vertex -19.8423 2.50666 1.25
      vertex -16.1803 -11.7557 1.25
    endloop
  endfacet
  facet normal 0 0 1
    outer loop
      vertex -12.7485 -15.4103 1.25
      vertex -19.8423 2.50666 1.25
      vertex -14.5794 -13.6909 1.25
    endloop
  endfacet
  facet normal 0 0 1
    outer loop
      vertex -10.7165 -16.8866 1.25
      vertex -19.8423 2.50666 1.25
      vertex -12.7485 -15.4103 1.25
    endloop
  endfacet
  facet normal 0 0 1
    outer loop
      vertex -8.51559 -18.0965 1.25
      vertex -19.8423 2.50666 1.25
      vertex -10.7165 -16.8866 1.25
    endloop
  endfacet
  facet normal 0 0 1
    outer loop
      vertex -6.18034 -19.0211 1.25
      vertex -19.8423 2.50666 1.25
      vertex -8.51559 -18.0965 1.25
    endloop
  endfacet
  facet normal 0 0 1
    outer loop
      vertex -3.74763 -19.6457 1.25
      vertex -19.8423 2.50666 1.25
      vertex -6.18034 -19.0211 1.25
    endloop
  endfacet
  facet normal 0 0 1
    outer loop
      vertex -10.225 -10.225 1.25
      vertex -19.8423 2.50666 1.25
      vertex -3.74763 -19.6457 1.25
    endloop
  endfacet
  facet normal 0 0 1
    outer loop
      vertex -7 -1.25 1.25
      vertex -7 1.25 1.25
      vertex -10.225 1.25 1.25
    endloop
  endfacet
  facet normal 0 0 1
    outer loop
      vertex -7 -1.25 1.25
      vertex -10.225 1.25 1.25
      vertex -19.8423 2.50666 1.25
    endloop
  endfacet
  facet normal 0 0 1
    outer loop
      vertex 1.25 10.225 1.25
      vertex 10.225 10.225 1.25
      vertex 16.1803 11.7557 1.25
    endloop
  endfacet
  facet normal 0 0 1
    outer loop
      vertex 1.25 10.225 1.25
      vertex 16.1803 11.7557 1.25
      vertex 14.5794 13.6909 1.25
    endloop
  endfacet
  facet normal 0 0 1
    outer loop
      vertex -10.225 10.225 1.25
      vertex 8.51559 18.0965 1.25
      vertex 6.18034 19.0211 1.25
    endloop
  endfacet
  facet normal 0 0 1
    outer loop
      vertex 10.225 -1.25 1.25
      vertex 10.225 -10.225 1.25
      vertex 16.1803 -11.7557 1.25
    endloop
  endfacet
  facet normal 0 0 1
    outer loop
      vertex 10.225 -1.25 1.25
      vertex 16.1803 -11.7557 1.25
      vertex 17.5261 -9.63507 1.25
    endloop
  endfacet
  facet normal 0 0 1
    outer loop
      vertex 10.225 10.225 1.25
      vertex 19.8423 2.50666 1.25
      vertex 19.3717 4.9738 1.25
    endloop
  endfacet
  facet normal 0 0 1
    outer loop
      vertex 1.25 7 1.25
      vertex 1.25 10.225 1.25
      vertex -1.25 7 1.25
    endloop
  endfacet
  facet normal 0 0 1
    outer loop
      vertex 10.225 -1.25 1.25
      vertex 18.5955 -7.36249 1.25
      vertex 19.3717 -4.9738 1.25
    endloop
  endfacet
  facet normal 0 0 1
    outer loop
      vertex 10.225 -1.25 1.25
      vertex 17.5261 -9.63507 1.25
      vertex 18.5955 -7.36249 1.25
    endloop
  endfacet
  facet normal 0 0 1
    outer loop
      vertex 10.225 10.225 1.25
      vertex 17.5261 9.63507 1.25
      vertex 16.1803 11.7557 1.25
    endloop
  endfacet
  facet normal 0 0 1
    outer loop
      vertex -1.25581 19.9605 1.25
      vertex -19.8423 2.50666 1.25
      vertex 1.25581 19.9605 1.25
    endloop
  endfacet
  facet normal 0 0 1
    outer loop
      vertex -3.74763 19.6457 1.25
      vertex -19.8423 2.50666 1.25
      vertex -1.25581 19.9605 1.25
    endloop
  endfacet
  facet normal 0 0 1
    outer loop
      vertex -6.18034 19.0211 1.25
      vertex -19.8423 2.50666 1.25
      vertex -3.74763 19.6457 1.25
    endloop
  endfacet
  facet normal 0 0 1
    outer loop
      vertex -8.51559 18.0965 1.25
      vertex -19.8423 2.50666 1.25
      vertex -6.18034 19.0211 1.25
    endloop
  endfacet
  facet normal 0 0 1
    outer loop
      vertex -10.7165 16.8866 1.25
      vertex -19.8423 2.50666 1.25
      vertex -8.51559 18.0965 1.25
    endloop
  endfacet
  facet normal 0 0 1
    outer loop
      vertex -12.7485 15.4103 1.25
      vertex -19.8423 2.50666 1.25
      vertex -10.7165 16.8866 1.25
    endloop
  endfacet
  facet normal 0 0 1
    outer loop
      vertex -14.5794 13.6909 1.25
      vertex -19.8423 2.50666 1.25
      vertex -12.7485 15.4103 1.25
    endloop
  endfacet
  facet normal 0 0 1
    outer loop
      vertex -16.1803 11.7557 1.25
      vertex -19.8423 2.50666 1.25
      vertex -14.5794 13.6909 1.25
    endloop
  endfacet
  facet normal 0 0 1
    outer loop
      vertex -17.5261 9.63507 1.25
      vertex -19.8423 2.50666 1.25
      vertex -16.1803 11.7557 1.25
    endloop
  endfacet
  facet normal 0 0 1
    outer loop
      vertex -18.5955 7.36249 1.25
      vertex -19.8423 2.50666 1.25
      vertex -17.5261 9.63507 1.25
    endloop
  endfacet
  facet normal 0 0 1
    outer loop
      vertex -19.3717 4.9738 1.25
      vertex -19.8423 2.50666 1.25
      vertex -18.5955 7.36249 1.25
    endloop
  endfacet
  facet normal 0 0 1
    outer loop
      vertex -1.25581 -19.9605 1.25
      vertex -10.225 -10.225 1.25
      vertex -3.74763 -19.6457 1.25
    endloop
  endfacet
  facet normal 0 0 1
    outer loop
      vertex 1.25 -10.225 1.25
      vertex 1.25 -7 1.25
      vertex -1.25 -7 1.25
    endloop
  endfacet
  facet normal 0 0 1
    outer loop
      vertex 10.225 -10.225 1.25
      vertex 12.7485 -15.4103 1.25
      vertex 14.5794 -13.6909 1.25
    endloop
  endfacet
  facet normal 0 0 1
    outer loop
      vertex -1.25 10.225 1.25
      vertex 1.25 10.225 1.25
      vertex 12.7485 15.4103 1.25
    endloop
  endfacet
  facet normal 0 0 1
    outer loop
      vertex -10.225 10.225 1.25
      vertex 10.7165 16.8866 1.25
      vertex 8.51559 18.0965 1.25
    endloop
  endfacet
  facet normal 0 0 1
    outer loop
      vertex 1.25581 19.9605 1.25
      vertex -10.225 10.225 1.25
      vertex 3.74763 19.6457 1.25
    endloop
  endfacet
  facet normal 0 0 1
    outer loop
      vertex 1.25581 19.9605 1.25
      vertex -19.8423 2.50666 1.25
      vertex -10.225 10.225 1.25
    endloop
  endfacet
  facet normal 0 0 1
    outer loop
      vertex 10.7165 16.8866 1.25
      vertex -1.25 10.225 1.25
      vertex 12.7485 15.4103 1.25
    endloop
  endfacet
  facet normal 0 0 1
    outer loop
      vertex 10.225 10.225 1.25
      vertex 19.3717 4.9738 1.25
      vertex 18.5955 7.36249 1.25
    endloop
  endfacet
  facet normal 0 0 1
    outer loop
      vertex 10.225 10.225 1.25
      vertex 18.5955 7.36249 1.25
      vertex 17.5261 9.63507 1.25
    endloop
  endfacet
  facet normal 0 0 1
    outer loop
      vertex 12.7485 15.4103 1.25
      vertex 1.25 10.225 1.25
      vertex 14.5794 13.6909 1.25
    endloop
  endfacet
  facet normal 0 0 1
    outer loop
      vertex 10.225 10.225 1.25
      vertex 10.225 1.25 1.25
      vertex 19.8423 2.50666 1.25
    endloop
  endfacet
  facet normal 0 0 1
    outer loop
      vertex 19.8423 2.50666 1.25
      vertex 10.225 1.25 1.25
      vertex 20 0 1.25
    endloop
  endfacet
  facet normal 0 0 1
    outer loop
      vertex 10.225 1.25 1.25
      vertex 7 1.25 1.25
      vertex 20 0 1.25
    endloop
  endfacet
  facet normal 0 0 1
    outer loop
      vertex -10.225 10.225 1.25
      vertex -1.25 10.225 1.25
      vertex 10.7165 16.8866 1.25
    endloop
  endfacet
  facet normal 0 0 1
    outer loop
      vertex -10.225 10.225 1.25
      vertex 6.18034 19.0211 1.25
      vertex 3.74763 19.6457 1.25
    endloop
  endfacet
  facet normal 0 0 1
    outer loop
      vertex 16.1803 -11.7557 1.25
      vertex 10.225 -10.225 1.25
      vertex 14.5794 -13.6909 1.25
    endloop
  endfacet
  facet normal 0 0 1
    outer loop
      vertex -10.225 -1.25 1.25
      vertex -7 -1.25 1.25
      vertex -19.8423 2.50666 1.25
    endloop
  endfacet
  facet normal 0 0 1
    outer loop
      vertex 12.7485 -15.4103 1.25
      vertex 1.25 -10.225 1.25
      vertex 10.7165 -16.8866 1.25
    endloop
  endfacet
  facet normal 0 0 1
    outer loop
      vertex -1.25 -7 1.25
      vertex -1.25 -10.225 1.25
      vertex 1.25 -10.225 1.25
    endloop
  endfacet
  facet normal 0 0 1
    outer loop
      vertex 10.225 -10.225 1.25
      vertex 1.25 -10.225 1.25
      vertex 12.7485 -15.4103 1.25
    endloop
  endfacet
  facet normal 0 0 1
    outer loop
      vertex 10.7165 -16.8866 1.25
      vertex -1.25 -10.225 1.25
      vertex 8.51559 -18.0965 1.25
    endloop
  endfacet
  facet normal 0 0 1
    outer loop
      vertex -1.25 10.225 1.25
      vertex -1.25 7 1.25
      vertex 1.25 10.225 1.25
    endloop
  endfacet
  facet normal 0 0 1
    outer loop
      vertex -1.25 -10.225 1.25
      vertex 6.18034 -19.0211 1.25
      vertex 8.51559 -18.0965 1.25
    endloop
  endfacet
  facet normal 0 0 1
    outer loop
      vertex -1.25 -10.225 1.25
      vertex 3.74763 -19.6457 1.25
      vertex 6.18034 -19.0211 1.25
    endloop
  endfacet
  facet normal 0 0 1
    outer loop
      vertex -1.25 -10.225 1.25
      vertex 1.25581 -19.9605 1.25
      vertex 3.74763 -19.6457 1.25
    endloop
  endfacet
  facet normal 0 0 1
    outer loop
      vertex -1.25 -10.225 1.25
      vertex -1.25581 -19.9605 1.25
      vertex 1.25581 -19.9605 1.25
    endloop
  endfacet
  facet normal 0 0 1
    outer loop
      vertex -1.25 -10.225 1.25
      vertex -10.225 -10.225 1.25
      vertex -1.25581 -19.9605 1.25
    endloop
  endfacet
  facet normal 0 0 1
    outer loop
      vertex 1.25 -10.225 1.25
      vertex -1.25 -10.225 1.25
      vertex 10.7165 -16.8866 1.25
    endloop
  endfacet
  facet normal 0 0 1
    outer loop
      vertex -10.225 -10.225 1.25
      vertex -10.225 -1.25 1.25
      vertex -19.8423 2.50666 1.25
    endloop
  endfacet
  facet normal 0 0 1
    outer loop
      vertex 10.225 -1.25 1.25
      vertex 19.3717 -4.9738 1.25
      vertex 19.8423 -2.50666 1.25
    endloop
  endfacet
  facet normal 0 0 1
    outer loop
      vertex 7 1.25 1.25
      vertex 7 -1.25 1.25
      vertex 10.225 -1.25 1.25
    endloop
  endfacet
  facet normal 0 0 1
    outer loop
      vertex 7 1.25 1.25
      vertex 10.225 -1.25 1.25
      vertex 19.8423 -2.50666 1.25
    endloop
  endfacet
  facet normal 0 0 1
    outer loop
      vertex 7 1.25 1.25
      vertex 19.8423 -2.50666 1.25
      vertex 20 0 1.25
    endloop
  endfacet
  facet normal 0 0 1
    outer loop
      vertex -10.225 1.25 1.25
      vertex -10.225 10.225 1.25
      vertex -19.8423 2.50666 1.25
    endloop
  endfacet
endsolid OpenSCAD_Model
