solid OpenSCAD_Model
  facet normal -0.991445 -0.130526 0
    outer loop
      vertex -12.7 2.7 2.22045e-16
      vertex -12.2673 -0.587002 2.22045e-16
      vertex -12.7 2.7 3.6
    endloop
  endfacet
  facet normal -0.991445 -0.130526 0
    outer loop
      vertex -12.7 2.7 3.6
      vertex -12.2673 -0.587002 2.22045e-16
      vertex -12.2673 -0.587002 3.6
    endloop
  endfacet
  facet normal 0 0 -1
    outer loop
      vertex -12.7 2.7 2.22045e-16
      vertex -12.7 35.4 2.22045e-16
      vertex -12.2673 -0.587002 2.22045e-16
    endloop
  endfacet
  facet normal 0 0 -1
    outer loop
      vertex -12.2673 -0.587002 2.22045e-16
      vertex -12.7 35.4 2.22045e-16
      vertex 12.7 35.4 2.22045e-16
    endloop
  endfacet
  facet normal 0 0 -1
    outer loop
      vertex 1.21976 1.21976 2.22045e-16
      vertex 12.7 35.4 2.22045e-16
      vertex 12.7 2.7 2.22045e-16
    endloop
  endfacet
  facet normal 0 0 -1
    outer loop
      vertex 1.725 0 2.22045e-16
      vertex 12.7 2.7 2.22045e-16
      vertex 12.2673 -0.587002 2.22045e-16
    endloop
  endfacet
  facet normal 0 0 -1
    outer loop
      vertex 1.21976 -1.21976 2.22045e-16
      vertex 12.2673 -0.587002 2.22045e-16
      vertex 10.9985 -3.65 2.22045e-16
    endloop
  endfacet
  facet normal 0 0 -1
    outer loop
      vertex -12.2673 -0.587002 2.22045e-16
      vertex 10.9985 -3.65 2.22045e-16
      vertex 8.98026 -6.28026 2.22045e-16
    endloop
  endfacet
  facet normal 0 0 -1
    outer loop
      vertex -12.2673 -0.587002 2.22045e-16
      vertex 8.98026 -6.28026 2.22045e-16
      vertex 6.35 -8.29852 2.22045e-16
    endloop
  endfacet
  facet normal 0 0 -1
    outer loop
      vertex -12.2673 -0.587002 2.22045e-16
      vertex 6.35 -8.29852 2.22045e-16
      vertex 3.287 -9.56726 2.22045e-16
    endloop
  endfacet
  facet normal 0 0 -1
    outer loop
      vertex -12.2673 -0.587002 2.22045e-16
      vertex 3.287 -9.56726 2.22045e-16
      vertex 0 -10 2.22045e-16
    endloop
  endfacet
  facet normal 0 0 -1
    outer loop
      vertex -12.2673 -0.587002 2.22045e-16
      vertex 0 -10 2.22045e-16
      vertex -3.287 -9.56726 2.22045e-16
    endloop
  endfacet
  facet normal 0 0 -1
    outer loop
      vertex -12.2673 -0.587002 2.22045e-16
      vertex -3.287 -9.56726 2.22045e-16
      vertex -6.35 -8.29852 2.22045e-16
    endloop
  endfacet
  facet normal 0 0 -1
    outer loop
      vertex -12.2673 -0.587002 2.22045e-16
      vertex -6.35 -8.29852 2.22045e-16
      vertex -8.98026 -6.28026 2.22045e-16
    endloop
  endfacet
  facet normal 0 0 -1
    outer loop
      vertex -12.2673 -0.587002 2.22045e-16
      vertex -8.98026 -6.28026 2.22045e-16
      vertex -10.9985 -3.65 2.22045e-16
    endloop
  endfacet
  facet normal 0 0 -1
    outer loop
      vertex 1.21976 1.21976 2.22045e-16
      vertex 12.7 2.7 2.22045e-16
      vertex 1.49389 0.8625 2.22045e-16
    endloop
  endfacet
  facet normal 0 0 -1
    outer loop
      vertex -12.2673 -0.587002 2.22045e-16
      vertex -1.725 0 2.22045e-16
      vertex -1.66622 -0.446463 2.22045e-16
    endloop
  endfacet
  facet normal 0 0 -1
    outer loop
      vertex 0.446463 -1.66622 2.22045e-16
      vertex 10.9985 -3.65 2.22045e-16
      vertex 0 -1.725 2.22045e-16
    endloop
  endfacet
  facet normal 0 0 -1
    outer loop
      vertex -12.2673 -0.587002 2.22045e-16
      vertex -1.49389 -0.8625 2.22045e-16
      vertex -1.21976 -1.21976 2.22045e-16
    endloop
  endfacet
  facet normal 0 0 -1
    outer loop
      vertex -12.2673 -0.587002 2.22045e-16
      vertex -1.21976 -1.21976 2.22045e-16
      vertex -0.8625 -1.49389 2.22045e-16
    endloop
  endfacet
  facet normal 0 0 -1
    outer loop
      vertex -12.2673 -0.587002 2.22045e-16
      vertex -0.8625 -1.49389 2.22045e-16
      vertex -0.446463 -1.66622 2.22045e-16
    endloop
  endfacet
  facet normal 0 0 -1
    outer loop
      vertex -12.2673 -0.587002 2.22045e-16
      vertex -0.446463 -1.66622 2.22045e-16
      vertex 10.9985 -3.65 2.22045e-16
    endloop
  endfacet
  facet normal 0 0 -1
    outer loop
      vertex -0.446463 -1.66622 2.22045e-16
      vertex 0 -1.725 2.22045e-16
      vertex 10.9985 -3.65 2.22045e-16
    endloop
  endfacet
  facet normal 0 0 -1
    outer loop
      vertex 0.8625 -1.49389 2.22045e-16
      vertex 10.9985 -3.65 2.22045e-16
      vertex 0.446463 -1.66622 2.22045e-16
    endloop
  endfacet
  facet normal 0 0 -1
    outer loop
      vertex 1.21976 -1.21976 2.22045e-16
      vertex 10.9985 -3.65 2.22045e-16
      vertex 0.8625 -1.49389 2.22045e-16
    endloop
  endfacet
  facet normal 0 0 -1
    outer loop
      vertex 1.49389 -0.8625 2.22045e-16
      vertex 12.2673 -0.587002 2.22045e-16
      vertex 1.21976 -1.21976 2.22045e-16
    endloop
  endfacet
  facet normal 0 0 -1
    outer loop
      vertex 1.66622 -0.446463 2.22045e-16
      vertex 12.2673 -0.587002 2.22045e-16
      vertex 1.49389 -0.8625 2.22045e-16
    endloop
  endfacet
  facet normal 0 0 -1
    outer loop
      vertex 1.725 0 2.22045e-16
      vertex 12.2673 -0.587002 2.22045e-16
      vertex 1.66622 -0.446463 2.22045e-16
    endloop
  endfacet
  facet normal 0 0 -1
    outer loop
      vertex 1.66622 0.446463 2.22045e-16
      vertex 12.7 2.7 2.22045e-16
      vertex 1.725 0 2.22045e-16
    endloop
  endfacet
  facet normal 0 0 -1
    outer loop
      vertex 1.49389 0.8625 2.22045e-16
      vertex 12.7 2.7 2.22045e-16
      vertex 1.66622 0.446463 2.22045e-16
    endloop
  endfacet
  facet normal 0 0 -1
    outer loop
      vertex 0.8625 1.49389 2.22045e-16
      vertex 12.7 35.4 2.22045e-16
      vertex 1.21976 1.21976 2.22045e-16
    endloop
  endfacet
  facet normal 0 0 -1
    outer loop
      vertex -0.8625 1.49389 2.22045e-16
      vertex -12.2673 -0.587002 2.22045e-16
      vertex -0.446463 1.66622 2.22045e-16
    endloop
  endfacet
  facet normal 0 0 -1
    outer loop
      vertex 0.446463 1.66622 2.22045e-16
      vertex 12.7 35.4 2.22045e-16
      vertex 0.8625 1.49389 2.22045e-16
    endloop
  endfacet
  facet normal 0 0 -1
    outer loop
      vertex 0 1.725 2.22045e-16
      vertex 12.7 35.4 2.22045e-16
      vertex 0.446463 1.66622 2.22045e-16
    endloop
  endfacet
  facet normal 0 0 -1
    outer loop
      vertex -0.446463 1.66622 2.22045e-16
      vertex 12.7 35.4 2.22045e-16
      vertex 0 1.725 2.22045e-16
    endloop
  endfacet
  facet normal 0 0 -1
    outer loop
      vertex -12.2673 -0.587002 2.22045e-16
      vertex 12.7 35.4 2.22045e-16
      vertex -0.446463 1.66622 2.22045e-16
    endloop
  endfacet
  facet normal 0 0 -1
    outer loop
      vertex -1.21976 1.21976 2.22045e-16
      vertex -12.2673 -0.587002 2.22045e-16
      vertex -0.8625 1.49389 2.22045e-16
    endloop
  endfacet
  facet normal 0 0 -1
    outer loop
      vertex -1.49389 0.8625 2.22045e-16
      vertex -12.2673 -0.587002 2.22045e-16
      vertex -1.21976 1.21976 2.22045e-16
    endloop
  endfacet
  facet normal 0 0 -1
    outer loop
      vertex -1.66622 0.446463 2.22045e-16
      vertex -12.2673 -0.587002 2.22045e-16
      vertex -1.49389 0.8625 2.22045e-16
    endloop
  endfacet
  facet normal 0 0 -1
    outer loop
      vertex -12.2673 -0.587002 2.22045e-16
      vertex -1.66622 0.446463 2.22045e-16
      vertex -1.725 0 2.22045e-16
    endloop
  endfacet
  facet normal 0 0 -1
    outer loop
      vertex -1.49389 -0.8625 2.22045e-16
      vertex -12.2673 -0.587002 2.22045e-16
      vertex -1.66622 -0.446463 2.22045e-16
    endloop
  endfacet
  facet normal -1 0 0
    outer loop
      vertex -12.7 2.7 2.22045e-16
      vertex -12.7 2.7 3.6
      vertex -12.7 35.4 2.22045e-16
    endloop
  endfacet
  facet normal -1 0 0
    outer loop
      vertex -12.7 35.4 2.22045e-16
      vertex -12.7 2.7 3.6
      vertex -12.7 35.4 3.6
    endloop
  endfacet
  facet normal 0 0 1
    outer loop
      vertex -12.7 35.4 3.6
      vertex -12.7 2.7 3.6
      vertex -12.2673 -0.587002 3.6
    endloop
  endfacet
  facet normal 0 0 1
    outer loop
      vertex -8.98026 -6.28026 3.6
      vertex -12.7 35.4 3.6
      vertex -10.9985 -3.65 3.6
    endloop
  endfacet
  facet normal 0 0 1
    outer loop
      vertex -10.9985 -3.65 3.6
      vertex -12.7 35.4 3.6
      vertex -12.2673 -0.587002 3.6
    endloop
  endfacet
  facet normal 0 0 1
    outer loop
      vertex -6.35 -8.29852 3.6
      vertex -12.7 35.4 3.6
      vertex -8.98026 -6.28026 3.6
    endloop
  endfacet
  facet normal 0 0 1
    outer loop
      vertex -3.287 -9.56726 3.6
      vertex -12.7 35.4 3.6
      vertex -6.35 -8.29852 3.6
    endloop
  endfacet
  facet normal 0 0 1
    outer loop
      vertex -3.38074 -0.905867 3.6
      vertex -12.7 35.4 3.6
      vertex -3.287 -9.56726 3.6
    endloop
  endfacet
  facet normal 0 0 1
    outer loop
      vertex 10.9985 -3.65 3.6
      vertex -12.7 35.4 3.6
      vertex 8.98026 -6.28026 3.6
    endloop
  endfacet
  facet normal 0 0 1
    outer loop
      vertex 12.2673 -0.587002 3.6
      vertex -12.7 35.4 3.6
      vertex 10.9985 -3.65 3.6
    endloop
  endfacet
  facet normal 0 0 1
    outer loop
      vertex 12.7 2.7 3.6
      vertex -12.7 35.4 3.6
      vertex 12.2673 -0.587002 3.6
    endloop
  endfacet
  facet normal 0 0 1
    outer loop
      vertex 12.7 35.4 3.6
      vertex -12.7 35.4 3.6
      vertex 12.7 2.7 3.6
    endloop
  endfacet
  facet normal 0 0 1
    outer loop
      vertex 0 -10 3.6
      vertex -3.38074 -0.905867 3.6
      vertex -3.287 -9.56726 3.6
    endloop
  endfacet
  facet normal 0 0 1
    outer loop
      vertex -3.5 0 3.6
      vertex -12.7 35.4 3.6
      vertex -3.38074 -0.905867 3.6
    endloop
  endfacet
  facet normal 0 0 1
    outer loop
      vertex -3.38074 0.905867 3.6
      vertex -12.7 35.4 3.6
      vertex -3.5 0 3.6
    endloop
  endfacet
  facet normal 0 0 1
    outer loop
      vertex -2.47487 2.47487 3.6
      vertex -12.7 35.4 3.6
      vertex -3.03109 1.75 3.6
    endloop
  endfacet
  facet normal 0 0 1
    outer loop
      vertex -1.75 3.03109 3.6
      vertex -12.7 35.4 3.6
      vertex -2.47487 2.47487 3.6
    endloop
  endfacet
  facet normal 0 0 1
    outer loop
      vertex 0 -3.5 3.6
      vertex -0.905867 -3.38074 3.6
      vertex 3.287 -9.56726 3.6
    endloop
  endfacet
  facet normal 0 0 1
    outer loop
      vertex 3.03109 1.75 3.6
      vertex 3.38074 0.905867 3.6
      vertex 8.98026 -6.28026 3.6
    endloop
  endfacet
  facet normal 0 0 1
    outer loop
      vertex 0 3.5 3.6
      vertex -12.7 35.4 3.6
      vertex -0.905867 3.38074 3.6
    endloop
  endfacet
  facet normal 0 0 1
    outer loop
      vertex 1.75 -3.03109 3.6
      vertex 0.905867 -3.38074 3.6
      vertex 3.287 -9.56726 3.6
    endloop
  endfacet
  facet normal 0 0 1
    outer loop
      vertex 0.905867 3.38074 3.6
      vertex -12.7 35.4 3.6
      vertex 0 3.5 3.6
    endloop
  endfacet
  facet normal 0 0 1
    outer loop
      vertex 3.03109 -1.75 3.6
      vertex 2.47487 -2.47487 3.6
      vertex 6.35 -8.29852 3.6
    endloop
  endfacet
  facet normal 0 0 1
    outer loop
      vertex 2.47487 2.47487 3.6
      vertex -12.7 35.4 3.6
      vertex 1.75 3.03109 3.6
    endloop
  endfacet
  facet normal 0 0 1
    outer loop
      vertex 3.03109 1.75 3.6
      vertex -12.7 35.4 3.6
      vertex 2.47487 2.47487 3.6
    endloop
  endfacet
  facet normal 0 0 1
    outer loop
      vertex 3.38074 -0.905867 3.6
      vertex 3.03109 -1.75 3.6
      vertex 6.35 -8.29852 3.6
    endloop
  endfacet
  facet normal 0 0 1
    outer loop
      vertex 8.98026 -6.28026 3.6
      vertex -12.7 35.4 3.6
      vertex 3.03109 1.75 3.6
    endloop
  endfacet
  facet normal 0 0 1
    outer loop
      vertex 8.98026 -6.28026 3.6
      vertex 3.38074 0.905867 3.6
      vertex 6.35 -8.29852 3.6
    endloop
  endfacet
  facet normal 0 0 1
    outer loop
      vertex 3.38074 0.905867 3.6
      vertex 3.5 0 3.6
      vertex 6.35 -8.29852 3.6
    endloop
  endfacet
  facet normal 0 0 1
    outer loop
      vertex 3.5 0 3.6
      vertex 3.38074 -0.905867 3.6
      vertex 6.35 -8.29852 3.6
    endloop
  endfacet
  facet normal 0 0 1
    outer loop
      vertex 0.905867 -3.38074 3.6
      vertex 0 -3.5 3.6
      vertex 3.287 -9.56726 3.6
    endloop
  endfacet
  facet normal 0 0 1
    outer loop
      vertex 6.35 -8.29852 3.6
      vertex 2.47487 -2.47487 3.6
      vertex 3.287 -9.56726 3.6
    endloop
  endfacet
  facet normal 0 0 1
    outer loop
      vertex 2.47487 -2.47487 3.6
      vertex 1.75 -3.03109 3.6
      vertex 3.287 -9.56726 3.6
    endloop
  endfacet
  facet normal 0 0 1
    outer loop
      vertex -1.75 -3.03109 3.6
      vertex -2.47487 -2.47487 3.6
      vertex 0 -10 3.6
    endloop
  endfacet
  facet normal 0 0 1
    outer loop
      vertex 0.905867 3.38074 3.6
      vertex 1.75 3.03109 3.6
      vertex -12.7 35.4 3.6
    endloop
  endfacet
  facet normal 0 0 1
    outer loop
      vertex 3.287 -9.56726 3.6
      vertex -0.905867 -3.38074 3.6
      vertex 0 -10 3.6
    endloop
  endfacet
  facet normal 0 0 1
    outer loop
      vertex -0.905867 -3.38074 3.6
      vertex -1.75 -3.03109 3.6
      vertex 0 -10 3.6
    endloop
  endfacet
  facet normal 0 0 1
    outer loop
      vertex 0 -10 3.6
      vertex -3.03109 -1.75 3.6
      vertex -3.38074 -0.905867 3.6
    endloop
  endfacet
  facet normal 0 0 1
    outer loop
      vertex -2.47487 -2.47487 3.6
      vertex -3.03109 -1.75 3.6
      vertex 0 -10 3.6
    endloop
  endfacet
  facet normal 0 0 1
    outer loop
      vertex -3.38074 0.905867 3.6
      vertex -3.03109 1.75 3.6
      vertex -12.7 35.4 3.6
    endloop
  endfacet
  facet normal 0 0 1
    outer loop
      vertex -1.75 3.03109 3.6
      vertex -0.905867 3.38074 3.6
      vertex -12.7 35.4 3.6
    endloop
  endfacet
  facet normal -0.92388 -0.382683 0
    outer loop
      vertex -12.2673 -0.587002 2.22045e-16
      vertex -10.9985 -3.65 2.22045e-16
      vertex -12.2673 -0.587002 3.6
    endloop
  endfacet
  facet normal -0.92388 -0.382683 0
    outer loop
      vertex -12.2673 -0.587002 3.6
      vertex -10.9985 -3.65 2.22045e-16
      vertex -10.9985 -3.65 3.6
    endloop
  endfacet
  facet normal -0.793353 -0.608762 0
    outer loop
      vertex -10.9985 -3.65 2.22045e-16
      vertex -8.98026 -6.28026 2.22045e-16
      vertex -10.9985 -3.65 3.6
    endloop
  endfacet
  facet normal -0.793353 -0.608762 0
    outer loop
      vertex -10.9985 -3.65 3.6
      vertex -8.98026 -6.28026 2.22045e-16
      vertex -8.98026 -6.28026 3.6
    endloop
  endfacet
  facet normal -0.608762 -0.793353 0
    outer loop
      vertex -8.98026 -6.28026 3.6
      vertex -8.98026 -6.28026 2.22045e-16
      vertex -6.35 -8.29852 2.22045e-16
    endloop
  endfacet
  facet normal -0.608762 -0.793353 0
    outer loop
      vertex -6.35 -8.29852 3.6
      vertex -8.98026 -6.28026 3.6
      vertex -6.35 -8.29852 2.22045e-16
    endloop
  endfacet
  facet normal -0.382683 -0.92388 0
    outer loop
      vertex -6.35 -8.29852 3.6
      vertex -6.35 -8.29852 2.22045e-16
      vertex -3.287 -9.56726 2.22045e-16
    endloop
  endfacet
  facet normal -0.382683 -0.92388 0
    outer loop
      vertex -3.287 -9.56726 3.6
      vertex -6.35 -8.29852 3.6
      vertex -3.287 -9.56726 2.22045e-16
    endloop
  endfacet
  facet normal -0.130526 -0.991445 0
    outer loop
      vertex -3.287 -9.56726 3.6
      vertex -3.287 -9.56726 2.22045e-16
      vertex 0 -10 2.22045e-16
    endloop
  endfacet
  facet normal -0.130526 -0.991445 0
    outer loop
      vertex 0 -10 3.6
      vertex -3.287 -9.56726 3.6
      vertex 0 -10 2.22045e-16
    endloop
  endfacet
  facet normal 0.130526 -0.991445 0
    outer loop
      vertex 0 -10 3.6
      vertex 0 -10 2.22045e-16
      vertex 3.287 -9.56726 2.22045e-16
    endloop
  endfacet
  facet normal 0.130526 -0.991445 0
    outer loop
      vertex 3.287 -9.56726 3.6
      vertex 0 -10 3.6
      vertex 3.287 -9.56726 2.22045e-16
    endloop
  endfacet
  facet normal 0.382683 -0.92388 0
    outer loop
      vertex 3.287 -9.56726 3.6
      vertex 3.287 -9.56726 2.22045e-16
      vertex 6.35 -8.29852 2.22045e-16
    endloop
  endfacet
  facet normal 0.382683 -0.92388 0
    outer loop
      vertex 6.35 -8.29852 3.6
      vertex 3.287 -9.56726 3.6
      vertex 6.35 -8.29852 2.22045e-16
    endloop
  endfacet
  facet normal 0.608762 -0.793353 0
    outer loop
      vertex 6.35 -8.29852 3.6
      vertex 6.35 -8.29852 2.22045e-16
      vertex 8.98026 -6.28026 2.22045e-16
    endloop
  endfacet
  facet normal 0.608762 -0.793353 0
    outer loop
      vertex 8.98026 -6.28026 3.6
      vertex 6.35 -8.29852 3.6
      vertex 8.98026 -6.28026 2.22045e-16
    endloop
  endfacet
  facet normal 0.793353 -0.608762 0
    outer loop
      vertex 8.98026 -6.28026 3.6
      vertex 8.98026 -6.28026 2.22045e-16
      vertex 10.9985 -3.65 2.22045e-16
    endloop
  endfacet
  facet normal 0.793353 -0.608762 0
    outer loop
      vertex 10.9985 -3.65 3.6
      vertex 8.98026 -6.28026 3.6
      vertex 10.9985 -3.65 2.22045e-16
    endloop
  endfacet
  facet normal 0.92388 -0.382683 0
    outer loop
      vertex 10.9985 -3.65 3.6
      vertex 10.9985 -3.65 2.22045e-16
      vertex 12.2673 -0.587002 2.22045e-16
    endloop
  endfacet
  facet normal 0.92388 -0.382683 0
    outer loop
      vertex 12.2673 -0.587002 3.6
      vertex 10.9985 -3.65 3.6
      vertex 12.2673 -0.587002 2.22045e-16
    endloop
  endfacet
  facet normal 0.991445 -0.130526 0
    outer loop
      vertex 12.2673 -0.587002 3.6
      vertex 12.2673 -0.587002 2.22045e-16
      vertex 12.7 2.7 2.22045e-16
    endloop
  endfacet
  facet normal 0.991445 -0.130526 0
    outer loop
      vertex 12.7 2.7 3.6
      vertex 12.2673 -0.587002 3.6
      vertex 12.7 2.7 2.22045e-16
    endloop
  endfacet
  facet normal 1 0 0
    outer loop
      vertex 12.7 2.7 3.6
      vertex 12.7 2.7 2.22045e-16
      vertex 12.7 35.4 2.22045e-16
    endloop
  endfacet
  facet normal 1 0 0
    outer loop
      vertex 12.7 35.4 3.6
      vertex 12.7 2.7 3.6
      vertex 12.7 35.4 2.22045e-16
    endloop
  endfacet
  facet normal 0 1 0
    outer loop
      vertex -12.7 35.4 2.22045e-16
      vertex -12.7 35.4 3.6
      vertex 12.7 35.4 2.22045e-16
    endloop
  endfacet
  facet normal 0 1 0
    outer loop
      vertex 12.7 35.4 2.22045e-16
      vertex -12.7 35.4 3.6
      vertex 12.7 35.4 3.6
    endloop
  endfacet
  facet normal 0.991445 0.130526 0
    outer loop
      vertex -1.725 0 3.1
      vertex -1.66622 -0.446463 3.1
      vertex -1.66622 -0.446463 2.22045e-16
    endloop
  endfacet
  facet normal 0.991445 0.130526 0
    outer loop
      vertex -1.725 0 2.22045e-16
      vertex -1.725 0 3.1
      vertex -1.66622 -0.446463 2.22045e-16
    endloop
  endfacet
  facet normal 0.991445 -0.130526 0
    outer loop
      vertex -1.66622 0.446463 2.22045e-16
      vertex -1.66622 0.446463 3.1
      vertex -1.725 0 3.1
    endloop
  endfacet
  facet normal 0.991445 -0.130526 0
    outer loop
      vertex -1.725 0 2.22045e-16
      vertex -1.66622 0.446463 2.22045e-16
      vertex -1.725 0 3.1
    endloop
  endfacet
  facet normal 0.92388 -0.382683 0
    outer loop
      vertex -1.49389 0.8625 2.22045e-16
      vertex -1.49389 0.8625 3.1
      vertex -1.66622 0.446463 3.1
    endloop
  endfacet
  facet normal 0.92388 -0.382683 0
    outer loop
      vertex -1.66622 0.446463 2.22045e-16
      vertex -1.49389 0.8625 2.22045e-16
      vertex -1.66622 0.446463 3.1
    endloop
  endfacet
  facet normal 0.793353 -0.608762 0
    outer loop
      vertex -1.21976 1.21976 2.22045e-16
      vertex -1.21976 1.21976 3.1
      vertex -1.49389 0.8625 3.1
    endloop
  endfacet
  facet normal 0.793353 -0.608762 0
    outer loop
      vertex -1.49389 0.8625 2.22045e-16
      vertex -1.21976 1.21976 2.22045e-16
      vertex -1.49389 0.8625 3.1
    endloop
  endfacet
  facet normal 0.608762 -0.793353 0
    outer loop
      vertex -0.8625 1.49389 2.22045e-16
      vertex -0.8625 1.49389 3.1
      vertex -1.21976 1.21976 3.1
    endloop
  endfacet
  facet normal 0.608762 -0.793353 0
    outer loop
      vertex -1.21976 1.21976 2.22045e-16
      vertex -0.8625 1.49389 2.22045e-16
      vertex -1.21976 1.21976 3.1
    endloop
  endfacet
  facet normal 0.382683 -0.92388 0
    outer loop
      vertex -0.446463 1.66622 2.22045e-16
      vertex -0.446463 1.66622 3.1
      vertex -0.8625 1.49389 3.1
    endloop
  endfacet
  facet normal 0.382683 -0.92388 0
    outer loop
      vertex -0.8625 1.49389 2.22045e-16
      vertex -0.446463 1.66622 2.22045e-16
      vertex -0.8625 1.49389 3.1
    endloop
  endfacet
  facet normal 0.130526 -0.991445 0
    outer loop
      vertex 0 1.725 2.22045e-16
      vertex 0 1.725 3.1
      vertex -0.446463 1.66622 3.1
    endloop
  endfacet
  facet normal 0.130526 -0.991445 0
    outer loop
      vertex -0.446463 1.66622 2.22045e-16
      vertex 0 1.725 2.22045e-16
      vertex -0.446463 1.66622 3.1
    endloop
  endfacet
  facet normal -0.130526 -0.991445 0
    outer loop
      vertex 0.446463 1.66622 2.22045e-16
      vertex 0.446463 1.66622 3.1
      vertex 0 1.725 3.1
    endloop
  endfacet
  facet normal -0.130526 -0.991445 0
    outer loop
      vertex 0 1.725 2.22045e-16
      vertex 0.446463 1.66622 2.22045e-16
      vertex 0 1.725 3.1
    endloop
  endfacet
  facet normal -0.382683 -0.92388 0
    outer loop
      vertex 0.8625 1.49389 2.22045e-16
      vertex 0.8625 1.49389 3.1
      vertex 0.446463 1.66622 3.1
    endloop
  endfacet
  facet normal -0.382683 -0.92388 0
    outer loop
      vertex 0.446463 1.66622 2.22045e-16
      vertex 0.8625 1.49389 2.22045e-16
      vertex 0.446463 1.66622 3.1
    endloop
  endfacet
  facet normal -0.608762 -0.793353 0
    outer loop
      vertex 1.21976 1.21976 2.22045e-16
      vertex 1.21976 1.21976 3.1
      vertex 0.8625 1.49389 3.1
    endloop
  endfacet
  facet normal -0.608762 -0.793353 0
    outer loop
      vertex 0.8625 1.49389 2.22045e-16
      vertex 1.21976 1.21976 2.22045e-16
      vertex 0.8625 1.49389 3.1
    endloop
  endfacet
  facet normal -0.793353 -0.608762 0
    outer loop
      vertex 1.49389 0.8625 3.1
      vertex 1.21976 1.21976 3.1
      vertex 1.49389 0.8625 2.22045e-16
    endloop
  endfacet
  facet normal -0.793353 -0.608762 0
    outer loop
      vertex 1.49389 0.8625 2.22045e-16
      vertex 1.21976 1.21976 3.1
      vertex 1.21976 1.21976 2.22045e-16
    endloop
  endfacet
  facet normal -0.92388 -0.382683 0
    outer loop
      vertex 1.66622 0.446463 3.1
      vertex 1.49389 0.8625 3.1
      vertex 1.66622 0.446463 2.22045e-16
    endloop
  endfacet
  facet normal -0.92388 -0.382683 0
    outer loop
      vertex 1.66622 0.446463 2.22045e-16
      vertex 1.49389 0.8625 3.1
      vertex 1.49389 0.8625 2.22045e-16
    endloop
  endfacet
  facet normal -0.991445 -0.130526 0
    outer loop
      vertex 1.725 0 3.1
      vertex 1.66622 0.446463 3.1
      vertex 1.725 0 2.22045e-16
    endloop
  endfacet
  facet normal -0.991445 -0.130526 0
    outer loop
      vertex 1.725 0 2.22045e-16
      vertex 1.66622 0.446463 3.1
      vertex 1.66622 0.446463 2.22045e-16
    endloop
  endfacet
  facet normal -0.991445 0.130526 0
    outer loop
      vertex 1.725 0 3.1
      vertex 1.725 0 2.22045e-16
      vertex 1.66622 -0.446463 3.1
    endloop
  endfacet
  facet normal -0.991445 0.130526 0
    outer loop
      vertex 1.66622 -0.446463 3.1
      vertex 1.725 0 2.22045e-16
      vertex 1.66622 -0.446463 2.22045e-16
    endloop
  endfacet
  facet normal -0.92388 0.382683 0
    outer loop
      vertex 1.66622 -0.446463 3.1
      vertex 1.66622 -0.446463 2.22045e-16
      vertex 1.49389 -0.8625 3.1
    endloop
  endfacet
  facet normal -0.92388 0.382683 0
    outer loop
      vertex 1.49389 -0.8625 3.1
      vertex 1.66622 -0.446463 2.22045e-16
      vertex 1.49389 -0.8625 2.22045e-16
    endloop
  endfacet
  facet normal -0.793353 0.608762 0
    outer loop
      vertex 1.49389 -0.8625 3.1
      vertex 1.49389 -0.8625 2.22045e-16
      vertex 1.21976 -1.21976 3.1
    endloop
  endfacet
  facet normal -0.793353 0.608762 0
    outer loop
      vertex 1.21976 -1.21976 3.1
      vertex 1.49389 -0.8625 2.22045e-16
      vertex 1.21976 -1.21976 2.22045e-16
    endloop
  endfacet
  facet normal -0.608762 0.793353 0
    outer loop
      vertex 1.21976 -1.21976 3.1
      vertex 1.21976 -1.21976 2.22045e-16
      vertex 0.8625 -1.49389 3.1
    endloop
  endfacet
  facet normal -0.608762 0.793353 0
    outer loop
      vertex 0.8625 -1.49389 3.1
      vertex 1.21976 -1.21976 2.22045e-16
      vertex 0.8625 -1.49389 2.22045e-16
    endloop
  endfacet
  facet normal -0.382683 0.92388 0
    outer loop
      vertex 0.8625 -1.49389 3.1
      vertex 0.8625 -1.49389 2.22045e-16
      vertex 0.446463 -1.66622 3.1
    endloop
  endfacet
  facet normal -0.382683 0.92388 0
    outer loop
      vertex 0.446463 -1.66622 3.1
      vertex 0.8625 -1.49389 2.22045e-16
      vertex 0.446463 -1.66622 2.22045e-16
    endloop
  endfacet
  facet normal -0.130526 0.991445 0
    outer loop
      vertex 0.446463 -1.66622 3.1
      vertex 0.446463 -1.66622 2.22045e-16
      vertex 0 -1.725 3.1
    endloop
  endfacet
  facet normal -0.130526 0.991445 0
    outer loop
      vertex 0 -1.725 3.1
      vertex 0.446463 -1.66622 2.22045e-16
      vertex 0 -1.725 2.22045e-16
    endloop
  endfacet
  facet normal 0.130526 0.991445 0
    outer loop
      vertex 0 -1.725 3.1
      vertex 0 -1.725 2.22045e-16
      vertex -0.446463 -1.66622 3.1
    endloop
  endfacet
  facet normal 0.130526 0.991445 0
    outer loop
      vertex -0.446463 -1.66622 3.1
      vertex 0 -1.725 2.22045e-16
      vertex -0.446463 -1.66622 2.22045e-16
    endloop
  endfacet
  facet normal 0.382683 0.92388 0
    outer loop
      vertex -0.446463 -1.66622 3.1
      vertex -0.446463 -1.66622 2.22045e-16
      vertex -0.8625 -1.49389 3.1
    endloop
  endfacet
  facet normal 0.382683 0.92388 0
    outer loop
      vertex -0.8625 -1.49389 3.1
      vertex -0.446463 -1.66622 2.22045e-16
      vertex -0.8625 -1.49389 2.22045e-16
    endloop
  endfacet
  facet normal 0.608762 0.793353 0
    outer loop
      vertex -0.8625 -1.49389 3.1
      vertex -0.8625 -1.49389 2.22045e-16
      vertex -1.21976 -1.21976 3.1
    endloop
  endfacet
  facet normal 0.608762 0.793353 0
    outer loop
      vertex -1.21976 -1.21976 3.1
      vertex -0.8625 -1.49389 2.22045e-16
      vertex -1.21976 -1.21976 2.22045e-16
    endloop
  endfacet
  facet normal 0.793353 0.608762 0
    outer loop
      vertex -1.49389 -0.8625 3.1
      vertex -1.21976 -1.21976 3.1
      vertex -1.21976 -1.21976 2.22045e-16
    endloop
  endfacet
  facet normal 0.793353 0.608762 0
    outer loop
      vertex -1.49389 -0.8625 2.22045e-16
      vertex -1.49389 -0.8625 3.1
      vertex -1.21976 -1.21976 2.22045e-16
    endloop
  endfacet
  facet normal 0.92388 0.382683 0
    outer loop
      vertex -1.66622 -0.446463 3.1
      vertex -1.49389 -0.8625 3.1
      vertex -1.49389 -0.8625 2.22045e-16
    endloop
  endfacet
  facet normal 0.92388 0.382683 0
    outer loop
      vertex -1.66622 -0.446463 2.22045e-16
      vertex -1.66622 -0.446463 3.1
      vertex -1.49389 -0.8625 2.22045e-16
    endloop
  endfacet
  facet normal 0.991445 0.130527 0
    outer loop
      vertex -3.5 0 3.6
      vertex -3.38074 -0.905867 3.6
      vertex -3.38074 -0.905867 3.1
    endloop
  endfacet
  facet normal 0.991445 0.130527 0
    outer loop
      vertex -3.5 0 3.1
      vertex -3.5 0 3.6
      vertex -3.38074 -0.905867 3.1
    endloop
  endfacet
  facet normal 0.92388 0.382683 0
    outer loop
      vertex -3.38074 -0.905867 3.6
      vertex -3.03109 -1.75 3.6
      vertex -3.03109 -1.75 3.1
    endloop
  endfacet
  facet normal 0.92388 0.382683 0
    outer loop
      vertex -3.38074 -0.905867 3.1
      vertex -3.38074 -0.905867 3.6
      vertex -3.03109 -1.75 3.1
    endloop
  endfacet
  facet normal 0.793354 0.608761 0
    outer loop
      vertex -3.03109 -1.75 3.6
      vertex -2.47487 -2.47487 3.6
      vertex -2.47487 -2.47487 3.1
    endloop
  endfacet
  facet normal 0.793354 0.608761 0
    outer loop
      vertex -3.03109 -1.75 3.1
      vertex -3.03109 -1.75 3.6
      vertex -2.47487 -2.47487 3.1
    endloop
  endfacet
  facet normal 0.608761 0.793354 0
    outer loop
      vertex -1.75 -3.03109 3.6
      vertex -1.75 -3.03109 3.1
      vertex -2.47487 -2.47487 3.6
    endloop
  endfacet
  facet normal 0.608761 0.793354 0
    outer loop
      vertex -2.47487 -2.47487 3.6
      vertex -1.75 -3.03109 3.1
      vertex -2.47487 -2.47487 3.1
    endloop
  endfacet
  facet normal 0.382683 0.92388 0
    outer loop
      vertex -0.905867 -3.38074 3.6
      vertex -0.905867 -3.38074 3.1
      vertex -1.75 -3.03109 3.6
    endloop
  endfacet
  facet normal 0.382683 0.92388 0
    outer loop
      vertex -1.75 -3.03109 3.6
      vertex -0.905867 -3.38074 3.1
      vertex -1.75 -3.03109 3.1
    endloop
  endfacet
  facet normal 0.130527 0.991445 0
    outer loop
      vertex 0 -3.5 3.6
      vertex 0 -3.5 3.1
      vertex -0.905867 -3.38074 3.6
    endloop
  endfacet
  facet normal 0.130527 0.991445 0
    outer loop
      vertex -0.905867 -3.38074 3.6
      vertex 0 -3.5 3.1
      vertex -0.905867 -3.38074 3.1
    endloop
  endfacet
  facet normal -0.130527 0.991445 0
    outer loop
      vertex 0.905867 -3.38074 3.6
      vertex 0.905867 -3.38074 3.1
      vertex 0 -3.5 3.6
    endloop
  endfacet
  facet normal -0.130527 0.991445 0
    outer loop
      vertex 0 -3.5 3.6
      vertex 0.905867 -3.38074 3.1
      vertex 0 -3.5 3.1
    endloop
  endfacet
  facet normal -0.382683 0.92388 0
    outer loop
      vertex 1.75 -3.03109 3.6
      vertex 1.75 -3.03109 3.1
      vertex 0.905867 -3.38074 3.6
    endloop
  endfacet
  facet normal -0.382683 0.92388 0
    outer loop
      vertex 0.905867 -3.38074 3.6
      vertex 1.75 -3.03109 3.1
      vertex 0.905867 -3.38074 3.1
    endloop
  endfacet
  facet normal -0.608761 0.793354 0
    outer loop
      vertex 2.47487 -2.47487 3.6
      vertex 2.47487 -2.47487 3.1
      vertex 1.75 -3.03109 3.6
    endloop
  endfacet
  facet normal -0.608761 0.793354 0
    outer loop
      vertex 1.75 -3.03109 3.6
      vertex 2.47487 -2.47487 3.1
      vertex 1.75 -3.03109 3.1
    endloop
  endfacet
  facet normal -0.793354 0.608761 0
    outer loop
      vertex 3.03109 -1.75 3.6
      vertex 3.03109 -1.75 3.1
      vertex 2.47487 -2.47487 3.6
    endloop
  endfacet
  facet normal -0.793354 0.608761 0
    outer loop
      vertex 2.47487 -2.47487 3.6
      vertex 3.03109 -1.75 3.1
      vertex 2.47487 -2.47487 3.1
    endloop
  endfacet
  facet normal -0.92388 0.382683 0
    outer loop
      vertex 3.38074 -0.905867 3.6
      vertex 3.38074 -0.905867 3.1
      vertex 3.03109 -1.75 3.6
    endloop
  endfacet
  facet normal -0.92388 0.382683 0
    outer loop
      vertex 3.03109 -1.75 3.6
      vertex 3.38074 -0.905867 3.1
      vertex 3.03109 -1.75 3.1
    endloop
  endfacet
  facet normal -0.991445 0.130527 0
    outer loop
      vertex 3.5 0 3.6
      vertex 3.5 0 3.1
      vertex 3.38074 -0.905867 3.6
    endloop
  endfacet
  facet normal -0.991445 0.130527 0
    outer loop
      vertex 3.38074 -0.905867 3.6
      vertex 3.5 0 3.1
      vertex 3.38074 -0.905867 3.1
    endloop
  endfacet
  facet normal -0.991445 -0.130527 0
    outer loop
      vertex 3.5 0 3.6
      vertex 3.38074 0.905867 3.6
      vertex 3.5 0 3.1
    endloop
  endfacet
  facet normal -0.991445 -0.130527 0
    outer loop
      vertex 3.5 0 3.1
      vertex 3.38074 0.905867 3.6
      vertex 3.38074 0.905867 3.1
    endloop
  endfacet
  facet normal -0.92388 -0.382683 0
    outer loop
      vertex 3.38074 0.905867 3.6
      vertex 3.03109 1.75 3.6
      vertex 3.38074 0.905867 3.1
    endloop
  endfacet
  facet normal -0.92388 -0.382683 0
    outer loop
      vertex 3.38074 0.905867 3.1
      vertex 3.03109 1.75 3.6
      vertex 3.03109 1.75 3.1
    endloop
  endfacet
  facet normal -0.793354 -0.608761 0
    outer loop
      vertex 3.03109 1.75 3.6
      vertex 2.47487 2.47487 3.6
      vertex 3.03109 1.75 3.1
    endloop
  endfacet
  facet normal -0.793354 -0.608761 0
    outer loop
      vertex 3.03109 1.75 3.1
      vertex 2.47487 2.47487 3.6
      vertex 2.47487 2.47487 3.1
    endloop
  endfacet
  facet normal -0.608761 -0.793354 0
    outer loop
      vertex 2.47487 2.47487 3.1
      vertex 2.47487 2.47487 3.6
      vertex 1.75 3.03109 3.6
    endloop
  endfacet
  facet normal -0.608761 -0.793354 0
    outer loop
      vertex 1.75 3.03109 3.1
      vertex 2.47487 2.47487 3.1
      vertex 1.75 3.03109 3.6
    endloop
  endfacet
  facet normal -0.382683 -0.92388 0
    outer loop
      vertex 1.75 3.03109 3.1
      vertex 1.75 3.03109 3.6
      vertex 0.905867 3.38074 3.6
    endloop
  endfacet
  facet normal -0.382683 -0.92388 0
    outer loop
      vertex 0.905867 3.38074 3.1
      vertex 1.75 3.03109 3.1
      vertex 0.905867 3.38074 3.6
    endloop
  endfacet
  facet normal -0.130527 -0.991445 0
    outer loop
      vertex 0.905867 3.38074 3.1
      vertex 0.905867 3.38074 3.6
      vertex 0 3.5 3.6
    endloop
  endfacet
  facet normal -0.130527 -0.991445 0
    outer loop
      vertex 0 3.5 3.1
      vertex 0.905867 3.38074 3.1
      vertex 0 3.5 3.6
    endloop
  endfacet
  facet normal 0.130527 -0.991445 0
    outer loop
      vertex 0 3.5 3.1
      vertex 0 3.5 3.6
      vertex -0.905867 3.38074 3.6
    endloop
  endfacet
  facet normal 0.130527 -0.991445 0
    outer loop
      vertex -0.905867 3.38074 3.1
      vertex 0 3.5 3.1
      vertex -0.905867 3.38074 3.6
    endloop
  endfacet
  facet normal 0.382683 -0.92388 0
    outer loop
      vertex -0.905867 3.38074 3.1
      vertex -0.905867 3.38074 3.6
      vertex -1.75 3.03109 3.6
    endloop
  endfacet
  facet normal 0.382683 -0.92388 0
    outer loop
      vertex -1.75 3.03109 3.1
      vertex -0.905867 3.38074 3.1
      vertex -1.75 3.03109 3.6
    endloop
  endfacet
  facet normal 0.608761 -0.793354 0
    outer loop
      vertex -1.75 3.03109 3.1
      vertex -1.75 3.03109 3.6
      vertex -2.47487 2.47487 3.6
    endloop
  endfacet
  facet normal 0.608761 -0.793354 0
    outer loop
      vertex -2.47487 2.47487 3.1
      vertex -1.75 3.03109 3.1
      vertex -2.47487 2.47487 3.6
    endloop
  endfacet
  facet normal 0.793354 -0.608761 0
    outer loop
      vertex -2.47487 2.47487 3.1
      vertex -2.47487 2.47487 3.6
      vertex -3.03109 1.75 3.6
    endloop
  endfacet
  facet normal 0.793354 -0.608761 0
    outer loop
      vertex -3.03109 1.75 3.1
      vertex -2.47487 2.47487 3.1
      vertex -3.03109 1.75 3.6
    endloop
  endfacet
  facet normal 0.92388 -0.382683 0
    outer loop
      vertex -3.03109 1.75 3.1
      vertex -3.03109 1.75 3.6
      vertex -3.38074 0.905867 3.6
    endloop
  endfacet
  facet normal 0.92388 -0.382683 0
    outer loop
      vertex -3.38074 0.905867 3.1
      vertex -3.03109 1.75 3.1
      vertex -3.38074 0.905867 3.6
    endloop
  endfacet
  facet normal 0.991445 -0.130527 0
    outer loop
      vertex -3.38074 0.905867 3.1
      vertex -3.38074 0.905867 3.6
      vertex -3.5 0 3.6
    endloop
  endfacet
  facet normal 0.991445 -0.130527 0
    outer loop
      vertex -3.5 0 3.1
      vertex -3.38074 0.905867 3.1
      vertex -3.5 0 3.6
    endloop
  endfacet
  facet normal 0 0 1
    outer loop
      vertex -3.38074 -0.905867 3.1
      vertex -3.03109 -1.75 3.1
      vertex -2.47487 -2.47487 3.1
    endloop
  endfacet
  facet normal 0 0 1
    outer loop
      vertex -0.905867 -3.38074 3.1
      vertex -3.38074 -0.905867 3.1
      vertex -1.75 -3.03109 3.1
    endloop
  endfacet
  facet normal 0 0 1
    outer loop
      vertex -1.75 -3.03109 3.1
      vertex -3.38074 -0.905867 3.1
      vertex -2.47487 -2.47487 3.1
    endloop
  endfacet
  facet normal 0 0 1
    outer loop
      vertex 0 -3.5 3.1
      vertex -3.38074 -0.905867 3.1
      vertex -0.905867 -3.38074 3.1
    endloop
  endfacet
  facet normal 0 0 1
    outer loop
      vertex 0.905867 -3.38074 3.1
      vertex -3.38074 -0.905867 3.1
      vertex 0 -3.5 3.1
    endloop
  endfacet
  facet normal 0 0 1
    outer loop
      vertex 1.75 -3.03109 3.1
      vertex -3.38074 -0.905867 3.1
      vertex 0.905867 -3.38074 3.1
    endloop
  endfacet
  facet normal 0 0 1
    outer loop
      vertex 2.47487 -2.47487 3.1
      vertex -3.38074 -0.905867 3.1
      vertex 1.75 -3.03109 3.1
    endloop
  endfacet
  facet normal 0 0 1
    outer loop
      vertex -0.446463 -1.66622 3.1
      vertex -3.38074 -0.905867 3.1
      vertex 2.47487 -2.47487 3.1
    endloop
  endfacet
  facet normal 0 0 1
    outer loop
      vertex -0.446463 -1.66622 3.1
      vertex -0.8625 -1.49389 3.1
      vertex -3.38074 -0.905867 3.1
    endloop
  endfacet
  facet normal 0 0 1
    outer loop
      vertex 1.21976 -1.21976 3.1
      vertex 0.8625 -1.49389 3.1
      vertex 3.03109 -1.75 3.1
    endloop
  endfacet
  facet normal 0 0 1
    outer loop
      vertex 1.49389 -0.8625 3.1
      vertex 1.21976 -1.21976 3.1
      vertex 3.38074 -0.905867 3.1
    endloop
  endfacet
  facet normal 0 0 1
    outer loop
      vertex 1.725 0 3.1
      vertex 1.66622 -0.446463 3.1
      vertex 3.5 0 3.1
    endloop
  endfacet
  facet normal 0 0 1
    outer loop
      vertex 0.446463 1.66622 3.1
      vertex 0.8625 1.49389 3.1
      vertex 2.47487 2.47487 3.1
    endloop
  endfacet
  facet normal 0 0 1
    outer loop
      vertex 0 3.5 3.1
      vertex -3.38074 -0.905867 3.1
      vertex 0.905867 3.38074 3.1
    endloop
  endfacet
  facet normal 0 0 1
    outer loop
      vertex -0.905867 3.38074 3.1
      vertex -3.38074 -0.905867 3.1
      vertex 0 3.5 3.1
    endloop
  endfacet
  facet normal 0 0 1
    outer loop
      vertex -1.75 3.03109 3.1
      vertex -3.38074 -0.905867 3.1
      vertex -0.905867 3.38074 3.1
    endloop
  endfacet
  facet normal 0 0 1
    outer loop
      vertex -2.47487 2.47487 3.1
      vertex -3.38074 -0.905867 3.1
      vertex -1.75 3.03109 3.1
    endloop
  endfacet
  facet normal 0 0 1
    outer loop
      vertex -3.03109 1.75 3.1
      vertex -3.38074 -0.905867 3.1
      vertex -2.47487 2.47487 3.1
    endloop
  endfacet
  facet normal 0 0 1
    outer loop
      vertex -3.38074 0.905867 3.1
      vertex -3.38074 -0.905867 3.1
      vertex -3.03109 1.75 3.1
    endloop
  endfacet
  facet normal 0 0 1
    outer loop
      vertex -3.5 0 3.1
      vertex -3.38074 -0.905867 3.1
      vertex -3.38074 0.905867 3.1
    endloop
  endfacet
  facet normal 0 0 1
    outer loop
      vertex -1.21976 -1.21976 3.1
      vertex -1.49389 -0.8625 3.1
      vertex -3.38074 -0.905867 3.1
    endloop
  endfacet
  facet normal 0 0 1
    outer loop
      vertex -1.49389 0.8625 3.1
      vertex -3.38074 -0.905867 3.1
      vertex -1.66622 0.446463 3.1
    endloop
  endfacet
  facet normal 0 0 1
    outer loop
      vertex -1.21976 1.21976 3.1
      vertex -3.38074 -0.905867 3.1
      vertex -1.49389 0.8625 3.1
    endloop
  endfacet
  facet normal 0 0 1
    outer loop
      vertex -0.8625 1.49389 3.1
      vertex -0.446463 1.66622 3.1
      vertex 0.905867 3.38074 3.1
    endloop
  endfacet
  facet normal 0 0 1
    outer loop
      vertex 0.905867 3.38074 3.1
      vertex -3.38074 -0.905867 3.1
      vertex -1.21976 1.21976 3.1
    endloop
  endfacet
  facet normal 0 0 1
    outer loop
      vertex 0 1.725 3.1
      vertex 0.446463 1.66622 3.1
      vertex 1.75 3.03109 3.1
    endloop
  endfacet
  facet normal 0 0 1
    outer loop
      vertex 0.905867 3.38074 3.1
      vertex -0.446463 1.66622 3.1
      vertex 1.75 3.03109 3.1
    endloop
  endfacet
  facet normal 0 0 1
    outer loop
      vertex -0.446463 1.66622 3.1
      vertex 0 1.725 3.1
      vertex 1.75 3.03109 3.1
    endloop
  endfacet
  facet normal 0 0 1
    outer loop
      vertex 1.75 3.03109 3.1
      vertex 0.446463 1.66622 3.1
      vertex 2.47487 2.47487 3.1
    endloop
  endfacet
  facet normal 0 0 1
    outer loop
      vertex -1.21976 1.21976 3.1
      vertex -0.8625 1.49389 3.1
      vertex 0.905867 3.38074 3.1
    endloop
  endfacet
  facet normal 0 0 1
    outer loop
      vertex 2.47487 2.47487 3.1
      vertex 0.8625 1.49389 3.1
      vertex 3.03109 1.75 3.1
    endloop
  endfacet
  facet normal 0 0 1
    outer loop
      vertex 0.8625 1.49389 3.1
      vertex 1.21976 1.21976 3.1
      vertex 3.03109 1.75 3.1
    endloop
  endfacet
  facet normal 0 0 1
    outer loop
      vertex 3.03109 1.75 3.1
      vertex 1.49389 0.8625 3.1
      vertex 3.38074 0.905867 3.1
    endloop
  endfacet
  facet normal 0 0 1
    outer loop
      vertex 1.49389 0.8625 3.1
      vertex 1.66622 0.446463 3.1
      vertex 3.38074 0.905867 3.1
    endloop
  endfacet
  facet normal 0 0 1
    outer loop
      vertex 3.38074 0.905867 3.1
      vertex 1.66622 0.446463 3.1
      vertex 3.5 0 3.1
    endloop
  endfacet
  facet normal 0 0 1
    outer loop
      vertex 1.66622 0.446463 3.1
      vertex 1.725 0 3.1
      vertex 3.5 0 3.1
    endloop
  endfacet
  facet normal 0 0 1
    outer loop
      vertex 3.5 0 3.1
      vertex 1.66622 -0.446463 3.1
      vertex 3.38074 -0.905867 3.1
    endloop
  endfacet
  facet normal 0 0 1
    outer loop
      vertex 1.66622 -0.446463 3.1
      vertex 1.49389 -0.8625 3.1
      vertex 3.38074 -0.905867 3.1
    endloop
  endfacet
  facet normal 0 0 1
    outer loop
      vertex 3.38074 -0.905867 3.1
      vertex 1.21976 -1.21976 3.1
      vertex 3.03109 -1.75 3.1
    endloop
  endfacet
  facet normal 0 0 1
    outer loop
      vertex 3.03109 -1.75 3.1
      vertex 0.8625 -1.49389 3.1
      vertex 2.47487 -2.47487 3.1
    endloop
  endfacet
  facet normal 0 0 1
    outer loop
      vertex 0.8625 -1.49389 3.1
      vertex 0.446463 -1.66622 3.1
      vertex 2.47487 -2.47487 3.1
    endloop
  endfacet
  facet normal 0 0 1
    outer loop
      vertex 0.446463 -1.66622 3.1
      vertex 0 -1.725 3.1
      vertex 2.47487 -2.47487 3.1
    endloop
  endfacet
  facet normal 0 0 1
    outer loop
      vertex 0 -1.725 3.1
      vertex -0.446463 -1.66622 3.1
      vertex 2.47487 -2.47487 3.1
    endloop
  endfacet
  facet normal 0 0 1
    outer loop
      vertex -0.8625 -1.49389 3.1
      vertex -1.21976 -1.21976 3.1
      vertex -3.38074 -0.905867 3.1
    endloop
  endfacet
  facet normal 0 0 1
    outer loop
      vertex -1.49389 -0.8625 3.1
      vertex -1.66622 -0.446463 3.1
      vertex -3.38074 -0.905867 3.1
    endloop
  endfacet
  facet normal 0 0 1
    outer loop
      vertex 1.21976 1.21976 3.1
      vertex 1.49389 0.8625 3.1
      vertex 3.03109 1.75 3.1
    endloop
  endfacet
  facet normal 0 0 1
    outer loop
      vertex -1.66622 -0.446463 3.1
      vertex -1.725 0 3.1
      vertex -3.38074 -0.905867 3.1
    endloop
  endfacet
  facet normal 0 0 1
    outer loop
      vertex -1.725 0 3.1
      vertex -1.66622 0.446463 3.1
      vertex -3.38074 -0.905867 3.1
    endloop
  endfacet
endsolid OpenSCAD_Model
