solid OpenSCAD_Model
  facet normal -1 0 0
    outer loop
      vertex -13.6 -23.5 0
      vertex -13.6 -23.5 10
      vertex -13.6 -10.3 0
    endloop
  endfacet
  facet normal -1 0 0
    outer loop
      vertex -13.6 -10.3 0
      vertex -13.6 -23.5 10
      vertex -13.6 -10.3 10
    endloop
  endfacet
  facet normal 0 -1 0
    outer loop
      vertex -13.6 -23.5 10
      vertex -13.6 -23.5 0
      vertex 13.6 -23.5 0
    endloop
  endfacet
  facet normal 0 -1 0
    outer loop
      vertex 13.6 -23.5 10
      vertex -13.6 -23.5 10
      vertex 13.6 -23.5 0
    endloop
  endfacet
  facet normal 0 0 -1
    outer loop
      vertex 10 -20 0
      vertex 13.6 -23.5 0
      vertex -10 -20 0
    endloop
  endfacet
  facet normal 0 0 -1
    outer loop
      vertex 10 -13.8 0
      vertex -13.6 -10.3 0
      vertex 13.6 -10.3 0
    endloop
  endfacet
  facet normal 0 0 -1
    outer loop
      vertex -13.6 -23.5 0
      vertex -13.6 -10.3 0
      vertex -10 -13.8 0
    endloop
  endfacet
  facet normal 0 0 -1
    outer loop
      vertex -13.6 -23.5 0
      vertex -10 -13.8 0
      vertex -10 -20 0
    endloop
  endfacet
  facet normal 0 0 -1
    outer loop
      vertex -13.6 -23.5 0
      vertex -10 -20 0
      vertex 13.6 -23.5 0
    endloop
  endfacet
  facet normal 0 0 -1
    outer loop
      vertex 13.6 -23.5 0
      vertex 10 -20 0
      vertex 13.6 -10.3 0
    endloop
  endfacet
  facet normal 0 0 -1
    outer loop
      vertex 10 -20 0
      vertex 10 -13.8 0
      vertex 13.6 -10.3 0
    endloop
  endfacet
  facet normal 0 0 -1
    outer loop
      vertex -10 -13.8 0
      vertex -13.6 -10.3 0
      vertex 10 -13.8 0
    endloop
  endfacet
  facet normal 0 1 0
    outer loop
      vertex -13.6 -10.3 0
      vertex -13.6 -10.3 10
      vertex 13.6 -10.3 0
    endloop
  endfacet
  facet normal 0 1 0
    outer loop
      vertex 13.6 -10.3 0
      vertex -13.6 -10.3 10
      vertex 13.6 -10.3 10
    endloop
  endfacet
  facet normal 0 0 1
    outer loop
      vertex -10 -20 10
      vertex -13.6 -23.5 10
      vertex 13.6 -23.5 10
    endloop
  endfacet
  facet normal 0 0 1
    outer loop
      vertex -13.6 -10.3 10
      vertex -13.6 -23.5 10
      vertex -10 -20 10
    endloop
  endfacet
  facet normal 0 0 1
    outer loop
      vertex -10 -13.8 10
      vertex 10 -13.8 10
      vertex -13.6 -10.3 10
    endloop
  endfacet
  facet normal 0 0 1
    outer loop
      vertex -13.6 -10.3 10
      vertex -10 -20 10
      vertex -10 -13.8 10
    endloop
  endfacet
  facet normal 0 0 1
    outer loop
      vertex 13.6 -10.3 10
      vertex 10 -13.8 10
      vertex 13.6 -23.5 10
    endloop
  endfacet
  facet normal 0 0 1
    outer loop
      vertex 13.6 -10.3 10
      vertex -13.6 -10.3 10
      vertex 10 -13.8 10
    endloop
  endfacet
  facet normal 0 0 1
    outer loop
      vertex 10 -13.8 10
      vertex 10 -20 10
      vertex 13.6 -23.5 10
    endloop
  endfacet
  facet normal 0 0 1
    outer loop
      vertex 10 -20 10
      vertex -10 -20 10
      vertex 13.6 -23.5 10
    endloop
  endfacet
  facet normal 1 0 0
    outer loop
      vertex 13.6 -23.5 10
      vertex 13.6 -23.5 0
      vertex 13.6 -10.3 0
    endloop
  endfacet
  facet normal 1 0 0
    outer loop
      vertex 13.6 -10.3 10
      vertex 13.6 -23.5 10
      vertex 13.6 -10.3 0
    endloop
  endfacet
  facet normal 1 0 0
    outer loop
      vertex -10 -13.8 0
      vertex -10 -13.8 10
      vertex -10 -20 10
    endloop
  endfacet
  facet normal 1 0 0
    outer loop
      vertex -10 -20 0
      vertex -10 -13.8 0
      vertex -10 -20 10
    endloop
  endfacet
  facet normal 0 -1 0
    outer loop
      vertex 10 -13.8 0
      vertex 10 -13.8 10
      vertex -10 -13.8 10
    endloop
  endfacet
  facet normal 0 -1 0
    outer loop
      vertex -10 -13.8 0
      vertex 10 -13.8 0
      vertex -10 -13.8 10
    endloop
  endfacet
  facet normal -1 0 0
    outer loop
      vertex 10 -13.8 10
      vertex 10 -13.8 0
      vertex 10 -20 10
    endloop
  endfacet
  facet normal -1 0 0
    outer loop
      vertex 10 -20 10
      vertex 10 -13.8 0
      vertex 10 -20 0
    endloop
  endfacet
  facet normal 0 1 0
    outer loop
      vertex 10 -20 10
      vertex 10 -20 0
      vertex -10 -20 10
    endloop
  endfacet
  facet normal 0 1 0
    outer loop
      vertex -10 -20 10
      vertex 10 -20 0
      vertex -10 -20 0
    endloop
  endfacet
endsolid OpenSCAD_Model
