solid OpenSCAD_Model
  facet normal -1 0 0
    outer loop
      vertex -11 -3.125 0
      vertex -11 -3.125 10
      vertex -11 3.125 0
    endloop
  endfacet
  facet normal -1 0 0
    outer loop
      vertex -11 3.125 0
      vertex -11 -3.125 10
      vertex -11 3.125 10
    endloop
  endfacet
  facet normal 0 -1 0
    outer loop
      vertex -4.75 -3.125 6.75
      vertex -11 -3.125 0
      vertex 11 -3.125 0
    endloop
  endfacet
  facet normal 0 -1 0
    outer loop
      vertex -10 -3.125 20
      vertex -3.03109 -3.125 11.25
      vertex -3.38074 -3.125 12.0941
    endloop
  endfacet
  facet normal 0 -1 0
    outer loop
      vertex -4.75 -3.125 9.25
      vertex -4.125 -3.125 9.08253
      vertex 0 -3.125 9.5
    endloop
  endfacet
  facet normal 0 -1 0
    outer loop
      vertex 11 -3.125 10
      vertex 10 -3.125 10
      vertex 11 -3.125 0
    endloop
  endfacet
  facet normal 0 -1 0
    outer loop
      vertex -5.375 -3.125 6.91747
      vertex -5.83253 -3.125 7.375
      vertex -11 -3.125 10
    endloop
  endfacet
  facet normal 0 -1 0
    outer loop
      vertex 10 -3.125 20
      vertex 3.5 -3.125 13
      vertex 10 -3.125 10
    endloop
  endfacet
  facet normal 0 -1 0
    outer loop
      vertex 3.5 -3.125 13
      vertex 3.38074 -3.125 12.0941
      vertex 10 -3.125 10
    endloop
  endfacet
  facet normal 0 -1 0
    outer loop
      vertex 3.38074 -3.125 12.0941
      vertex 3.03109 -3.125 11.25
      vertex 10 -3.125 10
    endloop
  endfacet
  facet normal 0 -1 0
    outer loop
      vertex -5.83253 -3.125 7.375
      vertex -6 -3.125 8
      vertex -11 -3.125 10
    endloop
  endfacet
  facet normal 0 -1 0
    outer loop
      vertex 3.03109 -3.125 11.25
      vertex 2.47487 -3.125 10.5251
      vertex 10 -3.125 10
    endloop
  endfacet
  facet normal 0 -1 0
    outer loop
      vertex 4.75 -3.125 9.25
      vertex 5.375 -3.125 9.08253
      vertex 10 -3.125 10
    endloop
  endfacet
  facet normal 0 -1 0
    outer loop
      vertex 4.125 -3.125 6.91747
      vertex 0.905867 -3.125 9.61926
      vertex 11 -3.125 0
    endloop
  endfacet
  facet normal 0 -1 0
    outer loop
      vertex 0.905867 -3.125 9.61926
      vertex 0 -3.125 9.5
      vertex 11 -3.125 0
    endloop
  endfacet
  facet normal 0 -1 0
    outer loop
      vertex -0.905867 -3.125 9.61926
      vertex -11 -3.125 10
      vertex 0 -3.125 9.5
    endloop
  endfacet
  facet normal 0 -1 0
    outer loop
      vertex -10 -3.125 20
      vertex -2.47487 -3.125 10.5251
      vertex -3.03109 -3.125 11.25
    endloop
  endfacet
  facet normal 0 -1 0
    outer loop
      vertex -10 -3.125 20
      vertex -3.38074 -3.125 12.0941
      vertex -3.5 -3.125 13
    endloop
  endfacet
  facet normal 0 -1 0
    outer loop
      vertex 2.47487 -3.125 10.5251
      vertex 1.75 -3.125 9.96891
      vertex 10 -3.125 10
    endloop
  endfacet
  facet normal 0 -1 0
    outer loop
      vertex -1.75 -3.125 9.96891
      vertex -10 -3.125 10
      vertex -11 -3.125 10
    endloop
  endfacet
  facet normal 0 -1 0
    outer loop
      vertex -0.905867 -3.125 9.61926
      vertex -1.75 -3.125 9.96891
      vertex -11 -3.125 10
    endloop
  endfacet
  facet normal 0 -1 0
    outer loop
      vertex -4.125 -3.125 6.91747
      vertex -4.75 -3.125 6.75
      vertex 11 -3.125 0
    endloop
  endfacet
  facet normal 0 -1 0
    outer loop
      vertex -5.83253 -3.125 8.625
      vertex -11 -3.125 10
      vertex -6 -3.125 8
    endloop
  endfacet
  facet normal 0 -1 0
    outer loop
      vertex -5.375 -3.125 9.08253
      vertex -11 -3.125 10
      vertex -5.83253 -3.125 8.625
    endloop
  endfacet
  facet normal 0 -1 0
    outer loop
      vertex -4.75 -3.125 9.25
      vertex -11 -3.125 10
      vertex -5.375 -3.125 9.08253
    endloop
  endfacet
  facet normal 0 -1 0
    outer loop
      vertex -4.125 -3.125 9.08253
      vertex -3.66747 -3.125 8.625
      vertex 0 -3.125 9.5
    endloop
  endfacet
  facet normal 0 -1 0
    outer loop
      vertex 0 -3.125 9.5
      vertex -11 -3.125 10
      vertex -4.75 -3.125 9.25
    endloop
  endfacet
  facet normal 0 -1 0
    outer loop
      vertex -3.66747 -3.125 8.625
      vertex -3.5 -3.125 8
      vertex 0 -3.125 9.5
    endloop
  endfacet
  facet normal 0 -1 0
    outer loop
      vertex -3.66747 -3.125 7.375
      vertex -4.125 -3.125 6.91747
      vertex 11 -3.125 0
    endloop
  endfacet
  facet normal 0 -1 0
    outer loop
      vertex 0 -3.125 9.5
      vertex -3.5 -3.125 8
      vertex 11 -3.125 0
    endloop
  endfacet
  facet normal 0 -1 0
    outer loop
      vertex -3.5 -3.125 8
      vertex -3.66747 -3.125 7.375
      vertex 11 -3.125 0
    endloop
  endfacet
  facet normal 0 -1 0
    outer loop
      vertex -5.375 -3.125 6.91747
      vertex -11 -3.125 0
      vertex -4.75 -3.125 6.75
    endloop
  endfacet
  facet normal 0 -1 0
    outer loop
      vertex -11 -3.125 10
      vertex -11 -3.125 0
      vertex -5.375 -3.125 6.91747
    endloop
  endfacet
  facet normal 0 -1 0
    outer loop
      vertex 3.5 -3.125 8
      vertex 3.66747 -3.125 8.625
      vertex 1.75 -3.125 9.96891
    endloop
  endfacet
  facet normal 0 -1 0
    outer loop
      vertex 1.75 -3.125 9.96891
      vertex 0.905867 -3.125 9.61926
      vertex 3.5 -3.125 8
    endloop
  endfacet
  facet normal 0 -1 0
    outer loop
      vertex 4.75 -3.125 6.75
      vertex 4.125 -3.125 6.91747
      vertex 11 -3.125 0
    endloop
  endfacet
  facet normal 0 -1 0
    outer loop
      vertex 4.125 -3.125 9.08253
      vertex 1.75 -3.125 9.96891
      vertex 3.66747 -3.125 8.625
    endloop
  endfacet
  facet normal 0 -1 0
    outer loop
      vertex 4.75 -3.125 9.25
      vertex 1.75 -3.125 9.96891
      vertex 4.125 -3.125 9.08253
    endloop
  endfacet
  facet normal 0 -1 0
    outer loop
      vertex 5.375 -3.125 9.08253
      vertex 5.83253 -3.125 8.625
      vertex 10 -3.125 10
    endloop
  endfacet
  facet normal 0 -1 0
    outer loop
      vertex 10 -3.125 10
      vertex 1.75 -3.125 9.96891
      vertex 4.75 -3.125 9.25
    endloop
  endfacet
  facet normal 0 -1 0
    outer loop
      vertex 5.375 -3.125 6.91747
      vertex 4.75 -3.125 6.75
      vertex 11 -3.125 0
    endloop
  endfacet
  facet normal 0 -1 0
    outer loop
      vertex 10 -3.125 10
      vertex 5.83253 -3.125 8.625
      vertex 11 -3.125 0
    endloop
  endfacet
  facet normal 0 -1 0
    outer loop
      vertex 5.83253 -3.125 8.625
      vertex 6 -3.125 8
      vertex 11 -3.125 0
    endloop
  endfacet
  facet normal 0 -1 0
    outer loop
      vertex 6 -3.125 8
      vertex 5.83253 -3.125 7.375
      vertex 11 -3.125 0
    endloop
  endfacet
  facet normal 0 -1 0
    outer loop
      vertex 5.83253 -3.125 7.375
      vertex 5.375 -3.125 6.91747
      vertex 11 -3.125 0
    endloop
  endfacet
  facet normal 0 -1 0
    outer loop
      vertex 3.66747 -3.125 7.375
      vertex 0.905867 -3.125 9.61926
      vertex 4.125 -3.125 6.91747
    endloop
  endfacet
  facet normal 0 -1 0
    outer loop
      vertex 3.5 -3.125 8
      vertex 0.905867 -3.125 9.61926
      vertex 3.66747 -3.125 7.375
    endloop
  endfacet
  facet normal 0 -1 0
    outer loop
      vertex -10 -3.125 20
      vertex -3.5 -3.125 13
      vertex -3.5 -3.125 20
    endloop
  endfacet
  facet normal 0 -1 0
    outer loop
      vertex 3.5 -3.125 20
      vertex 3.5 -3.125 13
      vertex 10 -3.125 20
    endloop
  endfacet
  facet normal 0 -1 0
    outer loop
      vertex -1.75 -3.125 9.96891
      vertex -2.47487 -3.125 10.5251
      vertex -10 -3.125 10
    endloop
  endfacet
  facet normal 0 -1 0
    outer loop
      vertex -10 -3.125 20
      vertex -10 -3.125 10
      vertex -2.47487 -3.125 10.5251
    endloop
  endfacet
  facet normal 0 0 -1
    outer loop
      vertex -11 -3.125 0
      vertex -11 3.125 0
      vertex 11 -3.125 0
    endloop
  endfacet
  facet normal 0 0 -1
    outer loop
      vertex 11 -3.125 0
      vertex -11 3.125 0
      vertex -1.25 3.125 0
    endloop
  endfacet
  facet normal 0 0 -1
    outer loop
      vertex 1.25 3.125 0
      vertex -1.25 3.125 0
      vertex -1.25 5.125 0
    endloop
  endfacet
  facet normal 0 0 -1
    outer loop
      vertex 11 -3.125 0
      vertex -1.25 3.125 0
      vertex 1.25 3.125 0
    endloop
  endfacet
  facet normal 0 0 -1
    outer loop
      vertex 11 3.125 0
      vertex 11 -3.125 0
      vertex 1.25 3.125 0
    endloop
  endfacet
  facet normal 0 0 -1
    outer loop
      vertex 1.25 3.125 0
      vertex -1.25 5.125 0
      vertex 1.25 5.125 0
    endloop
  endfacet
  facet normal 0 1 0
    outer loop
      vertex -11 3.125 0
      vertex -11 3.125 10
      vertex -1.25 3.125 0
    endloop
  endfacet
  facet normal 0 1 0
    outer loop
      vertex -1.25 3.125 0
      vertex -11 3.125 10
      vertex -10 3.125 10
    endloop
  endfacet
  facet normal 0 1 0
    outer loop
      vertex -5.83253 3.125 8.625
      vertex -10 3.125 10
      vertex -10 3.125 20
    endloop
  endfacet
  facet normal 0 1 0
    outer loop
      vertex -1.25 3.125 15.2651
      vertex -10 3.125 20
      vertex -1.25 3.125 20
    endloop
  endfacet
  facet normal 0 1 0
    outer loop
      vertex -1.3 3.125 15.2517
      vertex -10 3.125 20
      vertex -1.25 3.125 15.2651
    endloop
  endfacet
  facet normal 0 1 0
    outer loop
      vertex -2.25167 3.125 14.3
      vertex -10 3.125 20
      vertex -1.3 3.125 15.2517
    endloop
  endfacet
  facet normal 0 1 0
    outer loop
      vertex -2.6 3.125 13
      vertex -10 3.125 20
      vertex -2.25167 3.125 14.3
    endloop
  endfacet
  facet normal 0 1 0
    outer loop
      vertex -4.125 3.125 9.08253
      vertex -10 3.125 20
      vertex -2.6 3.125 13
    endloop
  endfacet
  facet normal 0 1 0
    outer loop
      vertex -1.25 3.125 0
      vertex -2.6 3.125 13
      vertex -2.25167 3.125 11.7
    endloop
  endfacet
  facet normal 0 1 0
    outer loop
      vertex -1.25 3.125 10.7349
      vertex -1.25 3.125 0
      vertex -1.3 3.125 10.7483
    endloop
  endfacet
  facet normal 0 1 0
    outer loop
      vertex -5.83253 3.125 8.625
      vertex -10 3.125 20
      vertex -5.375 3.125 9.08253
    endloop
  endfacet
  facet normal 0 1 0
    outer loop
      vertex -6 3.125 8
      vertex -10 3.125 10
      vertex -5.83253 3.125 8.625
    endloop
  endfacet
  facet normal 0 1 0
    outer loop
      vertex -4.75 3.125 6.75
      vertex -1.25 3.125 0
      vertex -5.375 3.125 6.91747
    endloop
  endfacet
  facet normal 0 1 0
    outer loop
      vertex -5.83253 3.125 7.375
      vertex -10 3.125 10
      vertex -6 3.125 8
    endloop
  endfacet
  facet normal 0 1 0
    outer loop
      vertex -1.25 3.125 0
      vertex -10 3.125 10
      vertex -5.83253 3.125 7.375
    endloop
  endfacet
  facet normal 0 1 0
    outer loop
      vertex -1.25 3.125 0
      vertex -5.83253 3.125 7.375
      vertex -5.375 3.125 6.91747
    endloop
  endfacet
  facet normal 0 1 0
    outer loop
      vertex -4.125 3.125 6.91747
      vertex -1.25 3.125 0
      vertex -4.75 3.125 6.75
    endloop
  endfacet
  facet normal 0 1 0
    outer loop
      vertex -3.66747 3.125 8.625
      vertex -2.6 3.125 13
      vertex -3.5 3.125 8
    endloop
  endfacet
  facet normal 0 1 0
    outer loop
      vertex -1.25 3.125 0
      vertex -4.125 3.125 6.91747
      vertex -3.66747 3.125 7.375
    endloop
  endfacet
  facet normal 0 1 0
    outer loop
      vertex -1.25 3.125 0
      vertex -3.66747 3.125 7.375
      vertex -3.5 3.125 8
    endloop
  endfacet
  facet normal 0 1 0
    outer loop
      vertex -1.25 3.125 0
      vertex -3.5 3.125 8
      vertex -2.6 3.125 13
    endloop
  endfacet
  facet normal 0 1 0
    outer loop
      vertex -4.125 3.125 9.08253
      vertex -2.6 3.125 13
      vertex -3.66747 3.125 8.625
    endloop
  endfacet
  facet normal 0 1 0
    outer loop
      vertex -4.75 3.125 9.25
      vertex -10 3.125 20
      vertex -4.125 3.125 9.08253
    endloop
  endfacet
  facet normal 0 1 0
    outer loop
      vertex -5.375 3.125 9.08253
      vertex -10 3.125 20
      vertex -4.75 3.125 9.25
    endloop
  endfacet
  facet normal 0 1 0
    outer loop
      vertex -1.3 3.125 10.7483
      vertex -1.25 3.125 0
      vertex -2.25167 3.125 11.7
    endloop
  endfacet
  facet normal 0 0 1
    outer loop
      vertex -11 3.125 10
      vertex -11 -3.125 10
      vertex -10 -3.125 10
    endloop
  endfacet
  facet normal 0 0 1
    outer loop
      vertex -10 3.125 10
      vertex -11 3.125 10
      vertex -10 -3.125 10
    endloop
  endfacet
  facet normal -1 0 0
    outer loop
      vertex -10 -3.125 10
      vertex -10 -3.125 20
      vertex -10 3.125 10
    endloop
  endfacet
  facet normal -1 0 0
    outer loop
      vertex -10 3.125 10
      vertex -10 -3.125 20
      vertex -10 3.125 20
    endloop
  endfacet
  facet normal 0 0 1
    outer loop
      vertex -10 3.125 20
      vertex -10 -3.125 20
      vertex -3.5 -3.125 20
    endloop
  endfacet
  facet normal 0 0 1
    outer loop
      vertex 3.5 1.25 20
      vertex -10 3.125 20
      vertex -3.5 1.25 20
    endloop
  endfacet
  facet normal 0 0 1
    outer loop
      vertex -3.5 1.25 20
      vertex -10 3.125 20
      vertex -3.5 -3.125 20
    endloop
  endfacet
  facet normal 0 0 1
    outer loop
      vertex 1.25 3.125 20
      vertex -1.25 3.125 20
      vertex 3.5 1.25 20
    endloop
  endfacet
  facet normal 0 0 1
    outer loop
      vertex 10 -3.125 20
      vertex 3.5 1.25 20
      vertex 3.5 -3.125 20
    endloop
  endfacet
  facet normal 0 0 1
    outer loop
      vertex 10 3.125 20
      vertex 3.5 1.25 20
      vertex 10 -3.125 20
    endloop
  endfacet
  facet normal 0 0 1
    outer loop
      vertex -1.25 3.125 20
      vertex -10 3.125 20
      vertex 3.5 1.25 20
    endloop
  endfacet
  facet normal 0 0 1
    outer loop
      vertex 10 3.125 20
      vertex 1.25 3.125 20
      vertex 3.5 1.25 20
    endloop
  endfacet
  facet normal 0 0 1
    outer loop
      vertex 1.25 5.125 20
      vertex -1.25 3.125 20
      vertex 1.25 3.125 20
    endloop
  endfacet
  facet normal 0 0 1
    outer loop
      vertex -1.25 5.125 20
      vertex -1.25 3.125 20
      vertex 1.25 5.125 20
    endloop
  endfacet
  facet normal 1 0 0
    outer loop
      vertex -3.5 1.25 13
      vertex -3.5 1.25 20
      vertex -3.5 -3.125 20
    endloop
  endfacet
  facet normal 1 0 0
    outer loop
      vertex -3.5 -3.125 13
      vertex -3.5 1.25 13
      vertex -3.5 -3.125 20
    endloop
  endfacet
  facet normal 0.991445 2.89827e-17 0.130527
    outer loop
      vertex -3.38074 -3.125 12.0941
      vertex -3.38074 1.25 12.0941
      vertex -3.5 1.25 13
    endloop
  endfacet
  facet normal 0.991445 2.89827e-17 0.130527
    outer loop
      vertex -3.5 -3.125 13
      vertex -3.38074 -3.125 12.0941
      vertex -3.5 1.25 13
    endloop
  endfacet
  facet normal 0.92388 8.49727e-17 0.382683
    outer loop
      vertex -3.03109 -3.125 11.25
      vertex -3.03109 1.25 11.25
      vertex -3.38074 1.25 12.0941
    endloop
  endfacet
  facet normal 0.92388 8.49727e-17 0.382683
    outer loop
      vertex -3.38074 -3.125 12.0941
      vertex -3.03109 -3.125 11.25
      vertex -3.38074 1.25 12.0941
    endloop
  endfacet
  facet normal 0.793354 1.35172e-16 0.608761
    outer loop
      vertex -2.47487 -3.125 10.5251
      vertex -2.47487 1.25 10.5251
      vertex -3.03109 1.25 11.25
    endloop
  endfacet
  facet normal 0.793354 1.35172e-16 0.608761
    outer loop
      vertex -3.03109 -3.125 11.25
      vertex -2.47487 -3.125 10.5251
      vertex -3.03109 1.25 11.25
    endloop
  endfacet
  facet normal 0.608761 1.7616e-16 0.793354
    outer loop
      vertex -1.75 -3.125 9.96891
      vertex -1.75 1.25 9.96891
      vertex -2.47487 1.25 10.5251
    endloop
  endfacet
  facet normal 0.608761 1.7616e-16 0.793354
    outer loop
      vertex -2.47487 -3.125 10.5251
      vertex -1.75 -3.125 9.96891
      vertex -2.47487 1.25 10.5251
    endloop
  endfacet
  facet normal 0.382683 2.05142e-16 0.92388
    outer loop
      vertex -0.905867 -3.125 9.61926
      vertex -0.905867 1.25 9.61926
      vertex -1.75 1.25 9.96891
    endloop
  endfacet
  facet normal 0.382683 2.05142e-16 0.92388
    outer loop
      vertex -1.75 -3.125 9.96891
      vertex -0.905867 -3.125 9.61926
      vertex -1.75 1.25 9.96891
    endloop
  endfacet
  facet normal 0.130527 2.20145e-16 0.991445
    outer loop
      vertex 0 -3.125 9.5
      vertex 0 1.25 9.5
      vertex -0.905867 1.25 9.61926
    endloop
  endfacet
  facet normal 0.130527 2.20145e-16 0.991445
    outer loop
      vertex -0.905867 -3.125 9.61926
      vertex 0 -3.125 9.5
      vertex -0.905867 1.25 9.61926
    endloop
  endfacet
  facet normal -0.130527 2.20145e-16 0.991445
    outer loop
      vertex 0.905867 -3.125 9.61926
      vertex 0.905867 1.25 9.61926
      vertex 0 1.25 9.5
    endloop
  endfacet
  facet normal -0.130527 2.20145e-16 0.991445
    outer loop
      vertex 0 -3.125 9.5
      vertex 0.905867 -3.125 9.61926
      vertex 0 1.25 9.5
    endloop
  endfacet
  facet normal -0.382683 2.05142e-16 0.92388
    outer loop
      vertex 1.75 -3.125 9.96891
      vertex 1.75 1.25 9.96891
      vertex 0.905867 1.25 9.61926
    endloop
  endfacet
  facet normal -0.382683 2.05142e-16 0.92388
    outer loop
      vertex 0.905867 -3.125 9.61926
      vertex 1.75 -3.125 9.96891
      vertex 0.905867 1.25 9.61926
    endloop
  endfacet
  facet normal -0.608761 1.7616e-16 0.793354
    outer loop
      vertex 2.47487 -3.125 10.5251
      vertex 2.47487 1.25 10.5251
      vertex 1.75 1.25 9.96891
    endloop
  endfacet
  facet normal -0.608761 1.7616e-16 0.793354
    outer loop
      vertex 1.75 -3.125 9.96891
      vertex 2.47487 -3.125 10.5251
      vertex 1.75 1.25 9.96891
    endloop
  endfacet
  facet normal -0.793354 1.35172e-16 0.608761
    outer loop
      vertex 3.03109 1.25 11.25
      vertex 2.47487 1.25 10.5251
      vertex 3.03109 -3.125 11.25
    endloop
  endfacet
  facet normal -0.793354 1.35172e-16 0.608761
    outer loop
      vertex 3.03109 -3.125 11.25
      vertex 2.47487 1.25 10.5251
      vertex 2.47487 -3.125 10.5251
    endloop
  endfacet
  facet normal -0.92388 8.49727e-17 0.382683
    outer loop
      vertex 3.38074 1.25 12.0941
      vertex 3.03109 1.25 11.25
      vertex 3.38074 -3.125 12.0941
    endloop
  endfacet
  facet normal -0.92388 8.49727e-17 0.382683
    outer loop
      vertex 3.38074 -3.125 12.0941
      vertex 3.03109 1.25 11.25
      vertex 3.03109 -3.125 11.25
    endloop
  endfacet
  facet normal -0.991445 2.89827e-17 0.130527
    outer loop
      vertex 3.5 1.25 13
      vertex 3.38074 1.25 12.0941
      vertex 3.5 -3.125 13
    endloop
  endfacet
  facet normal -0.991445 2.89827e-17 0.130527
    outer loop
      vertex 3.5 -3.125 13
      vertex 3.38074 1.25 12.0941
      vertex 3.38074 -3.125 12.0941
    endloop
  endfacet
  facet normal -1 0 0
    outer loop
      vertex 3.5 1.25 20
      vertex 3.5 1.25 13
      vertex 3.5 -3.125 20
    endloop
  endfacet
  facet normal -1 0 0
    outer loop
      vertex 3.5 -3.125 20
      vertex 3.5 1.25 13
      vertex 3.5 -3.125 13
    endloop
  endfacet
  facet normal 1 0 0
    outer loop
      vertex 10 -3.125 20
      vertex 10 -3.125 10
      vertex 10 3.125 10
    endloop
  endfacet
  facet normal 1 0 0
    outer loop
      vertex 10 3.125 20
      vertex 10 -3.125 20
      vertex 10 3.125 10
    endloop
  endfacet
  facet normal 0 0 1
    outer loop
      vertex 10 3.125 10
      vertex 10 -3.125 10
      vertex 11 -3.125 10
    endloop
  endfacet
  facet normal 0 0 1
    outer loop
      vertex 11 3.125 10
      vertex 10 3.125 10
      vertex 11 -3.125 10
    endloop
  endfacet
  facet normal 1 0 0
    outer loop
      vertex 11 -3.125 10
      vertex 11 -3.125 0
      vertex 11 3.125 0
    endloop
  endfacet
  facet normal 1 0 0
    outer loop
      vertex 11 3.125 10
      vertex 11 -3.125 10
      vertex 11 3.125 0
    endloop
  endfacet
  facet normal 0.965926 -5.74693e-17 0.258819
    outer loop
      vertex -6 -3.125 8
      vertex -5.83253 -3.125 7.375
      vertex -5.83253 3.125 7.375
    endloop
  endfacet
  facet normal 0.965926 -5.74693e-17 0.258819
    outer loop
      vertex -6 3.125 8
      vertex -6 -3.125 8
      vertex -5.83253 3.125 7.375
    endloop
  endfacet
  facet normal 0.965926 5.74693e-17 -0.258819
    outer loop
      vertex -5.83253 3.125 8.625
      vertex -5.83253 -3.125 8.625
      vertex -6 -3.125 8
    endloop
  endfacet
  facet normal 0.965926 5.74693e-17 -0.258819
    outer loop
      vertex -6 3.125 8
      vertex -5.83253 3.125 8.625
      vertex -6 -3.125 8
    endloop
  endfacet
  facet normal 0.707107 -1.57009e-16 0.707107
    outer loop
      vertex -5.83253 -3.125 7.375
      vertex -5.375 -3.125 6.91747
      vertex -5.375 3.125 6.91747
    endloop
  endfacet
  facet normal 0.707107 -1.57009e-16 0.707107
    outer loop
      vertex -5.83253 3.125 7.375
      vertex -5.83253 -3.125 7.375
      vertex -5.375 3.125 6.91747
    endloop
  endfacet
  facet normal 0.258819 -2.14479e-16 0.965926
    outer loop
      vertex -5.375 -3.125 6.91747
      vertex -4.75 -3.125 6.75
      vertex -4.75 3.125 6.75
    endloop
  endfacet
  facet normal 0.258819 -2.14479e-16 0.965926
    outer loop
      vertex -5.375 3.125 6.91747
      vertex -5.375 -3.125 6.91747
      vertex -4.75 3.125 6.75
    endloop
  endfacet
  facet normal -0.258819 -2.14479e-16 0.965926
    outer loop
      vertex -4.75 -3.125 6.75
      vertex -4.125 -3.125 6.91747
      vertex -4.125 3.125 6.91747
    endloop
  endfacet
  facet normal -0.258819 -2.14479e-16 0.965926
    outer loop
      vertex -4.75 3.125 6.75
      vertex -4.75 -3.125 6.75
      vertex -4.125 3.125 6.91747
    endloop
  endfacet
  facet normal -0.707107 -1.57009e-16 0.707107
    outer loop
      vertex -3.66747 -3.125 7.375
      vertex -3.66747 3.125 7.375
      vertex -4.125 -3.125 6.91747
    endloop
  endfacet
  facet normal -0.707107 -1.57009e-16 0.707107
    outer loop
      vertex -4.125 -3.125 6.91747
      vertex -3.66747 3.125 7.375
      vertex -4.125 3.125 6.91747
    endloop
  endfacet
  facet normal -0.965926 -5.74693e-17 0.258819
    outer loop
      vertex -3.5 -3.125 8
      vertex -3.5 3.125 8
      vertex -3.66747 -3.125 7.375
    endloop
  endfacet
  facet normal -0.965926 -5.74693e-17 0.258819
    outer loop
      vertex -3.66747 -3.125 7.375
      vertex -3.5 3.125 8
      vertex -3.66747 3.125 7.375
    endloop
  endfacet
  facet normal -0.965926 5.74693e-17 -0.258819
    outer loop
      vertex -3.5 -3.125 8
      vertex -3.66747 -3.125 8.625
      vertex -3.5 3.125 8
    endloop
  endfacet
  facet normal -0.965926 5.74693e-17 -0.258819
    outer loop
      vertex -3.5 3.125 8
      vertex -3.66747 -3.125 8.625
      vertex -3.66747 3.125 8.625
    endloop
  endfacet
  facet normal -0.707107 1.57009e-16 -0.707107
    outer loop
      vertex -3.66747 -3.125 8.625
      vertex -4.125 -3.125 9.08253
      vertex -3.66747 3.125 8.625
    endloop
  endfacet
  facet normal -0.707107 1.57009e-16 -0.707107
    outer loop
      vertex -3.66747 3.125 8.625
      vertex -4.125 -3.125 9.08253
      vertex -4.125 3.125 9.08253
    endloop
  endfacet
  facet normal -0.258819 2.14479e-16 -0.965926
    outer loop
      vertex -4.125 -3.125 9.08253
      vertex -4.75 -3.125 9.25
      vertex -4.125 3.125 9.08253
    endloop
  endfacet
  facet normal -0.258819 2.14479e-16 -0.965926
    outer loop
      vertex -4.125 3.125 9.08253
      vertex -4.75 -3.125 9.25
      vertex -4.75 3.125 9.25
    endloop
  endfacet
  facet normal 0.258819 2.14479e-16 -0.965926
    outer loop
      vertex -4.75 -3.125 9.25
      vertex -5.375 -3.125 9.08253
      vertex -4.75 3.125 9.25
    endloop
  endfacet
  facet normal 0.258819 2.14479e-16 -0.965926
    outer loop
      vertex -4.75 3.125 9.25
      vertex -5.375 -3.125 9.08253
      vertex -5.375 3.125 9.08253
    endloop
  endfacet
  facet normal 0.707107 1.57009e-16 -0.707107
    outer loop
      vertex -5.375 3.125 9.08253
      vertex -5.375 -3.125 9.08253
      vertex -5.83253 -3.125 8.625
    endloop
  endfacet
  facet normal 0.707107 1.57009e-16 -0.707107
    outer loop
      vertex -5.83253 3.125 8.625
      vertex -5.375 3.125 9.08253
      vertex -5.83253 -3.125 8.625
    endloop
  endfacet
  facet normal 0.965926 -5.74693e-17 0.258819
    outer loop
      vertex 3.5 -3.125 8
      vertex 3.66747 -3.125 7.375
      vertex 3.66747 3.125 7.375
    endloop
  endfacet
  facet normal 0.965926 -5.74693e-17 0.258819
    outer loop
      vertex 3.5 3.125 8
      vertex 3.5 -3.125 8
      vertex 3.66747 3.125 7.375
    endloop
  endfacet
  facet normal 0.965926 5.74693e-17 -0.258819
    outer loop
      vertex 3.66747 3.125 8.625
      vertex 3.66747 -3.125 8.625
      vertex 3.5 -3.125 8
    endloop
  endfacet
  facet normal 0.965926 5.74693e-17 -0.258819
    outer loop
      vertex 3.5 3.125 8
      vertex 3.66747 3.125 8.625
      vertex 3.5 -3.125 8
    endloop
  endfacet
  facet normal 0.707107 -1.57009e-16 0.707107
    outer loop
      vertex 3.66747 -3.125 7.375
      vertex 4.125 -3.125 6.91747
      vertex 4.125 3.125 6.91747
    endloop
  endfacet
  facet normal 0.707107 -1.57009e-16 0.707107
    outer loop
      vertex 3.66747 3.125 7.375
      vertex 3.66747 -3.125 7.375
      vertex 4.125 3.125 6.91747
    endloop
  endfacet
  facet normal 0.258819 -2.14479e-16 0.965926
    outer loop
      vertex 4.125 -3.125 6.91747
      vertex 4.75 -3.125 6.75
      vertex 4.75 3.125 6.75
    endloop
  endfacet
  facet normal 0.258819 -2.14479e-16 0.965926
    outer loop
      vertex 4.125 3.125 6.91747
      vertex 4.125 -3.125 6.91747
      vertex 4.75 3.125 6.75
    endloop
  endfacet
  facet normal -0.258819 -2.14479e-16 0.965926
    outer loop
      vertex 4.75 -3.125 6.75
      vertex 5.375 -3.125 6.91747
      vertex 5.375 3.125 6.91747
    endloop
  endfacet
  facet normal -0.258819 -2.14479e-16 0.965926
    outer loop
      vertex 4.75 3.125 6.75
      vertex 4.75 -3.125 6.75
      vertex 5.375 3.125 6.91747
    endloop
  endfacet
  facet normal -0.707107 -1.57009e-16 0.707107
    outer loop
      vertex 5.83253 -3.125 7.375
      vertex 5.83253 3.125 7.375
      vertex 5.375 -3.125 6.91747
    endloop
  endfacet
  facet normal -0.707107 -1.57009e-16 0.707107
    outer loop
      vertex 5.375 -3.125 6.91747
      vertex 5.83253 3.125 7.375
      vertex 5.375 3.125 6.91747
    endloop
  endfacet
  facet normal -0.965926 -5.74693e-17 0.258819
    outer loop
      vertex 6 -3.125 8
      vertex 6 3.125 8
      vertex 5.83253 -3.125 7.375
    endloop
  endfacet
  facet normal -0.965926 -5.74693e-17 0.258819
    outer loop
      vertex 5.83253 -3.125 7.375
      vertex 6 3.125 8
      vertex 5.83253 3.125 7.375
    endloop
  endfacet
  facet normal -0.965926 5.74693e-17 -0.258819
    outer loop
      vertex 6 -3.125 8
      vertex 5.83253 -3.125 8.625
      vertex 6 3.125 8
    endloop
  endfacet
  facet normal -0.965926 5.74693e-17 -0.258819
    outer loop
      vertex 6 3.125 8
      vertex 5.83253 -3.125 8.625
      vertex 5.83253 3.125 8.625
    endloop
  endfacet
  facet normal -0.707107 1.57009e-16 -0.707107
    outer loop
      vertex 5.83253 -3.125 8.625
      vertex 5.375 -3.125 9.08253
      vertex 5.83253 3.125 8.625
    endloop
  endfacet
  facet normal -0.707107 1.57009e-16 -0.707107
    outer loop
      vertex 5.83253 3.125 8.625
      vertex 5.375 -3.125 9.08253
      vertex 5.375 3.125 9.08253
    endloop
  endfacet
  facet normal -0.258819 2.14479e-16 -0.965926
    outer loop
      vertex 5.375 -3.125 9.08253
      vertex 4.75 -3.125 9.25
      vertex 5.375 3.125 9.08253
    endloop
  endfacet
  facet normal -0.258819 2.14479e-16 -0.965926
    outer loop
      vertex 5.375 3.125 9.08253
      vertex 4.75 -3.125 9.25
      vertex 4.75 3.125 9.25
    endloop
  endfacet
  facet normal 0.258819 2.14479e-16 -0.965926
    outer loop
      vertex 4.75 -3.125 9.25
      vertex 4.125 -3.125 9.08253
      vertex 4.75 3.125 9.25
    endloop
  endfacet
  facet normal 0.258819 2.14479e-16 -0.965926
    outer loop
      vertex 4.75 3.125 9.25
      vertex 4.125 -3.125 9.08253
      vertex 4.125 3.125 9.08253
    endloop
  endfacet
  facet normal 0.707107 1.57009e-16 -0.707107
    outer loop
      vertex 4.125 3.125 9.08253
      vertex 4.125 -3.125 9.08253
      vertex 3.66747 -3.125 8.625
    endloop
  endfacet
  facet normal 0.707107 1.57009e-16 -0.707107
    outer loop
      vertex 3.66747 3.125 8.625
      vertex 4.125 3.125 9.08253
      vertex 3.66747 -3.125 8.625
    endloop
  endfacet
  facet normal 0 1 0
    outer loop
      vertex 3.66747 3.125 8.625
      vertex 1.3 3.125 10.7483
      vertex 2.25167 3.125 11.7
    endloop
  endfacet
  facet normal 0 1 0
    outer loop
      vertex 5.375 3.125 9.08253
      vertex 2.25167 3.125 14.3
      vertex 5.83253 3.125 8.625
    endloop
  endfacet
  facet normal 0 1 0
    outer loop
      vertex 4.75 3.125 9.25
      vertex 2.25167 3.125 14.3
      vertex 5.375 3.125 9.08253
    endloop
  endfacet
  facet normal 0 1 0
    outer loop
      vertex 5.83253 3.125 8.625
      vertex 1.25 3.125 20
      vertex 11 3.125 0
    endloop
  endfacet
  facet normal 0 1 0
    outer loop
      vertex 1.3 3.125 15.2517
      vertex 1.25 3.125 15.2651
      vertex 1.25 3.125 20
    endloop
  endfacet
  facet normal 0 1 0
    outer loop
      vertex 1.3 3.125 15.2517
      vertex 1.25 3.125 20
      vertex 2.25167 3.125 14.3
    endloop
  endfacet
  facet normal 0 1 0
    outer loop
      vertex 10 3.125 10
      vertex 1.25 3.125 20
      vertex 10 3.125 20
    endloop
  endfacet
  facet normal 0 1 0
    outer loop
      vertex 11 3.125 0
      vertex 1.25 3.125 20
      vertex 10 3.125 10
    endloop
  endfacet
  facet normal 0 1 0
    outer loop
      vertex 3.66747 3.125 8.625
      vertex 2.25167 3.125 11.7
      vertex 4.125 3.125 9.08253
    endloop
  endfacet
  facet normal 0 1 0
    outer loop
      vertex 3.5 3.125 8
      vertex 1.25 3.125 10.7349
      vertex 1.3 3.125 10.7483
    endloop
  endfacet
  facet normal 0 1 0
    outer loop
      vertex 1.25 3.125 0
      vertex 1.25 3.125 10.7349
      vertex 3.5 3.125 8
    endloop
  endfacet
  facet normal 0 1 0
    outer loop
      vertex 1.25 3.125 0
      vertex 3.5 3.125 8
      vertex 3.66747 3.125 7.375
    endloop
  endfacet
  facet normal 0 1 0
    outer loop
      vertex 1.25 3.125 0
      vertex 3.66747 3.125 7.375
      vertex 11 3.125 0
    endloop
  endfacet
  facet normal 0 1 0
    outer loop
      vertex 3.66747 3.125 7.375
      vertex 4.125 3.125 6.91747
      vertex 11 3.125 0
    endloop
  endfacet
  facet normal 0 1 0
    outer loop
      vertex 4.75 3.125 6.75
      vertex 11 3.125 0
      vertex 4.125 3.125 6.91747
    endloop
  endfacet
  facet normal 0 1 0
    outer loop
      vertex 5.375 3.125 6.91747
      vertex 11 3.125 0
      vertex 4.75 3.125 6.75
    endloop
  endfacet
  facet normal 0 1 0
    outer loop
      vertex 5.83253 3.125 7.375
      vertex 11 3.125 0
      vertex 5.375 3.125 6.91747
    endloop
  endfacet
  facet normal 0 1 0
    outer loop
      vertex 3.5 3.125 8
      vertex 1.3 3.125 10.7483
      vertex 3.66747 3.125 8.625
    endloop
  endfacet
  facet normal 0 1 0
    outer loop
      vertex 4.125 3.125 9.08253
      vertex 2.25167 3.125 11.7
      vertex 4.75 3.125 9.25
    endloop
  endfacet
  facet normal 0 1 0
    outer loop
      vertex 6 3.125 8
      vertex 11 3.125 0
      vertex 5.83253 3.125 7.375
    endloop
  endfacet
  facet normal 0 1 0
    outer loop
      vertex 5.83253 3.125 8.625
      vertex 11 3.125 0
      vertex 6 3.125 8
    endloop
  endfacet
  facet normal 0 1 0
    outer loop
      vertex 2.25167 3.125 14.3
      vertex 1.25 3.125 20
      vertex 5.83253 3.125 8.625
    endloop
  endfacet
  facet normal 0 1 0
    outer loop
      vertex 4.75 3.125 9.25
      vertex 2.6 3.125 13
      vertex 2.25167 3.125 14.3
    endloop
  endfacet
  facet normal 0 1 0
    outer loop
      vertex 2.25167 3.125 11.7
      vertex 2.6 3.125 13
      vertex 4.75 3.125 9.25
    endloop
  endfacet
  facet normal 0 1 0
    outer loop
      vertex 11 3.125 10
      vertex 11 3.125 0
      vertex 10 3.125 10
    endloop
  endfacet
  facet normal 1 0 0
    outer loop
      vertex 1.25 3.125 10.7349
      vertex 1.25 3.125 0
      vertex 1.25 5.125 0
    endloop
  endfacet
  facet normal 1 0 0
    outer loop
      vertex 1.25 3.15 10.7276
      vertex 1.25 3.125 10.7349
      vertex 1.25 5.125 8.34326
    endloop
  endfacet
  facet normal 1 0 0
    outer loop
      vertex 1.25 5.125 8.34326
      vertex 1.25 3.125 10.7349
      vertex 1.25 5.125 0
    endloop
  endfacet
  facet normal 1 0 0
    outer loop
      vertex 1.25 3.15 10.7349
      vertex 1.25 3.125 10.7349
      vertex 1.25 3.15 10.7276
    endloop
  endfacet
  facet normal 0 1 0
    outer loop
      vertex -1.25 5.125 0
      vertex -1.25 5.125 8.34326
      vertex 1.25 5.125 0
    endloop
  endfacet
  facet normal 0 1 0
    outer loop
      vertex 1.25 5.125 0
      vertex -1.25 5.125 8.34326
      vertex -1.24799 5.125 8.34243
    endloop
  endfacet
  facet normal 0 1 0
    outer loop
      vertex 1.25 5.125 0
      vertex -1.24799 5.125 8.34243
      vertex -0.907322 5.125 8.29758
    endloop
  endfacet
  facet normal 0 1 0
    outer loop
      vertex 1.25 5.125 0
      vertex -0.907322 5.125 8.29758
      vertex 0 5.125 8.17812
    endloop
  endfacet
  facet normal 0 1 0
    outer loop
      vertex 0 5.125 8.17812
      vertex 0.340671 5.125 8.22298
      vertex 1.25 5.125 0
    endloop
  endfacet
  facet normal 0 1 0
    outer loop
      vertex 0.340671 5.125 8.22298
      vertex 1.24799 5.125 8.34243
      vertex 1.25 5.125 0
    endloop
  endfacet
  facet normal 0 1 0
    outer loop
      vertex 1.24799 5.125 8.34243
      vertex 1.25 5.125 8.34326
      vertex 1.25 5.125 0
    endloop
  endfacet
  facet normal -1 0 0
    outer loop
      vertex -1.25 3.125 0
      vertex -1.25 3.125 10.7349
      vertex -1.25 5.125 0
    endloop
  endfacet
  facet normal -1 0 0
    outer loop
      vertex -1.25 3.15 10.7276
      vertex -1.25 3.125 10.7349
      vertex -1.25 3.15 10.7349
    endloop
  endfacet
  facet normal -1 0 0
    outer loop
      vertex -1.25 5.125 0
      vertex -1.25 3.125 10.7349
      vertex -1.25 3.15 10.7276
    endloop
  endfacet
  facet normal -1 0 0
    outer loop
      vertex -1.25 5.125 0
      vertex -1.25 3.9523 9.75902
      vertex -1.25 5.125 8.34326
    endloop
  endfacet
  facet normal -1 0 0
    outer loop
      vertex -1.25 3.9523 9.75902
      vertex -1.25 5.125 0
      vertex -1.25 3.15 10.7276
    endloop
  endfacet
  facet normal 0.258819 2.14479e-16 0.965926
    outer loop
      vertex 0 1.25 10.4
      vertex 0 3.15 10.4
      vertex -1.25 3.15 10.7349
    endloop
  endfacet
  facet normal 0.258819 2.14479e-16 0.965926
    outer loop
      vertex -1.3 3.125 10.7483
      vertex 0 1.25 10.4
      vertex -1.25 3.125 10.7349
    endloop
  endfacet
  facet normal 0.258819 2.14479e-16 0.965926
    outer loop
      vertex -1.25 3.125 10.7349
      vertex 0 1.25 10.4
      vertex -1.25 3.15 10.7349
    endloop
  endfacet
  facet normal 0.258819 2.14479e-16 0.965926
    outer loop
      vertex -1.3 1.25 10.7483
      vertex 0 1.25 10.4
      vertex -1.3 3.125 10.7483
    endloop
  endfacet
  facet normal 0.707107 1.57009e-16 0.707107
    outer loop
      vertex -1.3 1.25 10.7483
      vertex -1.3 3.125 10.7483
      vertex -2.25167 3.125 11.7
    endloop
  endfacet
  facet normal 0.707107 1.57009e-16 0.707107
    outer loop
      vertex -2.25167 1.25 11.7
      vertex -1.3 1.25 10.7483
      vertex -2.25167 3.125 11.7
    endloop
  endfacet
  facet normal 0.965926 5.74694e-17 0.258819
    outer loop
      vertex -2.25167 1.25 11.7
      vertex -2.25167 3.125 11.7
      vertex -2.6 3.125 13
    endloop
  endfacet
  facet normal 0.965926 5.74694e-17 0.258819
    outer loop
      vertex -2.6 1.25 13
      vertex -2.25167 1.25 11.7
      vertex -2.6 3.125 13
    endloop
  endfacet
  facet normal 0.965926 -5.74694e-17 -0.258819
    outer loop
      vertex -2.6 3.125 13
      vertex -2.25167 3.125 14.3
      vertex -2.25167 1.25 14.3
    endloop
  endfacet
  facet normal 0.965926 -5.74694e-17 -0.258819
    outer loop
      vertex -2.6 1.25 13
      vertex -2.6 3.125 13
      vertex -2.25167 1.25 14.3
    endloop
  endfacet
  facet normal 0.707107 -1.57009e-16 -0.707107
    outer loop
      vertex -2.25167 3.125 14.3
      vertex -1.3 3.125 15.2517
      vertex -1.3 1.25 15.2517
    endloop
  endfacet
  facet normal 0.707107 -1.57009e-16 -0.707107
    outer loop
      vertex -2.25167 1.25 14.3
      vertex -2.25167 3.125 14.3
      vertex -1.3 1.25 15.2517
    endloop
  endfacet
  facet normal 0.258819 -2.14479e-16 -0.965926
    outer loop
      vertex -1.25 3.125 15.2651
      vertex -1.25 3.15 15.2651
      vertex 0 3.15 15.6
    endloop
  endfacet
  facet normal 0.258819 -2.14479e-16 -0.965926
    outer loop
      vertex -1.25 3.125 15.2651
      vertex 0 3.15 15.6
      vertex 0 1.25 15.6
    endloop
  endfacet
  facet normal 0.258819 -2.14479e-16 -0.965926
    outer loop
      vertex -1.25 3.125 15.2651
      vertex 0 1.25 15.6
      vertex -1.3 3.125 15.2517
    endloop
  endfacet
  facet normal 0.258819 -2.14479e-16 -0.965926
    outer loop
      vertex 0 1.25 15.6
      vertex -1.3 1.25 15.2517
      vertex -1.3 3.125 15.2517
    endloop
  endfacet
  facet normal -1 0 0
    outer loop
      vertex -1.25 3.125 15.2651
      vertex -1.25 3.125 20
      vertex -1.25 3.15 15.2651
    endloop
  endfacet
  facet normal -1 0 0
    outer loop
      vertex -1.25 3.15 15.2724
      vertex -1.25 3.125 20
      vertex -1.25 5.125 20
    endloop
  endfacet
  facet normal -1 0 0
    outer loop
      vertex -1.25 3.15 15.2651
      vertex -1.25 3.125 20
      vertex -1.25 3.15 15.2724
    endloop
  endfacet
  facet normal -1 0 0
    outer loop
      vertex -1.25 3.15 15.2724
      vertex -1.25 5.125 20
      vertex -1.25 5.125 17.6567
    endloop
  endfacet
  facet normal 0 1 0
    outer loop
      vertex -1.25 5.125 17.6567
      vertex -1.25 5.125 20
      vertex -1.24799 5.125 17.6576
    endloop
  endfacet
  facet normal 0 1 0
    outer loop
      vertex -1.24799 5.125 17.6576
      vertex -1.25 5.125 20
      vertex 1.25 5.125 20
    endloop
  endfacet
  facet normal 0 1 0
    outer loop
      vertex 1.24799 5.125 17.6576
      vertex 1.25 5.125 20
      vertex 1.25 5.125 17.6567
    endloop
  endfacet
  facet normal 0 1 0
    outer loop
      vertex 0.907322 5.125 17.7024
      vertex 1.25 5.125 20
      vertex 1.24799 5.125 17.6576
    endloop
  endfacet
  facet normal 0 1 0
    outer loop
      vertex 0 5.125 17.8219
      vertex 1.25 5.125 20
      vertex 0.907322 5.125 17.7024
    endloop
  endfacet
  facet normal 0 1 0
    outer loop
      vertex -0.340671 5.125 17.777
      vertex 1.25 5.125 20
      vertex 0 5.125 17.8219
    endloop
  endfacet
  facet normal 0 1 0
    outer loop
      vertex -1.24799 5.125 17.6576
      vertex 1.25 5.125 20
      vertex -0.340671 5.125 17.777
    endloop
  endfacet
  facet normal 1 0 0
    outer loop
      vertex 1.25 3.125 20
      vertex 1.25 3.125 15.2651
      vertex 1.25 3.15 15.2651
    endloop
  endfacet
  facet normal 1 0 0
    outer loop
      vertex 1.25 3.9523 16.241
      vertex 1.25 3.125 20
      vertex 1.25 3.15 15.2724
    endloop
  endfacet
  facet normal 1 0 0
    outer loop
      vertex 1.25 3.15 15.2724
      vertex 1.25 3.125 20
      vertex 1.25 3.15 15.2651
    endloop
  endfacet
  facet normal 1 0 0
    outer loop
      vertex 1.25 5.125 17.6567
      vertex 1.25 3.125 20
      vertex 1.25 3.9523 16.241
    endloop
  endfacet
  facet normal 1 0 0
    outer loop
      vertex 1.25 5.125 20
      vertex 1.25 3.125 20
      vertex 1.25 5.125 17.6567
    endloop
  endfacet
  facet normal 0 -1 2.22045e-16
    outer loop
      vertex -3.38074 1.25 12.0941
      vertex -3.03109 1.25 11.25
      vertex -2.47487 1.25 10.5251
    endloop
  endfacet
  facet normal 0 -1 2.22045e-16
    outer loop
      vertex -0.905867 1.25 9.61926
      vertex -3.38074 1.25 12.0941
      vertex -1.75 1.25 9.96891
    endloop
  endfacet
  facet normal 0 -1 2.22045e-16
    outer loop
      vertex -1.75 1.25 9.96891
      vertex -3.38074 1.25 12.0941
      vertex -2.47487 1.25 10.5251
    endloop
  endfacet
  facet normal 0 -1 2.22045e-16
    outer loop
      vertex 0 1.25 9.5
      vertex -3.38074 1.25 12.0941
      vertex -0.905867 1.25 9.61926
    endloop
  endfacet
  facet normal 0 -1 2.22045e-16
    outer loop
      vertex -1.3 1.25 10.7483
      vertex -3.38074 1.25 12.0941
      vertex 0 1.25 9.5
    endloop
  endfacet
  facet normal 0 -1 2.22045e-16
    outer loop
      vertex -1.3 1.25 10.7483
      vertex -2.25167 1.25 11.7
      vertex -3.38074 1.25 12.0941
    endloop
  endfacet
  facet normal 0 -1 2.22045e-16
    outer loop
      vertex 0 1.25 10.4
      vertex -1.3 1.25 10.7483
      vertex 0.905867 1.25 9.61926
    endloop
  endfacet
  facet normal 0 -1 2.22045e-16
    outer loop
      vertex -3.5 1.25 13
      vertex -3.38074 1.25 12.0941
      vertex -3.5 1.25 20
    endloop
  endfacet
  facet normal 0 -1 2.22045e-16
    outer loop
      vertex -3.5 1.25 20
      vertex -3.38074 1.25 12.0941
      vertex -2.6 1.25 13
    endloop
  endfacet
  facet normal 0 -1 2.22045e-16
    outer loop
      vertex 2.25167 1.25 14.3
      vertex 2.6 1.25 13
      vertex 3.5 1.25 13
    endloop
  endfacet
  facet normal 0 -1 2.22045e-16
    outer loop
      vertex -3.5 1.25 20
      vertex -2.6 1.25 13
      vertex -2.25167 1.25 14.3
    endloop
  endfacet
  facet normal 0 -1 2.22045e-16
    outer loop
      vertex -3.5 1.25 20
      vertex -1.3 1.25 15.2517
      vertex 3.5 1.25 20
    endloop
  endfacet
  facet normal 0 -1 2.22045e-16
    outer loop
      vertex -3.5 1.25 20
      vertex -2.25167 1.25 14.3
      vertex -1.3 1.25 15.2517
    endloop
  endfacet
  facet normal 0 -1 2.22045e-16
    outer loop
      vertex 2.6 1.25 13
      vertex 2.25167 1.25 11.7
      vertex 3.38074 1.25 12.0941
    endloop
  endfacet
  facet normal 0 -1 2.22045e-16
    outer loop
      vertex 2.25167 1.25 11.7
      vertex 1.3 1.25 10.7483
      vertex 2.47487 1.25 10.5251
    endloop
  endfacet
  facet normal 0 -1 2.22045e-16
    outer loop
      vertex 3.5 1.25 20
      vertex 0 1.25 15.6
      vertex 1.3 1.25 15.2517
    endloop
  endfacet
  facet normal 0 -1 2.22045e-16
    outer loop
      vertex 3.5 1.25 20
      vertex 2.25167 1.25 14.3
      vertex 3.5 1.25 13
    endloop
  endfacet
  facet normal 0 -1 2.22045e-16
    outer loop
      vertex 3.5 1.25 20
      vertex 1.3 1.25 15.2517
      vertex 2.25167 1.25 14.3
    endloop
  endfacet
  facet normal 0 -1 2.22045e-16
    outer loop
      vertex -1.3 1.25 15.2517
      vertex 0 1.25 15.6
      vertex 3.5 1.25 20
    endloop
  endfacet
  facet normal 0 -1 2.22045e-16
    outer loop
      vertex 3.38074 1.25 12.0941
      vertex 2.25167 1.25 11.7
      vertex 3.03109 1.25 11.25
    endloop
  endfacet
  facet normal 0 -1 2.22045e-16
    outer loop
      vertex 2.47487 1.25 10.5251
      vertex 1.3 1.25 10.7483
      vertex 1.75 1.25 9.96891
    endloop
  endfacet
  facet normal 0 -1 2.22045e-16
    outer loop
      vertex 1.75 1.25 9.96891
      vertex 0 1.25 10.4
      vertex 0.905867 1.25 9.61926
    endloop
  endfacet
  facet normal 0 -1 2.22045e-16
    outer loop
      vertex 0.905867 1.25 9.61926
      vertex -1.3 1.25 10.7483
      vertex 0 1.25 9.5
    endloop
  endfacet
  facet normal 0 -1 2.22045e-16
    outer loop
      vertex 2.6 1.25 13
      vertex 3.38074 1.25 12.0941
      vertex 3.5 1.25 13
    endloop
  endfacet
  facet normal 0 -1 2.22045e-16
    outer loop
      vertex 2.25167 1.25 11.7
      vertex 2.47487 1.25 10.5251
      vertex 3.03109 1.25 11.25
    endloop
  endfacet
  facet normal 0 -1 2.22045e-16
    outer loop
      vertex 1.3 1.25 10.7483
      vertex 0 1.25 10.4
      vertex 1.75 1.25 9.96891
    endloop
  endfacet
  facet normal 0 -1 2.22045e-16
    outer loop
      vertex -2.25167 1.25 11.7
      vertex -2.6 1.25 13
      vertex -3.38074 1.25 12.0941
    endloop
  endfacet
  facet normal -0.258819 -2.14479e-16 -0.965926
    outer loop
      vertex 1.25 3.15 15.2651
      vertex 1.25 3.125 15.2651
      vertex 0 3.15 15.6
    endloop
  endfacet
  facet normal -0.258819 -2.14479e-16 -0.965926
    outer loop
      vertex 1.3 1.25 15.2517
      vertex 1.25 3.125 15.2651
      vertex 1.3 3.125 15.2517
    endloop
  endfacet
  facet normal -0.258819 -2.14479e-16 -0.965926
    outer loop
      vertex 0 3.15 15.6
      vertex 1.25 3.125 15.2651
      vertex 1.3 1.25 15.2517
    endloop
  endfacet
  facet normal -0.258819 -2.14479e-16 -0.965926
    outer loop
      vertex 0 3.15 15.6
      vertex 1.3 1.25 15.2517
      vertex 0 1.25 15.6
    endloop
  endfacet
  facet normal -0.707107 -1.57009e-16 -0.707107
    outer loop
      vertex 2.25167 3.125 14.3
      vertex 2.25167 1.25 14.3
      vertex 1.3 3.125 15.2517
    endloop
  endfacet
  facet normal -0.707107 -1.57009e-16 -0.707107
    outer loop
      vertex 1.3 3.125 15.2517
      vertex 2.25167 1.25 14.3
      vertex 1.3 1.25 15.2517
    endloop
  endfacet
  facet normal -0.965926 -5.74694e-17 -0.258819
    outer loop
      vertex 2.6 3.125 13
      vertex 2.6 1.25 13
      vertex 2.25167 3.125 14.3
    endloop
  endfacet
  facet normal -0.965926 -5.74694e-17 -0.258819
    outer loop
      vertex 2.25167 3.125 14.3
      vertex 2.6 1.25 13
      vertex 2.25167 1.25 14.3
    endloop
  endfacet
  facet normal -0.965926 5.74694e-17 0.258819
    outer loop
      vertex 2.6 3.125 13
      vertex 2.25167 3.125 11.7
      vertex 2.6 1.25 13
    endloop
  endfacet
  facet normal -0.965926 5.74694e-17 0.258819
    outer loop
      vertex 2.6 1.25 13
      vertex 2.25167 3.125 11.7
      vertex 2.25167 1.25 11.7
    endloop
  endfacet
  facet normal -0.707107 1.57009e-16 0.707107
    outer loop
      vertex 2.25167 3.125 11.7
      vertex 1.3 3.125 10.7483
      vertex 2.25167 1.25 11.7
    endloop
  endfacet
  facet normal -0.707107 1.57009e-16 0.707107
    outer loop
      vertex 2.25167 1.25 11.7
      vertex 1.3 3.125 10.7483
      vertex 1.3 1.25 10.7483
    endloop
  endfacet
  facet normal -0.258819 2.14479e-16 0.965926
    outer loop
      vertex 1.3 1.25 10.7483
      vertex 1.3 3.125 10.7483
      vertex 1.25 3.125 10.7349
    endloop
  endfacet
  facet normal -0.258819 2.14479e-16 0.965926
    outer loop
      vertex 0 3.15 10.4
      vertex 1.3 1.25 10.7483
      vertex 1.25 3.125 10.7349
    endloop
  endfacet
  facet normal -0.258819 2.14479e-16 0.965926
    outer loop
      vertex 1.25 3.15 10.7349
      vertex 0 3.15 10.4
      vertex 1.25 3.125 10.7349
    endloop
  endfacet
  facet normal -0.258819 2.14479e-16 0.965926
    outer loop
      vertex 0 3.15 10.4
      vertex 0 1.25 10.4
      vertex 1.3 1.25 10.7483
    endloop
  endfacet
  facet normal 0 1 -2.22045e-16
    outer loop
      vertex 0 3.15 10.4
      vertex 1.25 3.15 10.7349
      vertex 0.67293 3.15 10.4886
    endloop
  endfacet
  facet normal 0 1 -2.22045e-16
    outer loop
      vertex 0.67293 3.15 10.4886
      vertex 1.25 3.15 10.7349
      vertex 1.25 3.15 10.7276
    endloop
  endfacet
  facet normal -0.25546 0.744567 0.616734
    outer loop
      vertex 0.67293 3.15 10.4886
      vertex 1.25 3.15 10.7276
      vertex 1.24799 5.125 8.34243
    endloop
  endfacet
  facet normal -0.25546 0.744567 0.616734
    outer loop
      vertex 1.24799 5.125 8.34243
      vertex 1.25 3.15 10.7276
      vertex 1.25 5.125 8.34326
    endloop
  endfacet
  facet normal -0.0871326 0.744567 0.661837
    outer loop
      vertex 1.24799 5.125 8.34243
      vertex 0.340671 5.125 8.22298
      vertex 0.67293 3.15 10.4886
    endloop
  endfacet
  facet normal -0.0871326 0.744567 0.661837
    outer loop
      vertex 0 3.15 10.4
      vertex 0.67293 3.15 10.4886
      vertex 0 5.125 8.17812
    endloop
  endfacet
  facet normal -0.0871326 0.744567 0.661837
    outer loop
      vertex 0 5.125 8.17812
      vertex 0.67293 3.15 10.4886
      vertex 0.340671 5.125 8.22298
    endloop
  endfacet
  facet normal 0.0871326 0.744567 0.661837
    outer loop
      vertex 0 5.125 8.17812
      vertex -0.907322 5.125 8.29758
      vertex 0 3.15 10.4
    endloop
  endfacet
  facet normal 0.0871326 0.744567 0.661837
    outer loop
      vertex -1.24799 5.125 8.34243
      vertex -0.67293 3.15 10.4886
      vertex -0.907322 5.125 8.29758
    endloop
  endfacet
  facet normal 0.0871326 0.744567 0.661837
    outer loop
      vertex -0.907322 5.125 8.29758
      vertex -0.67293 3.15 10.4886
      vertex 0 3.15 10.4
    endloop
  endfacet
  facet normal 0.25546 0.744567 0.616734
    outer loop
      vertex -1.25 3.9523 9.75902
      vertex -0.67293 3.15 10.4886
      vertex -1.25 5.125 8.34326
    endloop
  endfacet
  facet normal 0.25546 0.744567 0.616734
    outer loop
      vertex -1.25 5.125 8.34326
      vertex -0.67293 3.15 10.4886
      vertex -1.24799 5.125 8.34243
    endloop
  endfacet
  facet normal 0.25546 0.744567 0.616734
    outer loop
      vertex -1.25 3.9523 9.75902
      vertex -1.25 3.15 10.7276
      vertex -0.67293 3.15 10.4886
    endloop
  endfacet
  facet normal 0 1 -2.22045e-16
    outer loop
      vertex -1.25 3.15 10.7276
      vertex -1.25 3.15 10.7349
      vertex -0.67293 3.15 10.4886
    endloop
  endfacet
  facet normal 0 1 -2.22045e-16
    outer loop
      vertex -0.67293 3.15 10.4886
      vertex -1.25 3.15 10.7349
      vertex 0 3.15 10.4
    endloop
  endfacet
  facet normal 0 1 -2.22045e-16
    outer loop
      vertex -1.25 3.15 15.2651
      vertex -1.25 3.15 15.2724
      vertex 0 3.15 15.6
    endloop
  endfacet
  facet normal 0 1 -2.22045e-16
    outer loop
      vertex 0 3.15 15.6
      vertex -1.25 3.15 15.2724
      vertex -0.67293 3.15 15.5114
    endloop
  endfacet
  facet normal 0 1 -2.22045e-16
    outer loop
      vertex 0 3.15 15.6
      vertex 0.67293 3.15 15.5114
      vertex 1.25 3.15 15.2651
    endloop
  endfacet
  facet normal 0 1 -2.22045e-16
    outer loop
      vertex 1.25 3.15 15.2651
      vertex 0.67293 3.15 15.5114
      vertex 1.25 3.15 15.2724
    endloop
  endfacet
  facet normal -0.0871326 0.744567 -0.661837
    outer loop
      vertex 0 3.15 15.6
      vertex 0.907322 5.125 17.7024
      vertex 0.67293 3.15 15.5114
    endloop
  endfacet
  facet normal -0.0871326 0.744567 -0.661837
    outer loop
      vertex 0.67293 3.15 15.5114
      vertex 0.907322 5.125 17.7024
      vertex 1.24799 5.125 17.6576
    endloop
  endfacet
  facet normal -0.0871326 0.744567 -0.661837
    outer loop
      vertex 0.907322 5.125 17.7024
      vertex 0 3.15 15.6
      vertex 0 5.125 17.8219
    endloop
  endfacet
  facet normal 0.0871326 0.744567 -0.661837
    outer loop
      vertex -0.67293 3.15 15.5114
      vertex -0.340671 5.125 17.777
      vertex 0 3.15 15.6
    endloop
  endfacet
  facet normal 0.0871326 0.744567 -0.661837
    outer loop
      vertex 0 3.15 15.6
      vertex -0.340671 5.125 17.777
      vertex 0 5.125 17.8219
    endloop
  endfacet
  facet normal 0.25546 0.744567 -0.616734
    outer loop
      vertex -1.25 3.15 15.2724
      vertex -1.25 5.125 17.6567
      vertex -0.67293 3.15 15.5114
    endloop
  endfacet
  facet normal 0.25546 0.744567 -0.616734
    outer loop
      vertex -0.67293 3.15 15.5114
      vertex -1.25 5.125 17.6567
      vertex -1.24799 5.125 17.6576
    endloop
  endfacet
  facet normal 0.0871326 0.744567 -0.661837
    outer loop
      vertex -0.67293 3.15 15.5114
      vertex -1.24799 5.125 17.6576
      vertex -0.340671 5.125 17.777
    endloop
  endfacet
  facet normal -0.25546 0.744567 -0.616734
    outer loop
      vertex 0.67293 3.15 15.5114
      vertex 1.24799 5.125 17.6576
      vertex 1.25 3.9523 16.241
    endloop
  endfacet
  facet normal -0.25546 0.744567 -0.616734
    outer loop
      vertex 1.25 3.9523 16.241
      vertex 1.24799 5.125 17.6576
      vertex 1.25 5.125 17.6567
    endloop
  endfacet
  facet normal -0.25546 0.744567 -0.616734
    outer loop
      vertex 1.25 3.15 15.2724
      vertex 0.67293 3.15 15.5114
      vertex 1.25 3.9523 16.241
    endloop
  endfacet
endsolid OpenSCAD_Model
