solid OpenSCAD_Model
  facet normal -0.991445 -0.130526 0
    outer loop
      vertex -12.7 2.7 2.22045e-16
      vertex -12.2673 -0.587002 2.22045e-16
      vertex -12.7 2.7 3.6
    endloop
  endfacet
  facet normal -0.991445 -0.130526 0
    outer loop
      vertex -12.7 2.7 3.6
      vertex -12.2673 -0.587002 2.22045e-16
      vertex -12.2673 -0.587002 3.6
    endloop
  endfacet
  facet normal 0 0 -1
    outer loop
      vertex -12.7 2.7 2.22045e-16
      vertex -12.7 35.4 2.22045e-16
      vertex -12.2673 -0.587002 2.22045e-16
    endloop
  endfacet
  facet normal 0 0 -1
    outer loop
      vertex -12.2673 -0.587002 2.22045e-16
      vertex -12.7 35.4 2.22045e-16
      vertex 12.7 35.4 2.22045e-16
    endloop
  endfacet
  facet normal 0 0 -1
    outer loop
      vertex 1.83848 1.83848 2.22045e-16
      vertex 12.7 35.4 2.22045e-16
      vertex 12.7 2.7 2.22045e-16
    endloop
  endfacet
  facet normal 0 0 -1
    outer loop
      vertex 2.6 0 2.22045e-16
      vertex 12.7 2.7 2.22045e-16
      vertex 12.2673 -0.587002 2.22045e-16
    endloop
  endfacet
  facet normal 0 0 -1
    outer loop
      vertex 2.25167 -1.3 2.22045e-16
      vertex 12.2673 -0.587002 2.22045e-16
      vertex 10.9985 -3.65 2.22045e-16
    endloop
  endfacet
  facet normal 0 0 -1
    outer loop
      vertex 0 -2.6 2.22045e-16
      vertex 10.9985 -3.65 2.22045e-16
      vertex 8.98026 -6.28026 2.22045e-16
    endloop
  endfacet
  facet normal 0 0 -1
    outer loop
      vertex -12.2673 -0.587002 2.22045e-16
      vertex 8.98026 -6.28026 2.22045e-16
      vertex 6.35 -8.29852 2.22045e-16
    endloop
  endfacet
  facet normal 0 0 -1
    outer loop
      vertex -12.2673 -0.587002 2.22045e-16
      vertex 6.35 -8.29852 2.22045e-16
      vertex 3.287 -9.56726 2.22045e-16
    endloop
  endfacet
  facet normal 0 0 -1
    outer loop
      vertex -12.2673 -0.587002 2.22045e-16
      vertex 3.287 -9.56726 2.22045e-16
      vertex 0 -10 2.22045e-16
    endloop
  endfacet
  facet normal 0 0 -1
    outer loop
      vertex -12.2673 -0.587002 2.22045e-16
      vertex 0 -10 2.22045e-16
      vertex -3.287 -9.56726 2.22045e-16
    endloop
  endfacet
  facet normal 0 0 -1
    outer loop
      vertex -12.2673 -0.587002 2.22045e-16
      vertex -3.287 -9.56726 2.22045e-16
      vertex -6.35 -8.29852 2.22045e-16
    endloop
  endfacet
  facet normal 0 0 -1
    outer loop
      vertex -12.2673 -0.587002 2.22045e-16
      vertex -6.35 -8.29852 2.22045e-16
      vertex -8.98026 -6.28026 2.22045e-16
    endloop
  endfacet
  facet normal 0 0 -1
    outer loop
      vertex -12.2673 -0.587002 2.22045e-16
      vertex -8.98026 -6.28026 2.22045e-16
      vertex -10.9985 -3.65 2.22045e-16
    endloop
  endfacet
  facet normal 0 0 -1
    outer loop
      vertex 1.83848 1.83848 2.22045e-16
      vertex 12.7 2.7 2.22045e-16
      vertex 2.25167 1.3 2.22045e-16
    endloop
  endfacet
  facet normal 0 0 -1
    outer loop
      vertex -1.3 -2.25167 2.22045e-16
      vertex -12.2673 -0.587002 2.22045e-16
      vertex -1.83848 -1.83848 2.22045e-16
    endloop
  endfacet
  facet normal 0 0 -1
    outer loop
      vertex -12.2673 -0.587002 2.22045e-16
      vertex -2.51141 -0.67293 2.22045e-16
      vertex -2.25167 -1.3 2.22045e-16
    endloop
  endfacet
  facet normal 0 0 -1
    outer loop
      vertex -12.2673 -0.587002 2.22045e-16
      vertex -2.25167 -1.3 2.22045e-16
      vertex -1.83848 -1.83848 2.22045e-16
    endloop
  endfacet
  facet normal 0 0 -1
    outer loop
      vertex 0 -2.6 2.22045e-16
      vertex 8.98026 -6.28026 2.22045e-16
      vertex -0.67293 -2.51141 2.22045e-16
    endloop
  endfacet
  facet normal 0 0 -1
    outer loop
      vertex -12.2673 -0.587002 2.22045e-16
      vertex -1.3 -2.25167 2.22045e-16
      vertex -0.67293 -2.51141 2.22045e-16
    endloop
  endfacet
  facet normal 0 0 -1
    outer loop
      vertex -12.2673 -0.587002 2.22045e-16
      vertex -0.67293 -2.51141 2.22045e-16
      vertex 8.98026 -6.28026 2.22045e-16
    endloop
  endfacet
  facet normal 0 0 -1
    outer loop
      vertex 0.67293 -2.51141 2.22045e-16
      vertex 10.9985 -3.65 2.22045e-16
      vertex 0 -2.6 2.22045e-16
    endloop
  endfacet
  facet normal 0 0 -1
    outer loop
      vertex 1.3 -2.25167 2.22045e-16
      vertex 10.9985 -3.65 2.22045e-16
      vertex 0.67293 -2.51141 2.22045e-16
    endloop
  endfacet
  facet normal 0 0 -1
    outer loop
      vertex 1.83848 -1.83848 2.22045e-16
      vertex 10.9985 -3.65 2.22045e-16
      vertex 1.3 -2.25167 2.22045e-16
    endloop
  endfacet
  facet normal 0 0 -1
    outer loop
      vertex 2.25167 -1.3 2.22045e-16
      vertex 10.9985 -3.65 2.22045e-16
      vertex 1.83848 -1.83848 2.22045e-16
    endloop
  endfacet
  facet normal 0 0 -1
    outer loop
      vertex 2.51141 -0.67293 2.22045e-16
      vertex 12.2673 -0.587002 2.22045e-16
      vertex 2.25167 -1.3 2.22045e-16
    endloop
  endfacet
  facet normal 0 0 -1
    outer loop
      vertex 2.6 0 2.22045e-16
      vertex 12.2673 -0.587002 2.22045e-16
      vertex 2.51141 -0.67293 2.22045e-16
    endloop
  endfacet
  facet normal 0 0 -1
    outer loop
      vertex 2.51141 0.67293 2.22045e-16
      vertex 12.7 2.7 2.22045e-16
      vertex 2.6 0 2.22045e-16
    endloop
  endfacet
  facet normal 0 0 -1
    outer loop
      vertex 2.25167 1.3 2.22045e-16
      vertex 12.7 2.7 2.22045e-16
      vertex 2.51141 0.67293 2.22045e-16
    endloop
  endfacet
  facet normal 0 0 -1
    outer loop
      vertex 1.3 2.25167 2.22045e-16
      vertex 12.7 35.4 2.22045e-16
      vertex 1.83848 1.83848 2.22045e-16
    endloop
  endfacet
  facet normal 0 0 -1
    outer loop
      vertex -1.3 2.25167 2.22045e-16
      vertex -12.2673 -0.587002 2.22045e-16
      vertex -0.67293 2.51141 2.22045e-16
    endloop
  endfacet
  facet normal 0 0 -1
    outer loop
      vertex 0.67293 2.51141 2.22045e-16
      vertex 12.7 35.4 2.22045e-16
      vertex 1.3 2.25167 2.22045e-16
    endloop
  endfacet
  facet normal 0 0 -1
    outer loop
      vertex 0 2.6 2.22045e-16
      vertex 12.7 35.4 2.22045e-16
      vertex 0.67293 2.51141 2.22045e-16
    endloop
  endfacet
  facet normal 0 0 -1
    outer loop
      vertex -0.67293 2.51141 2.22045e-16
      vertex 12.7 35.4 2.22045e-16
      vertex 0 2.6 2.22045e-16
    endloop
  endfacet
  facet normal 0 0 -1
    outer loop
      vertex -12.2673 -0.587002 2.22045e-16
      vertex 12.7 35.4 2.22045e-16
      vertex -0.67293 2.51141 2.22045e-16
    endloop
  endfacet
  facet normal 0 0 -1
    outer loop
      vertex -1.83848 1.83848 2.22045e-16
      vertex -12.2673 -0.587002 2.22045e-16
      vertex -1.3 2.25167 2.22045e-16
    endloop
  endfacet
  facet normal 0 0 -1
    outer loop
      vertex -2.25167 1.3 2.22045e-16
      vertex -12.2673 -0.587002 2.22045e-16
      vertex -1.83848 1.83848 2.22045e-16
    endloop
  endfacet
  facet normal 0 0 -1
    outer loop
      vertex -2.51141 0.67293 2.22045e-16
      vertex -12.2673 -0.587002 2.22045e-16
      vertex -2.25167 1.3 2.22045e-16
    endloop
  endfacet
  facet normal 0 0 -1
    outer loop
      vertex -12.2673 -0.587002 2.22045e-16
      vertex -2.51141 0.67293 2.22045e-16
      vertex -2.6 0 2.22045e-16
    endloop
  endfacet
  facet normal 0 0 -1
    outer loop
      vertex -2.51141 -0.67293 2.22045e-16
      vertex -12.2673 -0.587002 2.22045e-16
      vertex -2.6 0 2.22045e-16
    endloop
  endfacet
  facet normal -1 0 0
    outer loop
      vertex -12.7 2.7 2.22045e-16
      vertex -12.7 2.7 3.6
      vertex -12.7 35.4 2.22045e-16
    endloop
  endfacet
  facet normal -1 0 0
    outer loop
      vertex -12.7 35.4 2.22045e-16
      vertex -12.7 2.7 3.6
      vertex -12.7 35.4 3.6
    endloop
  endfacet
  facet normal 0 0 1
    outer loop
      vertex -12.7 35.4 3.6
      vertex -12.7 2.7 3.6
      vertex -12.2673 -0.587002 3.6
    endloop
  endfacet
  facet normal 0 0 1
    outer loop
      vertex -8.98026 -6.28026 3.6
      vertex -12.7 35.4 3.6
      vertex -10.9985 -3.65 3.6
    endloop
  endfacet
  facet normal 0 0 1
    outer loop
      vertex -10.9985 -3.65 3.6
      vertex -12.7 35.4 3.6
      vertex -12.2673 -0.587002 3.6
    endloop
  endfacet
  facet normal 0 0 1
    outer loop
      vertex -6.35 -8.29852 3.6
      vertex -12.7 35.4 3.6
      vertex -8.98026 -6.28026 3.6
    endloop
  endfacet
  facet normal 0 0 1
    outer loop
      vertex -3.287 -9.56726 3.6
      vertex -12.7 35.4 3.6
      vertex -6.35 -8.29852 3.6
    endloop
  endfacet
  facet normal 0 0 1
    outer loop
      vertex -3.71881 -0.996453 3.6
      vertex -12.7 35.4 3.6
      vertex -3.287 -9.56726 3.6
    endloop
  endfacet
  facet normal 0 0 1
    outer loop
      vertex 10.9985 -3.65 3.6
      vertex -12.7 35.4 3.6
      vertex 8.98026 -6.28026 3.6
    endloop
  endfacet
  facet normal 0 0 1
    outer loop
      vertex 12.2673 -0.587002 3.6
      vertex -12.7 35.4 3.6
      vertex 10.9985 -3.65 3.6
    endloop
  endfacet
  facet normal 0 0 1
    outer loop
      vertex 12.7 2.7 3.6
      vertex -12.7 35.4 3.6
      vertex 12.2673 -0.587002 3.6
    endloop
  endfacet
  facet normal 0 0 1
    outer loop
      vertex 12.7 35.4 3.6
      vertex -12.7 35.4 3.6
      vertex 12.7 2.7 3.6
    endloop
  endfacet
  facet normal 0 0 1
    outer loop
      vertex 0 -10 3.6
      vertex -3.71881 -0.996453 3.6
      vertex -3.287 -9.56726 3.6
    endloop
  endfacet
  facet normal 0 0 1
    outer loop
      vertex -3.85 0 3.6
      vertex -12.7 35.4 3.6
      vertex -3.71881 -0.996453 3.6
    endloop
  endfacet
  facet normal 0 0 1
    outer loop
      vertex -3.71881 0.996453 3.6
      vertex -12.7 35.4 3.6
      vertex -3.85 0 3.6
    endloop
  endfacet
  facet normal 0 0 1
    outer loop
      vertex -1.925 3.3342 3.6
      vertex -0.996453 3.71881 3.6
      vertex -12.7 35.4 3.6
    endloop
  endfacet
  facet normal 0 0 1
    outer loop
      vertex -1.925 -3.3342 3.6
      vertex -2.72236 -2.72236 3.6
      vertex 0 -10 3.6
    endloop
  endfacet
  facet normal 0 0 1
    outer loop
      vertex -2.72236 2.72236 3.6
      vertex -12.7 35.4 3.6
      vertex -3.3342 1.925 3.6
    endloop
  endfacet
  facet normal 0 0 1
    outer loop
      vertex -1.925 3.3342 3.6
      vertex -12.7 35.4 3.6
      vertex -2.72236 2.72236 3.6
    endloop
  endfacet
  facet normal 0 0 1
    outer loop
      vertex 0 -3.85 3.6
      vertex -0.996453 -3.71881 3.6
      vertex 3.287 -9.56726 3.6
    endloop
  endfacet
  facet normal 0 0 1
    outer loop
      vertex 3.71881 -0.996453 3.6
      vertex 3.3342 -1.925 3.6
      vertex 6.35 -8.29852 3.6
    endloop
  endfacet
  facet normal 0 0 1
    outer loop
      vertex 0 3.85 3.6
      vertex -12.7 35.4 3.6
      vertex -0.996453 3.71881 3.6
    endloop
  endfacet
  facet normal 0 0 1
    outer loop
      vertex 1.925 -3.3342 3.6
      vertex 0.996453 -3.71881 3.6
      vertex 3.287 -9.56726 3.6
    endloop
  endfacet
  facet normal 0 0 1
    outer loop
      vertex 0.996453 3.71881 3.6
      vertex -12.7 35.4 3.6
      vertex 0 3.85 3.6
    endloop
  endfacet
  facet normal 0 0 1
    outer loop
      vertex 3.3342 1.925 3.6
      vertex 3.71881 0.996453 3.6
      vertex 8.98026 -6.28026 3.6
    endloop
  endfacet
  facet normal 0 0 1
    outer loop
      vertex 3.3342 -1.925 3.6
      vertex 2.72236 -2.72236 3.6
      vertex 6.35 -8.29852 3.6
    endloop
  endfacet
  facet normal 0 0 1
    outer loop
      vertex 2.72236 2.72236 3.6
      vertex -12.7 35.4 3.6
      vertex 1.925 3.3342 3.6
    endloop
  endfacet
  facet normal 0 0 1
    outer loop
      vertex 3.3342 1.925 3.6
      vertex -12.7 35.4 3.6
      vertex 2.72236 2.72236 3.6
    endloop
  endfacet
  facet normal 0 0 1
    outer loop
      vertex 3.71881 0.996453 3.6
      vertex 3.85 0 3.6
      vertex 8.98026 -6.28026 3.6
    endloop
  endfacet
  facet normal 0 0 1
    outer loop
      vertex 8.98026 -6.28026 3.6
      vertex -12.7 35.4 3.6
      vertex 3.3342 1.925 3.6
    endloop
  endfacet
  facet normal 0 0 1
    outer loop
      vertex 8.98026 -6.28026 3.6
      vertex 3.85 0 3.6
      vertex 6.35 -8.29852 3.6
    endloop
  endfacet
  facet normal 0 0 1
    outer loop
      vertex 3.85 0 3.6
      vertex 3.71881 -0.996453 3.6
      vertex 6.35 -8.29852 3.6
    endloop
  endfacet
  facet normal 0 0 1
    outer loop
      vertex 0.996453 -3.71881 3.6
      vertex 0 -3.85 3.6
      vertex 3.287 -9.56726 3.6
    endloop
  endfacet
  facet normal 0 0 1
    outer loop
      vertex 6.35 -8.29852 3.6
      vertex 2.72236 -2.72236 3.6
      vertex 3.287 -9.56726 3.6
    endloop
  endfacet
  facet normal 0 0 1
    outer loop
      vertex 2.72236 -2.72236 3.6
      vertex 1.925 -3.3342 3.6
      vertex 3.287 -9.56726 3.6
    endloop
  endfacet
  facet normal 0 0 1
    outer loop
      vertex 0.996453 3.71881 3.6
      vertex 1.925 3.3342 3.6
      vertex -12.7 35.4 3.6
    endloop
  endfacet
  facet normal 0 0 1
    outer loop
      vertex -0.996453 -3.71881 3.6
      vertex -1.925 -3.3342 3.6
      vertex 0 -10 3.6
    endloop
  endfacet
  facet normal 0 0 1
    outer loop
      vertex 3.287 -9.56726 3.6
      vertex -0.996453 -3.71881 3.6
      vertex 0 -10 3.6
    endloop
  endfacet
  facet normal 0 0 1
    outer loop
      vertex -2.72236 -2.72236 3.6
      vertex -3.3342 -1.925 3.6
      vertex 0 -10 3.6
    endloop
  endfacet
  facet normal 0 0 1
    outer loop
      vertex 0 -10 3.6
      vertex -3.3342 -1.925 3.6
      vertex -3.71881 -0.996453 3.6
    endloop
  endfacet
  facet normal 0 0 1
    outer loop
      vertex -3.71881 0.996453 3.6
      vertex -3.3342 1.925 3.6
      vertex -12.7 35.4 3.6
    endloop
  endfacet
  facet normal -0.92388 -0.382683 0
    outer loop
      vertex -12.2673 -0.587002 2.22045e-16
      vertex -10.9985 -3.65 2.22045e-16
      vertex -12.2673 -0.587002 3.6
    endloop
  endfacet
  facet normal -0.92388 -0.382683 0
    outer loop
      vertex -12.2673 -0.587002 3.6
      vertex -10.9985 -3.65 2.22045e-16
      vertex -10.9985 -3.65 3.6
    endloop
  endfacet
  facet normal -0.793353 -0.608762 0
    outer loop
      vertex -10.9985 -3.65 2.22045e-16
      vertex -8.98026 -6.28026 2.22045e-16
      vertex -10.9985 -3.65 3.6
    endloop
  endfacet
  facet normal -0.793353 -0.608762 0
    outer loop
      vertex -10.9985 -3.65 3.6
      vertex -8.98026 -6.28026 2.22045e-16
      vertex -8.98026 -6.28026 3.6
    endloop
  endfacet
  facet normal -0.608762 -0.793353 0
    outer loop
      vertex -8.98026 -6.28026 3.6
      vertex -8.98026 -6.28026 2.22045e-16
      vertex -6.35 -8.29852 2.22045e-16
    endloop
  endfacet
  facet normal -0.608762 -0.793353 0
    outer loop
      vertex -6.35 -8.29852 3.6
      vertex -8.98026 -6.28026 3.6
      vertex -6.35 -8.29852 2.22045e-16
    endloop
  endfacet
  facet normal -0.382683 -0.92388 0
    outer loop
      vertex -6.35 -8.29852 3.6
      vertex -6.35 -8.29852 2.22045e-16
      vertex -3.287 -9.56726 2.22045e-16
    endloop
  endfacet
  facet normal -0.382683 -0.92388 0
    outer loop
      vertex -3.287 -9.56726 3.6
      vertex -6.35 -8.29852 3.6
      vertex -3.287 -9.56726 2.22045e-16
    endloop
  endfacet
  facet normal -0.130526 -0.991445 0
    outer loop
      vertex -3.287 -9.56726 3.6
      vertex -3.287 -9.56726 2.22045e-16
      vertex 0 -10 2.22045e-16
    endloop
  endfacet
  facet normal -0.130526 -0.991445 0
    outer loop
      vertex 0 -10 3.6
      vertex -3.287 -9.56726 3.6
      vertex 0 -10 2.22045e-16
    endloop
  endfacet
  facet normal 0.130526 -0.991445 0
    outer loop
      vertex 0 -10 3.6
      vertex 0 -10 2.22045e-16
      vertex 3.287 -9.56726 2.22045e-16
    endloop
  endfacet
  facet normal 0.130526 -0.991445 0
    outer loop
      vertex 3.287 -9.56726 3.6
      vertex 0 -10 3.6
      vertex 3.287 -9.56726 2.22045e-16
    endloop
  endfacet
  facet normal 0.382683 -0.92388 0
    outer loop
      vertex 3.287 -9.56726 3.6
      vertex 3.287 -9.56726 2.22045e-16
      vertex 6.35 -8.29852 2.22045e-16
    endloop
  endfacet
  facet normal 0.382683 -0.92388 0
    outer loop
      vertex 6.35 -8.29852 3.6
      vertex 3.287 -9.56726 3.6
      vertex 6.35 -8.29852 2.22045e-16
    endloop
  endfacet
  facet normal 0.608762 -0.793353 0
    outer loop
      vertex 6.35 -8.29852 3.6
      vertex 6.35 -8.29852 2.22045e-16
      vertex 8.98026 -6.28026 2.22045e-16
    endloop
  endfacet
  facet normal 0.608762 -0.793353 0
    outer loop
      vertex 8.98026 -6.28026 3.6
      vertex 6.35 -8.29852 3.6
      vertex 8.98026 -6.28026 2.22045e-16
    endloop
  endfacet
  facet normal 0.793353 -0.608762 0
    outer loop
      vertex 8.98026 -6.28026 3.6
      vertex 8.98026 -6.28026 2.22045e-16
      vertex 10.9985 -3.65 2.22045e-16
    endloop
  endfacet
  facet normal 0.793353 -0.608762 0
    outer loop
      vertex 10.9985 -3.65 3.6
      vertex 8.98026 -6.28026 3.6
      vertex 10.9985 -3.65 2.22045e-16
    endloop
  endfacet
  facet normal 0.92388 -0.382683 0
    outer loop
      vertex 10.9985 -3.65 3.6
      vertex 10.9985 -3.65 2.22045e-16
      vertex 12.2673 -0.587002 2.22045e-16
    endloop
  endfacet
  facet normal 0.92388 -0.382683 0
    outer loop
      vertex 12.2673 -0.587002 3.6
      vertex 10.9985 -3.65 3.6
      vertex 12.2673 -0.587002 2.22045e-16
    endloop
  endfacet
  facet normal 0.991445 -0.130526 0
    outer loop
      vertex 12.2673 -0.587002 3.6
      vertex 12.2673 -0.587002 2.22045e-16
      vertex 12.7 2.7 2.22045e-16
    endloop
  endfacet
  facet normal 0.991445 -0.130526 0
    outer loop
      vertex 12.7 2.7 3.6
      vertex 12.2673 -0.587002 3.6
      vertex 12.7 2.7 2.22045e-16
    endloop
  endfacet
  facet normal 1 0 0
    outer loop
      vertex 12.7 2.7 3.6
      vertex 12.7 2.7 2.22045e-16
      vertex 12.7 35.4 2.22045e-16
    endloop
  endfacet
  facet normal 1 0 0
    outer loop
      vertex 12.7 35.4 3.6
      vertex 12.7 2.7 3.6
      vertex 12.7 35.4 2.22045e-16
    endloop
  endfacet
  facet normal 0 1 0
    outer loop
      vertex -12.7 35.4 2.22045e-16
      vertex -12.7 35.4 3.6
      vertex 12.7 35.4 2.22045e-16
    endloop
  endfacet
  facet normal 0 1 0
    outer loop
      vertex 12.7 35.4 2.22045e-16
      vertex -12.7 35.4 3.6
      vertex 12.7 35.4 3.6
    endloop
  endfacet
  facet normal 0.991445 -0.130526 0
    outer loop
      vertex -2.51141 0.67293 2.22045e-16
      vertex -2.51141 0.67293 3.1
      vertex -2.6 0 3.1
    endloop
  endfacet
  facet normal 0.991445 -0.130526 0
    outer loop
      vertex -2.6 0 2.22045e-16
      vertex -2.51141 0.67293 2.22045e-16
      vertex -2.6 0 3.1
    endloop
  endfacet
  facet normal 0.991445 0.130526 0
    outer loop
      vertex -2.6 0 3.1
      vertex -2.51141 -0.67293 3.1
      vertex -2.51141 -0.67293 2.22045e-16
    endloop
  endfacet
  facet normal 0.991445 0.130526 0
    outer loop
      vertex -2.6 0 2.22045e-16
      vertex -2.6 0 3.1
      vertex -2.51141 -0.67293 2.22045e-16
    endloop
  endfacet
  facet normal 0.923879 -0.382684 0
    outer loop
      vertex -2.25167 1.3 2.22045e-16
      vertex -2.25167 1.3 3.1
      vertex -2.51141 0.67293 3.1
    endloop
  endfacet
  facet normal 0.923879 -0.382684 0
    outer loop
      vertex -2.51141 0.67293 2.22045e-16
      vertex -2.25167 1.3 2.22045e-16
      vertex -2.51141 0.67293 3.1
    endloop
  endfacet
  facet normal 0.793354 -0.608761 0
    outer loop
      vertex -1.83848 1.83848 2.22045e-16
      vertex -1.83848 1.83848 3.1
      vertex -2.25167 1.3 3.1
    endloop
  endfacet
  facet normal 0.793354 -0.608761 0
    outer loop
      vertex -2.25167 1.3 2.22045e-16
      vertex -1.83848 1.83848 2.22045e-16
      vertex -2.25167 1.3 3.1
    endloop
  endfacet
  facet normal 0.608761 -0.793354 0
    outer loop
      vertex -1.3 2.25167 2.22045e-16
      vertex -1.3 2.25167 3.1
      vertex -1.83848 1.83848 3.1
    endloop
  endfacet
  facet normal 0.608761 -0.793354 0
    outer loop
      vertex -1.83848 1.83848 2.22045e-16
      vertex -1.3 2.25167 2.22045e-16
      vertex -1.83848 1.83848 3.1
    endloop
  endfacet
  facet normal 0.382684 -0.923879 0
    outer loop
      vertex -0.67293 2.51141 2.22045e-16
      vertex -0.67293 2.51141 3.1
      vertex -1.3 2.25167 3.1
    endloop
  endfacet
  facet normal 0.382684 -0.923879 0
    outer loop
      vertex -1.3 2.25167 2.22045e-16
      vertex -0.67293 2.51141 2.22045e-16
      vertex -1.3 2.25167 3.1
    endloop
  endfacet
  facet normal 0.130526 -0.991445 0
    outer loop
      vertex 0 2.6 2.22045e-16
      vertex 0 2.6 3.1
      vertex -0.67293 2.51141 3.1
    endloop
  endfacet
  facet normal 0.130526 -0.991445 0
    outer loop
      vertex -0.67293 2.51141 2.22045e-16
      vertex 0 2.6 2.22045e-16
      vertex -0.67293 2.51141 3.1
    endloop
  endfacet
  facet normal -0.130526 -0.991445 0
    outer loop
      vertex 0.67293 2.51141 2.22045e-16
      vertex 0.67293 2.51141 3.1
      vertex 0 2.6 3.1
    endloop
  endfacet
  facet normal -0.130526 -0.991445 0
    outer loop
      vertex 0 2.6 2.22045e-16
      vertex 0.67293 2.51141 2.22045e-16
      vertex 0 2.6 3.1
    endloop
  endfacet
  facet normal -0.382684 -0.923879 0
    outer loop
      vertex 1.3 2.25167 2.22045e-16
      vertex 1.3 2.25167 3.1
      vertex 0.67293 2.51141 3.1
    endloop
  endfacet
  facet normal -0.382684 -0.923879 0
    outer loop
      vertex 0.67293 2.51141 2.22045e-16
      vertex 1.3 2.25167 2.22045e-16
      vertex 0.67293 2.51141 3.1
    endloop
  endfacet
  facet normal -0.608761 -0.793354 0
    outer loop
      vertex 1.83848 1.83848 2.22045e-16
      vertex 1.83848 1.83848 3.1
      vertex 1.3 2.25167 3.1
    endloop
  endfacet
  facet normal -0.608761 -0.793354 0
    outer loop
      vertex 1.3 2.25167 2.22045e-16
      vertex 1.83848 1.83848 2.22045e-16
      vertex 1.3 2.25167 3.1
    endloop
  endfacet
  facet normal -0.793354 -0.608761 0
    outer loop
      vertex 2.25167 1.3 3.1
      vertex 1.83848 1.83848 3.1
      vertex 2.25167 1.3 2.22045e-16
    endloop
  endfacet
  facet normal -0.793354 -0.608761 0
    outer loop
      vertex 2.25167 1.3 2.22045e-16
      vertex 1.83848 1.83848 3.1
      vertex 1.83848 1.83848 2.22045e-16
    endloop
  endfacet
  facet normal -0.923879 -0.382684 0
    outer loop
      vertex 2.51141 0.67293 3.1
      vertex 2.25167 1.3 3.1
      vertex 2.51141 0.67293 2.22045e-16
    endloop
  endfacet
  facet normal -0.923879 -0.382684 0
    outer loop
      vertex 2.51141 0.67293 2.22045e-16
      vertex 2.25167 1.3 3.1
      vertex 2.25167 1.3 2.22045e-16
    endloop
  endfacet
  facet normal -0.991445 -0.130526 0
    outer loop
      vertex 2.6 0 3.1
      vertex 2.51141 0.67293 3.1
      vertex 2.6 0 2.22045e-16
    endloop
  endfacet
  facet normal -0.991445 -0.130526 0
    outer loop
      vertex 2.6 0 2.22045e-16
      vertex 2.51141 0.67293 3.1
      vertex 2.51141 0.67293 2.22045e-16
    endloop
  endfacet
  facet normal -0.991445 0.130526 0
    outer loop
      vertex 2.6 0 3.1
      vertex 2.6 0 2.22045e-16
      vertex 2.51141 -0.67293 3.1
    endloop
  endfacet
  facet normal -0.991445 0.130526 0
    outer loop
      vertex 2.51141 -0.67293 3.1
      vertex 2.6 0 2.22045e-16
      vertex 2.51141 -0.67293 2.22045e-16
    endloop
  endfacet
  facet normal -0.923879 0.382684 0
    outer loop
      vertex 2.51141 -0.67293 3.1
      vertex 2.51141 -0.67293 2.22045e-16
      vertex 2.25167 -1.3 3.1
    endloop
  endfacet
  facet normal -0.923879 0.382684 0
    outer loop
      vertex 2.25167 -1.3 3.1
      vertex 2.51141 -0.67293 2.22045e-16
      vertex 2.25167 -1.3 2.22045e-16
    endloop
  endfacet
  facet normal -0.793354 0.608761 0
    outer loop
      vertex 2.25167 -1.3 3.1
      vertex 2.25167 -1.3 2.22045e-16
      vertex 1.83848 -1.83848 3.1
    endloop
  endfacet
  facet normal -0.793354 0.608761 0
    outer loop
      vertex 1.83848 -1.83848 3.1
      vertex 2.25167 -1.3 2.22045e-16
      vertex 1.83848 -1.83848 2.22045e-16
    endloop
  endfacet
  facet normal -0.608761 0.793354 0
    outer loop
      vertex 1.83848 -1.83848 3.1
      vertex 1.83848 -1.83848 2.22045e-16
      vertex 1.3 -2.25167 3.1
    endloop
  endfacet
  facet normal -0.608761 0.793354 0
    outer loop
      vertex 1.3 -2.25167 3.1
      vertex 1.83848 -1.83848 2.22045e-16
      vertex 1.3 -2.25167 2.22045e-16
    endloop
  endfacet
  facet normal -0.382684 0.923879 0
    outer loop
      vertex 1.3 -2.25167 3.1
      vertex 1.3 -2.25167 2.22045e-16
      vertex 0.67293 -2.51141 3.1
    endloop
  endfacet
  facet normal -0.382684 0.923879 0
    outer loop
      vertex 0.67293 -2.51141 3.1
      vertex 1.3 -2.25167 2.22045e-16
      vertex 0.67293 -2.51141 2.22045e-16
    endloop
  endfacet
  facet normal -0.130526 0.991445 0
    outer loop
      vertex 0.67293 -2.51141 3.1
      vertex 0.67293 -2.51141 2.22045e-16
      vertex 0 -2.6 3.1
    endloop
  endfacet
  facet normal -0.130526 0.991445 0
    outer loop
      vertex 0 -2.6 3.1
      vertex 0.67293 -2.51141 2.22045e-16
      vertex 0 -2.6 2.22045e-16
    endloop
  endfacet
  facet normal 0.130526 0.991445 0
    outer loop
      vertex 0 -2.6 3.1
      vertex 0 -2.6 2.22045e-16
      vertex -0.67293 -2.51141 3.1
    endloop
  endfacet
  facet normal 0.130526 0.991445 0
    outer loop
      vertex -0.67293 -2.51141 3.1
      vertex 0 -2.6 2.22045e-16
      vertex -0.67293 -2.51141 2.22045e-16
    endloop
  endfacet
  facet normal 0.382684 0.923879 0
    outer loop
      vertex -0.67293 -2.51141 3.1
      vertex -0.67293 -2.51141 2.22045e-16
      vertex -1.3 -2.25167 3.1
    endloop
  endfacet
  facet normal 0.382684 0.923879 0
    outer loop
      vertex -1.3 -2.25167 3.1
      vertex -0.67293 -2.51141 2.22045e-16
      vertex -1.3 -2.25167 2.22045e-16
    endloop
  endfacet
  facet normal 0.608761 0.793354 0
    outer loop
      vertex -1.3 -2.25167 3.1
      vertex -1.3 -2.25167 2.22045e-16
      vertex -1.83848 -1.83848 3.1
    endloop
  endfacet
  facet normal 0.608761 0.793354 0
    outer loop
      vertex -1.83848 -1.83848 3.1
      vertex -1.3 -2.25167 2.22045e-16
      vertex -1.83848 -1.83848 2.22045e-16
    endloop
  endfacet
  facet normal 0.793354 0.608761 0
    outer loop
      vertex -2.25167 -1.3 3.1
      vertex -1.83848 -1.83848 3.1
      vertex -1.83848 -1.83848 2.22045e-16
    endloop
  endfacet
  facet normal 0.793354 0.608761 0
    outer loop
      vertex -2.25167 -1.3 2.22045e-16
      vertex -2.25167 -1.3 3.1
      vertex -1.83848 -1.83848 2.22045e-16
    endloop
  endfacet
  facet normal 0.923879 0.382684 0
    outer loop
      vertex -2.51141 -0.67293 3.1
      vertex -2.25167 -1.3 3.1
      vertex -2.25167 -1.3 2.22045e-16
    endloop
  endfacet
  facet normal 0.923879 0.382684 0
    outer loop
      vertex -2.51141 -0.67293 2.22045e-16
      vertex -2.51141 -0.67293 3.1
      vertex -2.25167 -1.3 2.22045e-16
    endloop
  endfacet
  facet normal 0.991445 0.130527 0
    outer loop
      vertex -3.85 0 3.6
      vertex -3.71881 -0.996453 3.6
      vertex -3.71881 -0.996453 3.1
    endloop
  endfacet
  facet normal 0.991445 0.130527 0
    outer loop
      vertex -3.85 0 3.1
      vertex -3.85 0 3.6
      vertex -3.71881 -0.996453 3.1
    endloop
  endfacet
  facet normal 0.92388 0.382683 0
    outer loop
      vertex -3.71881 -0.996453 3.6
      vertex -3.3342 -1.925 3.6
      vertex -3.3342 -1.925 3.1
    endloop
  endfacet
  facet normal 0.92388 0.382683 0
    outer loop
      vertex -3.71881 -0.996453 3.1
      vertex -3.71881 -0.996453 3.6
      vertex -3.3342 -1.925 3.1
    endloop
  endfacet
  facet normal 0.793353 0.608762 0
    outer loop
      vertex -3.3342 -1.925 3.6
      vertex -2.72236 -2.72236 3.6
      vertex -2.72236 -2.72236 3.1
    endloop
  endfacet
  facet normal 0.793353 0.608762 0
    outer loop
      vertex -3.3342 -1.925 3.1
      vertex -3.3342 -1.925 3.6
      vertex -2.72236 -2.72236 3.1
    endloop
  endfacet
  facet normal 0.608762 0.793353 0
    outer loop
      vertex -1.925 -3.3342 3.6
      vertex -1.925 -3.3342 3.1
      vertex -2.72236 -2.72236 3.6
    endloop
  endfacet
  facet normal 0.608762 0.793353 0
    outer loop
      vertex -2.72236 -2.72236 3.6
      vertex -1.925 -3.3342 3.1
      vertex -2.72236 -2.72236 3.1
    endloop
  endfacet
  facet normal 0.382683 0.92388 0
    outer loop
      vertex -0.996453 -3.71881 3.6
      vertex -0.996453 -3.71881 3.1
      vertex -1.925 -3.3342 3.6
    endloop
  endfacet
  facet normal 0.382683 0.92388 0
    outer loop
      vertex -1.925 -3.3342 3.6
      vertex -0.996453 -3.71881 3.1
      vertex -1.925 -3.3342 3.1
    endloop
  endfacet
  facet normal 0.130527 0.991445 0
    outer loop
      vertex 0 -3.85 3.6
      vertex 0 -3.85 3.1
      vertex -0.996453 -3.71881 3.6
    endloop
  endfacet
  facet normal 0.130527 0.991445 0
    outer loop
      vertex -0.996453 -3.71881 3.6
      vertex 0 -3.85 3.1
      vertex -0.996453 -3.71881 3.1
    endloop
  endfacet
  facet normal -0.130527 0.991445 0
    outer loop
      vertex 0.996453 -3.71881 3.6
      vertex 0.996453 -3.71881 3.1
      vertex 0 -3.85 3.6
    endloop
  endfacet
  facet normal -0.130527 0.991445 0
    outer loop
      vertex 0 -3.85 3.6
      vertex 0.996453 -3.71881 3.1
      vertex 0 -3.85 3.1
    endloop
  endfacet
  facet normal -0.382683 0.92388 0
    outer loop
      vertex 1.925 -3.3342 3.6
      vertex 1.925 -3.3342 3.1
      vertex 0.996453 -3.71881 3.6
    endloop
  endfacet
  facet normal -0.382683 0.92388 0
    outer loop
      vertex 0.996453 -3.71881 3.6
      vertex 1.925 -3.3342 3.1
      vertex 0.996453 -3.71881 3.1
    endloop
  endfacet
  facet normal -0.608762 0.793353 0
    outer loop
      vertex 2.72236 -2.72236 3.6
      vertex 2.72236 -2.72236 3.1
      vertex 1.925 -3.3342 3.6
    endloop
  endfacet
  facet normal -0.608762 0.793353 0
    outer loop
      vertex 1.925 -3.3342 3.6
      vertex 2.72236 -2.72236 3.1
      vertex 1.925 -3.3342 3.1
    endloop
  endfacet
  facet normal -0.793353 0.608762 0
    outer loop
      vertex 3.3342 -1.925 3.6
      vertex 3.3342 -1.925 3.1
      vertex 2.72236 -2.72236 3.6
    endloop
  endfacet
  facet normal -0.793353 0.608762 0
    outer loop
      vertex 2.72236 -2.72236 3.6
      vertex 3.3342 -1.925 3.1
      vertex 2.72236 -2.72236 3.1
    endloop
  endfacet
  facet normal -0.92388 0.382683 0
    outer loop
      vertex 3.71881 -0.996453 3.6
      vertex 3.71881 -0.996453 3.1
      vertex 3.3342 -1.925 3.6
    endloop
  endfacet
  facet normal -0.92388 0.382683 0
    outer loop
      vertex 3.3342 -1.925 3.6
      vertex 3.71881 -0.996453 3.1
      vertex 3.3342 -1.925 3.1
    endloop
  endfacet
  facet normal -0.991445 0.130527 0
    outer loop
      vertex 3.85 0 3.6
      vertex 3.85 0 3.1
      vertex 3.71881 -0.996453 3.6
    endloop
  endfacet
  facet normal -0.991445 0.130527 0
    outer loop
      vertex 3.71881 -0.996453 3.6
      vertex 3.85 0 3.1
      vertex 3.71881 -0.996453 3.1
    endloop
  endfacet
  facet normal -0.991445 -0.130527 0
    outer loop
      vertex 3.85 0 3.6
      vertex 3.71881 0.996453 3.6
      vertex 3.85 0 3.1
    endloop
  endfacet
  facet normal -0.991445 -0.130527 0
    outer loop
      vertex 3.85 0 3.1
      vertex 3.71881 0.996453 3.6
      vertex 3.71881 0.996453 3.1
    endloop
  endfacet
  facet normal -0.92388 -0.382683 0
    outer loop
      vertex 3.71881 0.996453 3.6
      vertex 3.3342 1.925 3.6
      vertex 3.71881 0.996453 3.1
    endloop
  endfacet
  facet normal -0.92388 -0.382683 0
    outer loop
      vertex 3.71881 0.996453 3.1
      vertex 3.3342 1.925 3.6
      vertex 3.3342 1.925 3.1
    endloop
  endfacet
  facet normal -0.793353 -0.608762 0
    outer loop
      vertex 3.3342 1.925 3.6
      vertex 2.72236 2.72236 3.6
      vertex 3.3342 1.925 3.1
    endloop
  endfacet
  facet normal -0.793353 -0.608762 0
    outer loop
      vertex 3.3342 1.925 3.1
      vertex 2.72236 2.72236 3.6
      vertex 2.72236 2.72236 3.1
    endloop
  endfacet
  facet normal -0.608762 -0.793353 0
    outer loop
      vertex 2.72236 2.72236 3.1
      vertex 2.72236 2.72236 3.6
      vertex 1.925 3.3342 3.6
    endloop
  endfacet
  facet normal -0.608762 -0.793353 0
    outer loop
      vertex 1.925 3.3342 3.1
      vertex 2.72236 2.72236 3.1
      vertex 1.925 3.3342 3.6
    endloop
  endfacet
  facet normal -0.382683 -0.92388 0
    outer loop
      vertex 1.925 3.3342 3.1
      vertex 1.925 3.3342 3.6
      vertex 0.996453 3.71881 3.6
    endloop
  endfacet
  facet normal -0.382683 -0.92388 0
    outer loop
      vertex 0.996453 3.71881 3.1
      vertex 1.925 3.3342 3.1
      vertex 0.996453 3.71881 3.6
    endloop
  endfacet
  facet normal -0.130527 -0.991445 0
    outer loop
      vertex 0.996453 3.71881 3.1
      vertex 0.996453 3.71881 3.6
      vertex 0 3.85 3.6
    endloop
  endfacet
  facet normal -0.130527 -0.991445 0
    outer loop
      vertex 0 3.85 3.1
      vertex 0.996453 3.71881 3.1
      vertex 0 3.85 3.6
    endloop
  endfacet
  facet normal 0.130527 -0.991445 0
    outer loop
      vertex 0 3.85 3.1
      vertex 0 3.85 3.6
      vertex -0.996453 3.71881 3.6
    endloop
  endfacet
  facet normal 0.130527 -0.991445 0
    outer loop
      vertex -0.996453 3.71881 3.1
      vertex 0 3.85 3.1
      vertex -0.996453 3.71881 3.6
    endloop
  endfacet
  facet normal 0.382683 -0.92388 0
    outer loop
      vertex -0.996453 3.71881 3.1
      vertex -0.996453 3.71881 3.6
      vertex -1.925 3.3342 3.6
    endloop
  endfacet
  facet normal 0.382683 -0.92388 0
    outer loop
      vertex -1.925 3.3342 3.1
      vertex -0.996453 3.71881 3.1
      vertex -1.925 3.3342 3.6
    endloop
  endfacet
  facet normal 0.608762 -0.793353 0
    outer loop
      vertex -1.925 3.3342 3.1
      vertex -1.925 3.3342 3.6
      vertex -2.72236 2.72236 3.6
    endloop
  endfacet
  facet normal 0.608762 -0.793353 0
    outer loop
      vertex -2.72236 2.72236 3.1
      vertex -1.925 3.3342 3.1
      vertex -2.72236 2.72236 3.6
    endloop
  endfacet
  facet normal 0.793353 -0.608762 0
    outer loop
      vertex -2.72236 2.72236 3.1
      vertex -2.72236 2.72236 3.6
      vertex -3.3342 1.925 3.6
    endloop
  endfacet
  facet normal 0.793353 -0.608762 0
    outer loop
      vertex -3.3342 1.925 3.1
      vertex -2.72236 2.72236 3.1
      vertex -3.3342 1.925 3.6
    endloop
  endfacet
  facet normal 0.92388 -0.382683 0
    outer loop
      vertex -3.3342 1.925 3.1
      vertex -3.3342 1.925 3.6
      vertex -3.71881 0.996453 3.6
    endloop
  endfacet
  facet normal 0.92388 -0.382683 0
    outer loop
      vertex -3.71881 0.996453 3.1
      vertex -3.3342 1.925 3.1
      vertex -3.71881 0.996453 3.6
    endloop
  endfacet
  facet normal 0.991445 -0.130527 0
    outer loop
      vertex -3.71881 0.996453 3.1
      vertex -3.71881 0.996453 3.6
      vertex -3.85 0 3.6
    endloop
  endfacet
  facet normal 0.991445 -0.130527 0
    outer loop
      vertex -3.85 0 3.1
      vertex -3.71881 0.996453 3.1
      vertex -3.85 0 3.6
    endloop
  endfacet
  facet normal 0 0 1
    outer loop
      vertex -3.71881 -0.996453 3.1
      vertex -3.3342 -1.925 3.1
      vertex -2.72236 -2.72236 3.1
    endloop
  endfacet
  facet normal 0 0 1
    outer loop
      vertex -0.996453 -3.71881 3.1
      vertex -3.71881 -0.996453 3.1
      vertex -1.925 -3.3342 3.1
    endloop
  endfacet
  facet normal 0 0 1
    outer loop
      vertex -1.925 -3.3342 3.1
      vertex -3.71881 -0.996453 3.1
      vertex -2.72236 -2.72236 3.1
    endloop
  endfacet
  facet normal 0 0 1
    outer loop
      vertex 0 -3.85 3.1
      vertex -3.71881 -0.996453 3.1
      vertex -0.996453 -3.71881 3.1
    endloop
  endfacet
  facet normal 0 0 1
    outer loop
      vertex 0.996453 -3.71881 3.1
      vertex -3.71881 -0.996453 3.1
      vertex 0 -3.85 3.1
    endloop
  endfacet
  facet normal 0 0 1
    outer loop
      vertex -1.3 -2.25167 3.1
      vertex -3.71881 -0.996453 3.1
      vertex 0.996453 -3.71881 3.1
    endloop
  endfacet
  facet normal 0 0 1
    outer loop
      vertex -1.3 -2.25167 3.1
      vertex -1.83848 -1.83848 3.1
      vertex -3.71881 -0.996453 3.1
    endloop
  endfacet
  facet normal 0 0 1
    outer loop
      vertex 0.67293 -2.51141 3.1
      vertex 0 -2.6 3.1
      vertex 1.925 -3.3342 3.1
    endloop
  endfacet
  facet normal 0 0 1
    outer loop
      vertex 1.3 -2.25167 3.1
      vertex 0.67293 -2.51141 3.1
      vertex 2.72236 -2.72236 3.1
    endloop
  endfacet
  facet normal 0 0 1
    outer loop
      vertex 2.25167 -1.3 3.1
      vertex 1.83848 -1.83848 3.1
      vertex 3.3342 -1.925 3.1
    endloop
  endfacet
  facet normal 0 0 1
    outer loop
      vertex 2.51141 -0.67293 3.1
      vertex 2.25167 -1.3 3.1
      vertex 3.71881 -0.996453 3.1
    endloop
  endfacet
  facet normal 0 0 1
    outer loop
      vertex -2.25167 -1.3 3.1
      vertex -2.51141 -0.67293 3.1
      vertex -3.71881 -0.996453 3.1
    endloop
  endfacet
  facet normal 0 0 1
    outer loop
      vertex 0.67293 2.51141 3.1
      vertex 1.3 2.25167 3.1
      vertex 1.925 3.3342 3.1
    endloop
  endfacet
  facet normal 0 0 1
    outer loop
      vertex -0.67293 2.51141 3.1
      vertex 0 2.6 3.1
      vertex 0.996453 3.71881 3.1
    endloop
  endfacet
  facet normal 0 0 1
    outer loop
      vertex -1.925 3.3342 3.1
      vertex -3.71881 -0.996453 3.1
      vertex -0.996453 3.71881 3.1
    endloop
  endfacet
  facet normal 0 0 1
    outer loop
      vertex -2.72236 2.72236 3.1
      vertex -3.71881 -0.996453 3.1
      vertex -1.925 3.3342 3.1
    endloop
  endfacet
  facet normal 0 0 1
    outer loop
      vertex -3.3342 1.925 3.1
      vertex -3.71881 -0.996453 3.1
      vertex -2.72236 2.72236 3.1
    endloop
  endfacet
  facet normal 0 0 1
    outer loop
      vertex -3.71881 0.996453 3.1
      vertex -3.71881 -0.996453 3.1
      vertex -3.3342 1.925 3.1
    endloop
  endfacet
  facet normal 0 0 1
    outer loop
      vertex -3.85 0 3.1
      vertex -3.71881 -0.996453 3.1
      vertex -3.71881 0.996453 3.1
    endloop
  endfacet
  facet normal 0 0 1
    outer loop
      vertex 1.3 2.25167 3.1
      vertex 1.83848 1.83848 3.1
      vertex 2.72236 2.72236 3.1
    endloop
  endfacet
  facet normal 0 0 1
    outer loop
      vertex -1.83848 -1.83848 3.1
      vertex -2.25167 -1.3 3.1
      vertex -3.71881 -0.996453 3.1
    endloop
  endfacet
  facet normal 0 0 1
    outer loop
      vertex -2.25167 1.3 3.1
      vertex -3.71881 -0.996453 3.1
      vertex -2.51141 0.67293 3.1
    endloop
  endfacet
  facet normal 0 0 1
    outer loop
      vertex -1.3 2.25167 3.1
      vertex -0.67293 2.51141 3.1
      vertex 0 3.85 3.1
    endloop
  endfacet
  facet normal 0 0 1
    outer loop
      vertex -0.996453 3.71881 3.1
      vertex -3.71881 -0.996453 3.1
      vertex -2.25167 1.3 3.1
    endloop
  endfacet
  facet normal 0 0 1
    outer loop
      vertex -0.996453 3.71881 3.1
      vertex -1.83848 1.83848 3.1
      vertex 0 3.85 3.1
    endloop
  endfacet
  facet normal 0 0 1
    outer loop
      vertex -1.83848 1.83848 3.1
      vertex -1.3 2.25167 3.1
      vertex 0 3.85 3.1
    endloop
  endfacet
  facet normal 0 0 1
    outer loop
      vertex 0 3.85 3.1
      vertex -0.67293 2.51141 3.1
      vertex 0.996453 3.71881 3.1
    endloop
  endfacet
  facet normal 0 0 1
    outer loop
      vertex -2.25167 1.3 3.1
      vertex -1.83848 1.83848 3.1
      vertex -0.996453 3.71881 3.1
    endloop
  endfacet
  facet normal 0 0 1
    outer loop
      vertex 0.996453 3.71881 3.1
      vertex 0 2.6 3.1
      vertex 1.925 3.3342 3.1
    endloop
  endfacet
  facet normal 0 0 1
    outer loop
      vertex 0 2.6 3.1
      vertex 0.67293 2.51141 3.1
      vertex 1.925 3.3342 3.1
    endloop
  endfacet
  facet normal 0 0 1
    outer loop
      vertex 1.925 3.3342 3.1
      vertex 1.3 2.25167 3.1
      vertex 2.72236 2.72236 3.1
    endloop
  endfacet
  facet normal 0 0 1
    outer loop
      vertex 2.72236 2.72236 3.1
      vertex 1.83848 1.83848 3.1
      vertex 3.3342 1.925 3.1
    endloop
  endfacet
  facet normal 0 0 1
    outer loop
      vertex -2.6 0 3.1
      vertex -2.51141 0.67293 3.1
      vertex -3.71881 -0.996453 3.1
    endloop
  endfacet
  facet normal 0 0 1
    outer loop
      vertex 3.3342 1.925 3.1
      vertex 2.25167 1.3 3.1
      vertex 3.71881 0.996453 3.1
    endloop
  endfacet
  facet normal 0 0 1
    outer loop
      vertex 2.25167 1.3 3.1
      vertex 2.51141 0.67293 3.1
      vertex 3.71881 0.996453 3.1
    endloop
  endfacet
  facet normal 0 0 1
    outer loop
      vertex 3.71881 0.996453 3.1
      vertex 2.6 0 3.1
      vertex 3.85 0 3.1
    endloop
  endfacet
  facet normal 0 0 1
    outer loop
      vertex 3.85 0 3.1
      vertex 2.51141 -0.67293 3.1
      vertex 3.71881 -0.996453 3.1
    endloop
  endfacet
  facet normal 0 0 1
    outer loop
      vertex 3.71881 -0.996453 3.1
      vertex 2.25167 -1.3 3.1
      vertex 3.3342 -1.925 3.1
    endloop
  endfacet
  facet normal 0 0 1
    outer loop
      vertex 3.3342 -1.925 3.1
      vertex 1.83848 -1.83848 3.1
      vertex 2.72236 -2.72236 3.1
    endloop
  endfacet
  facet normal 0 0 1
    outer loop
      vertex 1.83848 -1.83848 3.1
      vertex 1.3 -2.25167 3.1
      vertex 2.72236 -2.72236 3.1
    endloop
  endfacet
  facet normal 0 0 1
    outer loop
      vertex 2.72236 -2.72236 3.1
      vertex 0.67293 -2.51141 3.1
      vertex 1.925 -3.3342 3.1
    endloop
  endfacet
  facet normal 0 0 1
    outer loop
      vertex 1.925 -3.3342 3.1
      vertex 0 -2.6 3.1
      vertex 0.996453 -3.71881 3.1
    endloop
  endfacet
  facet normal 0 0 1
    outer loop
      vertex 0 -2.6 3.1
      vertex -0.67293 -2.51141 3.1
      vertex 0.996453 -3.71881 3.1
    endloop
  endfacet
  facet normal 0 0 1
    outer loop
      vertex -0.67293 -2.51141 3.1
      vertex -1.3 -2.25167 3.1
      vertex 0.996453 -3.71881 3.1
    endloop
  endfacet
  facet normal 0 0 1
    outer loop
      vertex 1.83848 1.83848 3.1
      vertex 2.25167 1.3 3.1
      vertex 3.3342 1.925 3.1
    endloop
  endfacet
  facet normal 0 0 1
    outer loop
      vertex 2.51141 0.67293 3.1
      vertex 2.6 0 3.1
      vertex 3.71881 0.996453 3.1
    endloop
  endfacet
  facet normal 0 0 1
    outer loop
      vertex 2.6 0 3.1
      vertex 2.51141 -0.67293 3.1
      vertex 3.85 0 3.1
    endloop
  endfacet
  facet normal 0 0 1
    outer loop
      vertex -2.51141 -0.67293 3.1
      vertex -2.6 0 3.1
      vertex -3.71881 -0.996453 3.1
    endloop
  endfacet
endsolid OpenSCAD_Model
