solid OpenSCAD_Model
  facet normal -0.991445 -0.130526 0
    outer loop
      vertex -12.7 2.7 2.22045e-16
      vertex -12.2673 -0.587002 2.22045e-16
      vertex -12.7 2.7 3.6
    endloop
  endfacet
  facet normal -0.991445 -0.130526 0
    outer loop
      vertex -12.7 2.7 3.6
      vertex -12.2673 -0.587002 2.22045e-16
      vertex -12.2673 -0.587002 3.6
    endloop
  endfacet
  facet normal 0 0 -1
    outer loop
      vertex -12.7 2.7 2.22045e-16
      vertex -12.7 35.4 2.22045e-16
      vertex -12.2673 -0.587002 2.22045e-16
    endloop
  endfacet
  facet normal 0 0 -1
    outer loop
      vertex -12.2673 -0.587002 2.22045e-16
      vertex -12.7 35.4 2.22045e-16
      vertex 12.7 35.4 2.22045e-16
    endloop
  endfacet
  facet normal 0 0 -1
    outer loop
      vertex 2.42487 1.4 2.22045e-16
      vertex 12.7 35.4 2.22045e-16
      vertex 12.7 2.7 2.22045e-16
    endloop
  endfacet
  facet normal 0 0 -1
    outer loop
      vertex 2.8 0 2.22045e-16
      vertex 12.7 2.7 2.22045e-16
      vertex 12.2673 -0.587002 2.22045e-16
    endloop
  endfacet
  facet normal 0 0 -1
    outer loop
      vertex 2.42487 -1.4 2.22045e-16
      vertex 12.2673 -0.587002 2.22045e-16
      vertex 10.9985 -3.65 2.22045e-16
    endloop
  endfacet
  facet normal 0 0 -1
    outer loop
      vertex 0.724693 -2.70459 2.22045e-16
      vertex 10.9985 -3.65 2.22045e-16
      vertex 8.98026 -6.28026 2.22045e-16
    endloop
  endfacet
  facet normal 0 0 -1
    outer loop
      vertex -12.2673 -0.587002 2.22045e-16
      vertex 8.98026 -6.28026 2.22045e-16
      vertex 6.35 -8.29852 2.22045e-16
    endloop
  endfacet
  facet normal 0 0 -1
    outer loop
      vertex -12.2673 -0.587002 2.22045e-16
      vertex 6.35 -8.29852 2.22045e-16
      vertex 3.287 -9.56726 2.22045e-16
    endloop
  endfacet
  facet normal 0 0 -1
    outer loop
      vertex -12.2673 -0.587002 2.22045e-16
      vertex 3.287 -9.56726 2.22045e-16
      vertex 0 -10 2.22045e-16
    endloop
  endfacet
  facet normal 0 0 -1
    outer loop
      vertex -12.2673 -0.587002 2.22045e-16
      vertex 0 -10 2.22045e-16
      vertex -3.287 -9.56726 2.22045e-16
    endloop
  endfacet
  facet normal 0 0 -1
    outer loop
      vertex -12.2673 -0.587002 2.22045e-16
      vertex -3.287 -9.56726 2.22045e-16
      vertex -6.35 -8.29852 2.22045e-16
    endloop
  endfacet
  facet normal 0 0 -1
    outer loop
      vertex -12.2673 -0.587002 2.22045e-16
      vertex -6.35 -8.29852 2.22045e-16
      vertex -8.98026 -6.28026 2.22045e-16
    endloop
  endfacet
  facet normal 0 0 -1
    outer loop
      vertex -12.2673 -0.587002 2.22045e-16
      vertex -8.98026 -6.28026 2.22045e-16
      vertex -10.9985 -3.65 2.22045e-16
    endloop
  endfacet
  facet normal 0 0 -1
    outer loop
      vertex -2.70459 -0.724693 2.22045e-16
      vertex -12.2673 -0.587002 2.22045e-16
      vertex -2.8 0 2.22045e-16
    endloop
  endfacet
  facet normal 0 0 -1
    outer loop
      vertex -1.9799 -1.9799 2.22045e-16
      vertex -12.2673 -0.587002 2.22045e-16
      vertex -2.42487 -1.4 2.22045e-16
    endloop
  endfacet
  facet normal 0 0 -1
    outer loop
      vertex -12.2673 -0.587002 2.22045e-16
      vertex -2.70459 -0.724693 2.22045e-16
      vertex -2.42487 -1.4 2.22045e-16
    endloop
  endfacet
  facet normal 0 0 -1
    outer loop
      vertex 0 -2.8 2.22045e-16
      vertex 8.98026 -6.28026 2.22045e-16
      vertex -0.724693 -2.70459 2.22045e-16
    endloop
  endfacet
  facet normal 0 0 -1
    outer loop
      vertex -12.2673 -0.587002 2.22045e-16
      vertex -1.9799 -1.9799 2.22045e-16
      vertex -1.4 -2.42487 2.22045e-16
    endloop
  endfacet
  facet normal 0 0 -1
    outer loop
      vertex -12.2673 -0.587002 2.22045e-16
      vertex -1.4 -2.42487 2.22045e-16
      vertex -0.724693 -2.70459 2.22045e-16
    endloop
  endfacet
  facet normal 0 0 -1
    outer loop
      vertex -12.2673 -0.587002 2.22045e-16
      vertex -0.724693 -2.70459 2.22045e-16
      vertex 8.98026 -6.28026 2.22045e-16
    endloop
  endfacet
  facet normal 0 0 -1
    outer loop
      vertex 0.724693 -2.70459 2.22045e-16
      vertex 8.98026 -6.28026 2.22045e-16
      vertex 0 -2.8 2.22045e-16
    endloop
  endfacet
  facet normal 0 0 -1
    outer loop
      vertex 1.4 -2.42487 2.22045e-16
      vertex 10.9985 -3.65 2.22045e-16
      vertex 0.724693 -2.70459 2.22045e-16
    endloop
  endfacet
  facet normal 0 0 -1
    outer loop
      vertex 1.9799 -1.9799 2.22045e-16
      vertex 10.9985 -3.65 2.22045e-16
      vertex 1.4 -2.42487 2.22045e-16
    endloop
  endfacet
  facet normal 0 0 -1
    outer loop
      vertex 2.42487 -1.4 2.22045e-16
      vertex 10.9985 -3.65 2.22045e-16
      vertex 1.9799 -1.9799 2.22045e-16
    endloop
  endfacet
  facet normal 0 0 -1
    outer loop
      vertex 2.70459 -0.724693 2.22045e-16
      vertex 12.2673 -0.587002 2.22045e-16
      vertex 2.42487 -1.4 2.22045e-16
    endloop
  endfacet
  facet normal 0 0 -1
    outer loop
      vertex 2.8 0 2.22045e-16
      vertex 12.2673 -0.587002 2.22045e-16
      vertex 2.70459 -0.724693 2.22045e-16
    endloop
  endfacet
  facet normal 0 0 -1
    outer loop
      vertex 2.70459 0.724693 2.22045e-16
      vertex 12.7 2.7 2.22045e-16
      vertex 2.8 0 2.22045e-16
    endloop
  endfacet
  facet normal 0 0 -1
    outer loop
      vertex 2.42487 1.4 2.22045e-16
      vertex 12.7 2.7 2.22045e-16
      vertex 2.70459 0.724693 2.22045e-16
    endloop
  endfacet
  facet normal 0 0 -1
    outer loop
      vertex 1.9799 1.9799 2.22045e-16
      vertex 12.7 35.4 2.22045e-16
      vertex 2.42487 1.4 2.22045e-16
    endloop
  endfacet
  facet normal 0 0 -1
    outer loop
      vertex 1.4 2.42487 2.22045e-16
      vertex 12.7 35.4 2.22045e-16
      vertex 1.9799 1.9799 2.22045e-16
    endloop
  endfacet
  facet normal 0 0 -1
    outer loop
      vertex 0.724693 2.70459 2.22045e-16
      vertex 12.7 35.4 2.22045e-16
      vertex 1.4 2.42487 2.22045e-16
    endloop
  endfacet
  facet normal 0 0 -1
    outer loop
      vertex 0 2.8 2.22045e-16
      vertex 12.7 35.4 2.22045e-16
      vertex 0.724693 2.70459 2.22045e-16
    endloop
  endfacet
  facet normal 0 0 -1
    outer loop
      vertex -0.724693 2.70459 2.22045e-16
      vertex 12.7 35.4 2.22045e-16
      vertex 0 2.8 2.22045e-16
    endloop
  endfacet
  facet normal 0 0 -1
    outer loop
      vertex -12.2673 -0.587002 2.22045e-16
      vertex 12.7 35.4 2.22045e-16
      vertex -0.724693 2.70459 2.22045e-16
    endloop
  endfacet
  facet normal 0 0 -1
    outer loop
      vertex -12.2673 -0.587002 2.22045e-16
      vertex -0.724693 2.70459 2.22045e-16
      vertex -1.4 2.42487 2.22045e-16
    endloop
  endfacet
  facet normal 0 0 -1
    outer loop
      vertex -2.42487 1.4 2.22045e-16
      vertex -12.2673 -0.587002 2.22045e-16
      vertex -1.9799 1.9799 2.22045e-16
    endloop
  endfacet
  facet normal 0 0 -1
    outer loop
      vertex -2.70459 0.724693 2.22045e-16
      vertex -12.2673 -0.587002 2.22045e-16
      vertex -2.42487 1.4 2.22045e-16
    endloop
  endfacet
  facet normal 0 0 -1
    outer loop
      vertex -2.8 0 2.22045e-16
      vertex -12.2673 -0.587002 2.22045e-16
      vertex -2.70459 0.724693 2.22045e-16
    endloop
  endfacet
  facet normal 0 0 -1
    outer loop
      vertex -1.9799 1.9799 2.22045e-16
      vertex -12.2673 -0.587002 2.22045e-16
      vertex -1.4 2.42487 2.22045e-16
    endloop
  endfacet
  facet normal -1 0 0
    outer loop
      vertex -12.7 2.7 2.22045e-16
      vertex -12.7 2.7 3.6
      vertex -12.7 35.4 2.22045e-16
    endloop
  endfacet
  facet normal -1 0 0
    outer loop
      vertex -12.7 35.4 2.22045e-16
      vertex -12.7 2.7 3.6
      vertex -12.7 35.4 3.6
    endloop
  endfacet
  facet normal 0 0 1
    outer loop
      vertex -12.7 35.4 3.6
      vertex -12.7 2.7 3.6
      vertex -12.2673 -0.587002 3.6
    endloop
  endfacet
  facet normal 0 0 1
    outer loop
      vertex -8.98026 -6.28026 3.6
      vertex -12.7 35.4 3.6
      vertex -10.9985 -3.65 3.6
    endloop
  endfacet
  facet normal 0 0 1
    outer loop
      vertex -10.9985 -3.65 3.6
      vertex -12.7 35.4 3.6
      vertex -12.2673 -0.587002 3.6
    endloop
  endfacet
  facet normal 0 0 1
    outer loop
      vertex -6.35 -8.29852 3.6
      vertex -12.7 35.4 3.6
      vertex -8.98026 -6.28026 3.6
    endloop
  endfacet
  facet normal 0 0 1
    outer loop
      vertex -3.287 -9.56726 3.6
      vertex -12.7 35.4 3.6
      vertex -6.35 -8.29852 3.6
    endloop
  endfacet
  facet normal 0 0 1
    outer loop
      vertex -3.912 -1.04822 3.6
      vertex -12.7 35.4 3.6
      vertex -3.287 -9.56726 3.6
    endloop
  endfacet
  facet normal 0 0 1
    outer loop
      vertex 10.9985 -3.65 3.6
      vertex -12.7 35.4 3.6
      vertex 8.98026 -6.28026 3.6
    endloop
  endfacet
  facet normal 0 0 1
    outer loop
      vertex 12.2673 -0.587002 3.6
      vertex -12.7 35.4 3.6
      vertex 10.9985 -3.65 3.6
    endloop
  endfacet
  facet normal 0 0 1
    outer loop
      vertex 12.7 2.7 3.6
      vertex -12.7 35.4 3.6
      vertex 12.2673 -0.587002 3.6
    endloop
  endfacet
  facet normal 0 0 1
    outer loop
      vertex 12.7 35.4 3.6
      vertex -12.7 35.4 3.6
      vertex 12.7 2.7 3.6
    endloop
  endfacet
  facet normal 0 0 1
    outer loop
      vertex -3.5074 -2.025 3.6
      vertex -3.912 -1.04822 3.6
      vertex -3.287 -9.56726 3.6
    endloop
  endfacet
  facet normal 0 0 1
    outer loop
      vertex -4.05 0 3.6
      vertex -12.7 35.4 3.6
      vertex -3.912 -1.04822 3.6
    endloop
  endfacet
  facet normal 0 0 1
    outer loop
      vertex -3.912 1.04822 3.6
      vertex -12.7 35.4 3.6
      vertex -4.05 0 3.6
    endloop
  endfacet
  facet normal 0 0 1
    outer loop
      vertex -3.5074 2.025 3.6
      vertex -12.7 35.4 3.6
      vertex -3.912 1.04822 3.6
    endloop
  endfacet
  facet normal 0 0 1
    outer loop
      vertex -2.86378 -2.86378 3.6
      vertex -3.5074 -2.025 3.6
      vertex 0 -10 3.6
    endloop
  endfacet
  facet normal 0 0 1
    outer loop
      vertex -2.025 3.5074 3.6
      vertex -12.7 35.4 3.6
      vertex -2.86378 2.86378 3.6
    endloop
  endfacet
  facet normal 0 0 1
    outer loop
      vertex 0 4.05 3.6
      vertex 1.04822 3.912 3.6
      vertex -12.7 35.4 3.6
    endloop
  endfacet
  facet normal 0 0 1
    outer loop
      vertex 0 4.05 3.6
      vertex -12.7 35.4 3.6
      vertex -1.04822 3.912 3.6
    endloop
  endfacet
  facet normal 0 0 1
    outer loop
      vertex 2.025 -3.5074 3.6
      vertex 1.04822 -3.912 3.6
      vertex 3.287 -9.56726 3.6
    endloop
  endfacet
  facet normal 0 0 1
    outer loop
      vertex 3.912 1.04822 3.6
      vertex 4.05 0 3.6
      vertex 8.98026 -6.28026 3.6
    endloop
  endfacet
  facet normal 0 0 1
    outer loop
      vertex 2.025 3.5074 3.6
      vertex -12.7 35.4 3.6
      vertex 1.04822 3.912 3.6
    endloop
  endfacet
  facet normal 0 0 1
    outer loop
      vertex 3.912 -1.04822 3.6
      vertex 3.5074 -2.025 3.6
      vertex 6.35 -8.29852 3.6
    endloop
  endfacet
  facet normal 0 0 1
    outer loop
      vertex 2.86378 2.86378 3.6
      vertex -12.7 35.4 3.6
      vertex 2.025 3.5074 3.6
    endloop
  endfacet
  facet normal 0 0 1
    outer loop
      vertex 3.5074 2.025 3.6
      vertex -12.7 35.4 3.6
      vertex 2.86378 2.86378 3.6
    endloop
  endfacet
  facet normal 0 0 1
    outer loop
      vertex 8.98026 -6.28026 3.6
      vertex -12.7 35.4 3.6
      vertex 3.5074 2.025 3.6
    endloop
  endfacet
  facet normal 0 0 1
    outer loop
      vertex 3.5074 -2.025 3.6
      vertex 2.86378 -2.86378 3.6
      vertex 6.35 -8.29852 3.6
    endloop
  endfacet
  facet normal 0 0 1
    outer loop
      vertex 8.98026 -6.28026 3.6
      vertex 4.05 0 3.6
      vertex 6.35 -8.29852 3.6
    endloop
  endfacet
  facet normal 0 0 1
    outer loop
      vertex 4.05 0 3.6
      vertex 3.912 -1.04822 3.6
      vertex 6.35 -8.29852 3.6
    endloop
  endfacet
  facet normal 0 0 1
    outer loop
      vertex 1.04822 -3.912 3.6
      vertex 0 -4.05 3.6
      vertex 3.287 -9.56726 3.6
    endloop
  endfacet
  facet normal 0 0 1
    outer loop
      vertex 3.5074 2.025 3.6
      vertex 3.912 1.04822 3.6
      vertex 8.98026 -6.28026 3.6
    endloop
  endfacet
  facet normal 0 0 1
    outer loop
      vertex 6.35 -8.29852 3.6
      vertex 2.86378 -2.86378 3.6
      vertex 3.287 -9.56726 3.6
    endloop
  endfacet
  facet normal 0 0 1
    outer loop
      vertex 2.86378 -2.86378 3.6
      vertex 2.025 -3.5074 3.6
      vertex 3.287 -9.56726 3.6
    endloop
  endfacet
  facet normal 0 0 1
    outer loop
      vertex -1.04822 -3.912 3.6
      vertex -2.025 -3.5074 3.6
      vertex 0 -10 3.6
    endloop
  endfacet
  facet normal 0 0 1
    outer loop
      vertex 3.287 -9.56726 3.6
      vertex 0 -4.05 3.6
      vertex 0 -10 3.6
    endloop
  endfacet
  facet normal 0 0 1
    outer loop
      vertex 0 -4.05 3.6
      vertex -1.04822 -3.912 3.6
      vertex 0 -10 3.6
    endloop
  endfacet
  facet normal 0 0 1
    outer loop
      vertex 0 -10 3.6
      vertex -3.5074 -2.025 3.6
      vertex -3.287 -9.56726 3.6
    endloop
  endfacet
  facet normal 0 0 1
    outer loop
      vertex -2.025 -3.5074 3.6
      vertex -2.86378 -2.86378 3.6
      vertex 0 -10 3.6
    endloop
  endfacet
  facet normal 0 0 1
    outer loop
      vertex -3.5074 2.025 3.6
      vertex -2.86378 2.86378 3.6
      vertex -12.7 35.4 3.6
    endloop
  endfacet
  facet normal 0 0 1
    outer loop
      vertex -2.025 3.5074 3.6
      vertex -1.04822 3.912 3.6
      vertex -12.7 35.4 3.6
    endloop
  endfacet
  facet normal -0.92388 -0.382683 0
    outer loop
      vertex -12.2673 -0.587002 2.22045e-16
      vertex -10.9985 -3.65 2.22045e-16
      vertex -12.2673 -0.587002 3.6
    endloop
  endfacet
  facet normal -0.92388 -0.382683 0
    outer loop
      vertex -12.2673 -0.587002 3.6
      vertex -10.9985 -3.65 2.22045e-16
      vertex -10.9985 -3.65 3.6
    endloop
  endfacet
  facet normal -0.793353 -0.608762 0
    outer loop
      vertex -10.9985 -3.65 2.22045e-16
      vertex -8.98026 -6.28026 2.22045e-16
      vertex -10.9985 -3.65 3.6
    endloop
  endfacet
  facet normal -0.793353 -0.608762 0
    outer loop
      vertex -10.9985 -3.65 3.6
      vertex -8.98026 -6.28026 2.22045e-16
      vertex -8.98026 -6.28026 3.6
    endloop
  endfacet
  facet normal -0.608762 -0.793353 0
    outer loop
      vertex -8.98026 -6.28026 3.6
      vertex -8.98026 -6.28026 2.22045e-16
      vertex -6.35 -8.29852 2.22045e-16
    endloop
  endfacet
  facet normal -0.608762 -0.793353 0
    outer loop
      vertex -6.35 -8.29852 3.6
      vertex -8.98026 -6.28026 3.6
      vertex -6.35 -8.29852 2.22045e-16
    endloop
  endfacet
  facet normal -0.382683 -0.92388 0
    outer loop
      vertex -6.35 -8.29852 3.6
      vertex -6.35 -8.29852 2.22045e-16
      vertex -3.287 -9.56726 2.22045e-16
    endloop
  endfacet
  facet normal -0.382683 -0.92388 0
    outer loop
      vertex -3.287 -9.56726 3.6
      vertex -6.35 -8.29852 3.6
      vertex -3.287 -9.56726 2.22045e-16
    endloop
  endfacet
  facet normal -0.130526 -0.991445 0
    outer loop
      vertex -3.287 -9.56726 3.6
      vertex -3.287 -9.56726 2.22045e-16
      vertex 0 -10 2.22045e-16
    endloop
  endfacet
  facet normal -0.130526 -0.991445 0
    outer loop
      vertex 0 -10 3.6
      vertex -3.287 -9.56726 3.6
      vertex 0 -10 2.22045e-16
    endloop
  endfacet
  facet normal 0.130526 -0.991445 0
    outer loop
      vertex 0 -10 3.6
      vertex 0 -10 2.22045e-16
      vertex 3.287 -9.56726 2.22045e-16
    endloop
  endfacet
  facet normal 0.130526 -0.991445 0
    outer loop
      vertex 3.287 -9.56726 3.6
      vertex 0 -10 3.6
      vertex 3.287 -9.56726 2.22045e-16
    endloop
  endfacet
  facet normal 0.382683 -0.92388 0
    outer loop
      vertex 3.287 -9.56726 3.6
      vertex 3.287 -9.56726 2.22045e-16
      vertex 6.35 -8.29852 2.22045e-16
    endloop
  endfacet
  facet normal 0.382683 -0.92388 0
    outer loop
      vertex 6.35 -8.29852 3.6
      vertex 3.287 -9.56726 3.6
      vertex 6.35 -8.29852 2.22045e-16
    endloop
  endfacet
  facet normal 0.608762 -0.793353 0
    outer loop
      vertex 6.35 -8.29852 3.6
      vertex 6.35 -8.29852 2.22045e-16
      vertex 8.98026 -6.28026 2.22045e-16
    endloop
  endfacet
  facet normal 0.608762 -0.793353 0
    outer loop
      vertex 8.98026 -6.28026 3.6
      vertex 6.35 -8.29852 3.6
      vertex 8.98026 -6.28026 2.22045e-16
    endloop
  endfacet
  facet normal 0.793353 -0.608762 0
    outer loop
      vertex 8.98026 -6.28026 3.6
      vertex 8.98026 -6.28026 2.22045e-16
      vertex 10.9985 -3.65 2.22045e-16
    endloop
  endfacet
  facet normal 0.793353 -0.608762 0
    outer loop
      vertex 10.9985 -3.65 3.6
      vertex 8.98026 -6.28026 3.6
      vertex 10.9985 -3.65 2.22045e-16
    endloop
  endfacet
  facet normal 0.92388 -0.382683 0
    outer loop
      vertex 10.9985 -3.65 3.6
      vertex 10.9985 -3.65 2.22045e-16
      vertex 12.2673 -0.587002 2.22045e-16
    endloop
  endfacet
  facet normal 0.92388 -0.382683 0
    outer loop
      vertex 12.2673 -0.587002 3.6
      vertex 10.9985 -3.65 3.6
      vertex 12.2673 -0.587002 2.22045e-16
    endloop
  endfacet
  facet normal 0.991445 -0.130526 0
    outer loop
      vertex 12.2673 -0.587002 3.6
      vertex 12.2673 -0.587002 2.22045e-16
      vertex 12.7 2.7 2.22045e-16
    endloop
  endfacet
  facet normal 0.991445 -0.130526 0
    outer loop
      vertex 12.7 2.7 3.6
      vertex 12.2673 -0.587002 3.6
      vertex 12.7 2.7 2.22045e-16
    endloop
  endfacet
  facet normal 1 0 0
    outer loop
      vertex 12.7 2.7 3.6
      vertex 12.7 2.7 2.22045e-16
      vertex 12.7 35.4 2.22045e-16
    endloop
  endfacet
  facet normal 1 0 0
    outer loop
      vertex 12.7 35.4 3.6
      vertex 12.7 2.7 3.6
      vertex 12.7 35.4 2.22045e-16
    endloop
  endfacet
  facet normal 0 1 0
    outer loop
      vertex -12.7 35.4 2.22045e-16
      vertex -12.7 35.4 3.6
      vertex 12.7 35.4 2.22045e-16
    endloop
  endfacet
  facet normal 0 1 0
    outer loop
      vertex 12.7 35.4 2.22045e-16
      vertex -12.7 35.4 3.6
      vertex 12.7 35.4 3.6
    endloop
  endfacet
  facet normal 0.991445 -0.130527 0
    outer loop
      vertex -2.70459 0.724693 2.22045e-16
      vertex -2.70459 0.724693 3.1
      vertex -2.8 0 3.1
    endloop
  endfacet
  facet normal 0.991445 -0.130527 0
    outer loop
      vertex -2.8 0 2.22045e-16
      vertex -2.70459 0.724693 2.22045e-16
      vertex -2.8 0 3.1
    endloop
  endfacet
  facet normal 0.991445 0.130527 0
    outer loop
      vertex -2.8 0 3.1
      vertex -2.70459 -0.724693 3.1
      vertex -2.70459 -0.724693 2.22045e-16
    endloop
  endfacet
  facet normal 0.991445 0.130527 0
    outer loop
      vertex -2.8 0 2.22045e-16
      vertex -2.8 0 3.1
      vertex -2.70459 -0.724693 2.22045e-16
    endloop
  endfacet
  facet normal 0.92388 -0.382683 0
    outer loop
      vertex -2.42487 1.4 2.22045e-16
      vertex -2.42487 1.4 3.1
      vertex -2.70459 0.724693 3.1
    endloop
  endfacet
  facet normal 0.92388 -0.382683 0
    outer loop
      vertex -2.70459 0.724693 2.22045e-16
      vertex -2.42487 1.4 2.22045e-16
      vertex -2.70459 0.724693 3.1
    endloop
  endfacet
  facet normal 0.793353 -0.608761 0
    outer loop
      vertex -1.9799 1.9799 2.22045e-16
      vertex -1.9799 1.9799 3.1
      vertex -2.42487 1.4 3.1
    endloop
  endfacet
  facet normal 0.793353 -0.608761 0
    outer loop
      vertex -2.42487 1.4 2.22045e-16
      vertex -1.9799 1.9799 2.22045e-16
      vertex -2.42487 1.4 3.1
    endloop
  endfacet
  facet normal 0.608761 -0.793353 0
    outer loop
      vertex -1.4 2.42487 2.22045e-16
      vertex -1.4 2.42487 3.1
      vertex -1.9799 1.9799 3.1
    endloop
  endfacet
  facet normal 0.608761 -0.793353 0
    outer loop
      vertex -1.9799 1.9799 2.22045e-16
      vertex -1.4 2.42487 2.22045e-16
      vertex -1.9799 1.9799 3.1
    endloop
  endfacet
  facet normal 0.382683 -0.92388 0
    outer loop
      vertex -0.724693 2.70459 2.22045e-16
      vertex -0.724693 2.70459 3.1
      vertex -1.4 2.42487 3.1
    endloop
  endfacet
  facet normal 0.382683 -0.92388 0
    outer loop
      vertex -1.4 2.42487 2.22045e-16
      vertex -0.724693 2.70459 2.22045e-16
      vertex -1.4 2.42487 3.1
    endloop
  endfacet
  facet normal 0.130527 -0.991445 0
    outer loop
      vertex 0 2.8 2.22045e-16
      vertex 0 2.8 3.1
      vertex -0.724693 2.70459 3.1
    endloop
  endfacet
  facet normal 0.130527 -0.991445 0
    outer loop
      vertex -0.724693 2.70459 2.22045e-16
      vertex 0 2.8 2.22045e-16
      vertex -0.724693 2.70459 3.1
    endloop
  endfacet
  facet normal -0.130527 -0.991445 0
    outer loop
      vertex 0.724693 2.70459 2.22045e-16
      vertex 0.724693 2.70459 3.1
      vertex 0 2.8 3.1
    endloop
  endfacet
  facet normal -0.130527 -0.991445 0
    outer loop
      vertex 0 2.8 2.22045e-16
      vertex 0.724693 2.70459 2.22045e-16
      vertex 0 2.8 3.1
    endloop
  endfacet
  facet normal -0.382683 -0.92388 0
    outer loop
      vertex 1.4 2.42487 2.22045e-16
      vertex 1.4 2.42487 3.1
      vertex 0.724693 2.70459 3.1
    endloop
  endfacet
  facet normal -0.382683 -0.92388 0
    outer loop
      vertex 0.724693 2.70459 2.22045e-16
      vertex 1.4 2.42487 2.22045e-16
      vertex 0.724693 2.70459 3.1
    endloop
  endfacet
  facet normal -0.608761 -0.793353 0
    outer loop
      vertex 1.9799 1.9799 2.22045e-16
      vertex 1.9799 1.9799 3.1
      vertex 1.4 2.42487 3.1
    endloop
  endfacet
  facet normal -0.608761 -0.793353 0
    outer loop
      vertex 1.4 2.42487 2.22045e-16
      vertex 1.9799 1.9799 2.22045e-16
      vertex 1.4 2.42487 3.1
    endloop
  endfacet
  facet normal -0.793353 -0.608761 0
    outer loop
      vertex 2.42487 1.4 3.1
      vertex 1.9799 1.9799 3.1
      vertex 2.42487 1.4 2.22045e-16
    endloop
  endfacet
  facet normal -0.793353 -0.608761 0
    outer loop
      vertex 2.42487 1.4 2.22045e-16
      vertex 1.9799 1.9799 3.1
      vertex 1.9799 1.9799 2.22045e-16
    endloop
  endfacet
  facet normal -0.92388 -0.382683 0
    outer loop
      vertex 2.70459 0.724693 3.1
      vertex 2.42487 1.4 3.1
      vertex 2.70459 0.724693 2.22045e-16
    endloop
  endfacet
  facet normal -0.92388 -0.382683 0
    outer loop
      vertex 2.70459 0.724693 2.22045e-16
      vertex 2.42487 1.4 3.1
      vertex 2.42487 1.4 2.22045e-16
    endloop
  endfacet
  facet normal -0.991445 -0.130527 0
    outer loop
      vertex 2.8 0 3.1
      vertex 2.70459 0.724693 3.1
      vertex 2.8 0 2.22045e-16
    endloop
  endfacet
  facet normal -0.991445 -0.130527 0
    outer loop
      vertex 2.8 0 2.22045e-16
      vertex 2.70459 0.724693 3.1
      vertex 2.70459 0.724693 2.22045e-16
    endloop
  endfacet
  facet normal -0.991445 0.130527 0
    outer loop
      vertex 2.8 0 3.1
      vertex 2.8 0 2.22045e-16
      vertex 2.70459 -0.724693 3.1
    endloop
  endfacet
  facet normal -0.991445 0.130527 0
    outer loop
      vertex 2.70459 -0.724693 3.1
      vertex 2.8 0 2.22045e-16
      vertex 2.70459 -0.724693 2.22045e-16
    endloop
  endfacet
  facet normal -0.92388 0.382683 0
    outer loop
      vertex 2.70459 -0.724693 3.1
      vertex 2.70459 -0.724693 2.22045e-16
      vertex 2.42487 -1.4 3.1
    endloop
  endfacet
  facet normal -0.92388 0.382683 0
    outer loop
      vertex 2.42487 -1.4 3.1
      vertex 2.70459 -0.724693 2.22045e-16
      vertex 2.42487 -1.4 2.22045e-16
    endloop
  endfacet
  facet normal -0.793353 0.608761 0
    outer loop
      vertex 2.42487 -1.4 3.1
      vertex 2.42487 -1.4 2.22045e-16
      vertex 1.9799 -1.9799 3.1
    endloop
  endfacet
  facet normal -0.793353 0.608761 0
    outer loop
      vertex 1.9799 -1.9799 3.1
      vertex 2.42487 -1.4 2.22045e-16
      vertex 1.9799 -1.9799 2.22045e-16
    endloop
  endfacet
  facet normal -0.608761 0.793353 0
    outer loop
      vertex 1.9799 -1.9799 3.1
      vertex 1.9799 -1.9799 2.22045e-16
      vertex 1.4 -2.42487 3.1
    endloop
  endfacet
  facet normal -0.608761 0.793353 0
    outer loop
      vertex 1.4 -2.42487 3.1
      vertex 1.9799 -1.9799 2.22045e-16
      vertex 1.4 -2.42487 2.22045e-16
    endloop
  endfacet
  facet normal -0.382683 0.92388 0
    outer loop
      vertex 1.4 -2.42487 3.1
      vertex 1.4 -2.42487 2.22045e-16
      vertex 0.724693 -2.70459 3.1
    endloop
  endfacet
  facet normal -0.382683 0.92388 0
    outer loop
      vertex 0.724693 -2.70459 3.1
      vertex 1.4 -2.42487 2.22045e-16
      vertex 0.724693 -2.70459 2.22045e-16
    endloop
  endfacet
  facet normal -0.130527 0.991445 0
    outer loop
      vertex 0.724693 -2.70459 3.1
      vertex 0.724693 -2.70459 2.22045e-16
      vertex 0 -2.8 3.1
    endloop
  endfacet
  facet normal -0.130527 0.991445 0
    outer loop
      vertex 0 -2.8 3.1
      vertex 0.724693 -2.70459 2.22045e-16
      vertex 0 -2.8 2.22045e-16
    endloop
  endfacet
  facet normal 0.130527 0.991445 0
    outer loop
      vertex 0 -2.8 3.1
      vertex 0 -2.8 2.22045e-16
      vertex -0.724693 -2.70459 3.1
    endloop
  endfacet
  facet normal 0.130527 0.991445 0
    outer loop
      vertex -0.724693 -2.70459 3.1
      vertex 0 -2.8 2.22045e-16
      vertex -0.724693 -2.70459 2.22045e-16
    endloop
  endfacet
  facet normal 0.382683 0.92388 0
    outer loop
      vertex -0.724693 -2.70459 3.1
      vertex -0.724693 -2.70459 2.22045e-16
      vertex -1.4 -2.42487 3.1
    endloop
  endfacet
  facet normal 0.382683 0.92388 0
    outer loop
      vertex -1.4 -2.42487 3.1
      vertex -0.724693 -2.70459 2.22045e-16
      vertex -1.4 -2.42487 2.22045e-16
    endloop
  endfacet
  facet normal 0.608761 0.793353 0
    outer loop
      vertex -1.4 -2.42487 3.1
      vertex -1.4 -2.42487 2.22045e-16
      vertex -1.9799 -1.9799 3.1
    endloop
  endfacet
  facet normal 0.608761 0.793353 0
    outer loop
      vertex -1.9799 -1.9799 3.1
      vertex -1.4 -2.42487 2.22045e-16
      vertex -1.9799 -1.9799 2.22045e-16
    endloop
  endfacet
  facet normal 0.793353 0.608761 0
    outer loop
      vertex -2.42487 -1.4 3.1
      vertex -1.9799 -1.9799 3.1
      vertex -1.9799 -1.9799 2.22045e-16
    endloop
  endfacet
  facet normal 0.793353 0.608761 0
    outer loop
      vertex -2.42487 -1.4 2.22045e-16
      vertex -2.42487 -1.4 3.1
      vertex -1.9799 -1.9799 2.22045e-16
    endloop
  endfacet
  facet normal 0.92388 0.382683 0
    outer loop
      vertex -2.70459 -0.724693 3.1
      vertex -2.42487 -1.4 3.1
      vertex -2.42487 -1.4 2.22045e-16
    endloop
  endfacet
  facet normal 0.92388 0.382683 0
    outer loop
      vertex -2.70459 -0.724693 2.22045e-16
      vertex -2.70459 -0.724693 3.1
      vertex -2.42487 -1.4 2.22045e-16
    endloop
  endfacet
  facet normal 0.991445 0.130526 0
    outer loop
      vertex -4.05 0 3.6
      vertex -3.912 -1.04822 3.6
      vertex -3.912 -1.04822 3.1
    endloop
  endfacet
  facet normal 0.991445 0.130526 0
    outer loop
      vertex -4.05 0 3.1
      vertex -4.05 0 3.6
      vertex -3.912 -1.04822 3.1
    endloop
  endfacet
  facet normal 0.923879 0.382684 0
    outer loop
      vertex -3.912 -1.04822 3.6
      vertex -3.5074 -2.025 3.6
      vertex -3.5074 -2.025 3.1
    endloop
  endfacet
  facet normal 0.923879 0.382684 0
    outer loop
      vertex -3.912 -1.04822 3.1
      vertex -3.912 -1.04822 3.6
      vertex -3.5074 -2.025 3.1
    endloop
  endfacet
  facet normal 0.793353 0.608762 0
    outer loop
      vertex -3.5074 -2.025 3.6
      vertex -2.86378 -2.86378 3.6
      vertex -2.86378 -2.86378 3.1
    endloop
  endfacet
  facet normal 0.793353 0.608762 0
    outer loop
      vertex -3.5074 -2.025 3.1
      vertex -3.5074 -2.025 3.6
      vertex -2.86378 -2.86378 3.1
    endloop
  endfacet
  facet normal 0.608762 0.793353 0
    outer loop
      vertex -2.025 -3.5074 3.6
      vertex -2.025 -3.5074 3.1
      vertex -2.86378 -2.86378 3.6
    endloop
  endfacet
  facet normal 0.608762 0.793353 0
    outer loop
      vertex -2.86378 -2.86378 3.6
      vertex -2.025 -3.5074 3.1
      vertex -2.86378 -2.86378 3.1
    endloop
  endfacet
  facet normal 0.382684 0.923879 0
    outer loop
      vertex -1.04822 -3.912 3.6
      vertex -1.04822 -3.912 3.1
      vertex -2.025 -3.5074 3.6
    endloop
  endfacet
  facet normal 0.382684 0.923879 0
    outer loop
      vertex -2.025 -3.5074 3.6
      vertex -1.04822 -3.912 3.1
      vertex -2.025 -3.5074 3.1
    endloop
  endfacet
  facet normal 0.130526 0.991445 0
    outer loop
      vertex 0 -4.05 3.6
      vertex 0 -4.05 3.1
      vertex -1.04822 -3.912 3.6
    endloop
  endfacet
  facet normal 0.130526 0.991445 0
    outer loop
      vertex -1.04822 -3.912 3.6
      vertex 0 -4.05 3.1
      vertex -1.04822 -3.912 3.1
    endloop
  endfacet
  facet normal -0.130526 0.991445 0
    outer loop
      vertex 1.04822 -3.912 3.6
      vertex 1.04822 -3.912 3.1
      vertex 0 -4.05 3.6
    endloop
  endfacet
  facet normal -0.130526 0.991445 0
    outer loop
      vertex 0 -4.05 3.6
      vertex 1.04822 -3.912 3.1
      vertex 0 -4.05 3.1
    endloop
  endfacet
  facet normal -0.382684 0.923879 0
    outer loop
      vertex 2.025 -3.5074 3.6
      vertex 2.025 -3.5074 3.1
      vertex 1.04822 -3.912 3.6
    endloop
  endfacet
  facet normal -0.382684 0.923879 0
    outer loop
      vertex 1.04822 -3.912 3.6
      vertex 2.025 -3.5074 3.1
      vertex 1.04822 -3.912 3.1
    endloop
  endfacet
  facet normal -0.608762 0.793353 0
    outer loop
      vertex 2.86378 -2.86378 3.6
      vertex 2.86378 -2.86378 3.1
      vertex 2.025 -3.5074 3.6
    endloop
  endfacet
  facet normal -0.608762 0.793353 0
    outer loop
      vertex 2.025 -3.5074 3.6
      vertex 2.86378 -2.86378 3.1
      vertex 2.025 -3.5074 3.1
    endloop
  endfacet
  facet normal -0.793353 0.608762 0
    outer loop
      vertex 3.5074 -2.025 3.6
      vertex 3.5074 -2.025 3.1
      vertex 2.86378 -2.86378 3.6
    endloop
  endfacet
  facet normal -0.793353 0.608762 0
    outer loop
      vertex 2.86378 -2.86378 3.6
      vertex 3.5074 -2.025 3.1
      vertex 2.86378 -2.86378 3.1
    endloop
  endfacet
  facet normal -0.923879 0.382684 0
    outer loop
      vertex 3.912 -1.04822 3.6
      vertex 3.912 -1.04822 3.1
      vertex 3.5074 -2.025 3.6
    endloop
  endfacet
  facet normal -0.923879 0.382684 0
    outer loop
      vertex 3.5074 -2.025 3.6
      vertex 3.912 -1.04822 3.1
      vertex 3.5074 -2.025 3.1
    endloop
  endfacet
  facet normal -0.991445 0.130526 0
    outer loop
      vertex 4.05 0 3.6
      vertex 4.05 0 3.1
      vertex 3.912 -1.04822 3.6
    endloop
  endfacet
  facet normal -0.991445 0.130526 0
    outer loop
      vertex 3.912 -1.04822 3.6
      vertex 4.05 0 3.1
      vertex 3.912 -1.04822 3.1
    endloop
  endfacet
  facet normal -0.991445 -0.130526 0
    outer loop
      vertex 4.05 0 3.6
      vertex 3.912 1.04822 3.6
      vertex 4.05 0 3.1
    endloop
  endfacet
  facet normal -0.991445 -0.130526 0
    outer loop
      vertex 4.05 0 3.1
      vertex 3.912 1.04822 3.6
      vertex 3.912 1.04822 3.1
    endloop
  endfacet
  facet normal -0.923879 -0.382684 0
    outer loop
      vertex 3.912 1.04822 3.6
      vertex 3.5074 2.025 3.6
      vertex 3.912 1.04822 3.1
    endloop
  endfacet
  facet normal -0.923879 -0.382684 0
    outer loop
      vertex 3.912 1.04822 3.1
      vertex 3.5074 2.025 3.6
      vertex 3.5074 2.025 3.1
    endloop
  endfacet
  facet normal -0.793353 -0.608762 0
    outer loop
      vertex 3.5074 2.025 3.6
      vertex 2.86378 2.86378 3.6
      vertex 3.5074 2.025 3.1
    endloop
  endfacet
  facet normal -0.793353 -0.608762 0
    outer loop
      vertex 3.5074 2.025 3.1
      vertex 2.86378 2.86378 3.6
      vertex 2.86378 2.86378 3.1
    endloop
  endfacet
  facet normal -0.608762 -0.793353 0
    outer loop
      vertex 2.86378 2.86378 3.1
      vertex 2.86378 2.86378 3.6
      vertex 2.025 3.5074 3.6
    endloop
  endfacet
  facet normal -0.608762 -0.793353 0
    outer loop
      vertex 2.025 3.5074 3.1
      vertex 2.86378 2.86378 3.1
      vertex 2.025 3.5074 3.6
    endloop
  endfacet
  facet normal -0.382684 -0.923879 0
    outer loop
      vertex 2.025 3.5074 3.1
      vertex 2.025 3.5074 3.6
      vertex 1.04822 3.912 3.6
    endloop
  endfacet
  facet normal -0.382684 -0.923879 0
    outer loop
      vertex 1.04822 3.912 3.1
      vertex 2.025 3.5074 3.1
      vertex 1.04822 3.912 3.6
    endloop
  endfacet
  facet normal -0.130526 -0.991445 0
    outer loop
      vertex 1.04822 3.912 3.1
      vertex 1.04822 3.912 3.6
      vertex 0 4.05 3.6
    endloop
  endfacet
  facet normal -0.130526 -0.991445 0
    outer loop
      vertex 0 4.05 3.1
      vertex 1.04822 3.912 3.1
      vertex 0 4.05 3.6
    endloop
  endfacet
  facet normal 0.130526 -0.991445 0
    outer loop
      vertex 0 4.05 3.1
      vertex 0 4.05 3.6
      vertex -1.04822 3.912 3.6
    endloop
  endfacet
  facet normal 0.130526 -0.991445 0
    outer loop
      vertex -1.04822 3.912 3.1
      vertex 0 4.05 3.1
      vertex -1.04822 3.912 3.6
    endloop
  endfacet
  facet normal 0.382684 -0.923879 0
    outer loop
      vertex -1.04822 3.912 3.1
      vertex -1.04822 3.912 3.6
      vertex -2.025 3.5074 3.6
    endloop
  endfacet
  facet normal 0.382684 -0.923879 0
    outer loop
      vertex -2.025 3.5074 3.1
      vertex -1.04822 3.912 3.1
      vertex -2.025 3.5074 3.6
    endloop
  endfacet
  facet normal 0.608762 -0.793353 0
    outer loop
      vertex -2.025 3.5074 3.1
      vertex -2.025 3.5074 3.6
      vertex -2.86378 2.86378 3.6
    endloop
  endfacet
  facet normal 0.608762 -0.793353 0
    outer loop
      vertex -2.86378 2.86378 3.1
      vertex -2.025 3.5074 3.1
      vertex -2.86378 2.86378 3.6
    endloop
  endfacet
  facet normal 0.793353 -0.608762 0
    outer loop
      vertex -2.86378 2.86378 3.1
      vertex -2.86378 2.86378 3.6
      vertex -3.5074 2.025 3.6
    endloop
  endfacet
  facet normal 0.793353 -0.608762 0
    outer loop
      vertex -3.5074 2.025 3.1
      vertex -2.86378 2.86378 3.1
      vertex -3.5074 2.025 3.6
    endloop
  endfacet
  facet normal 0.923879 -0.382684 0
    outer loop
      vertex -3.5074 2.025 3.1
      vertex -3.5074 2.025 3.6
      vertex -3.912 1.04822 3.6
    endloop
  endfacet
  facet normal 0.923879 -0.382684 0
    outer loop
      vertex -3.912 1.04822 3.1
      vertex -3.5074 2.025 3.1
      vertex -3.912 1.04822 3.6
    endloop
  endfacet
  facet normal 0.991445 -0.130526 0
    outer loop
      vertex -3.912 1.04822 3.1
      vertex -3.912 1.04822 3.6
      vertex -4.05 0 3.6
    endloop
  endfacet
  facet normal 0.991445 -0.130526 0
    outer loop
      vertex -4.05 0 3.1
      vertex -3.912 1.04822 3.1
      vertex -4.05 0 3.6
    endloop
  endfacet
  facet normal 0 0 1
    outer loop
      vertex -3.912 -1.04822 3.1
      vertex -3.5074 -2.025 3.1
      vertex -2.86378 -2.86378 3.1
    endloop
  endfacet
  facet normal 0 0 1
    outer loop
      vertex -1.04822 -3.912 3.1
      vertex -3.912 -1.04822 3.1
      vertex -2.025 -3.5074 3.1
    endloop
  endfacet
  facet normal 0 0 1
    outer loop
      vertex -2.025 -3.5074 3.1
      vertex -3.912 -1.04822 3.1
      vertex -2.86378 -2.86378 3.1
    endloop
  endfacet
  facet normal 0 0 1
    outer loop
      vertex 0 -4.05 3.1
      vertex -3.912 -1.04822 3.1
      vertex -1.04822 -3.912 3.1
    endloop
  endfacet
  facet normal 0 0 1
    outer loop
      vertex 1.04822 -3.912 3.1
      vertex -3.912 -1.04822 3.1
      vertex 0 -4.05 3.1
    endloop
  endfacet
  facet normal 0 0 1
    outer loop
      vertex -1.4 -2.42487 3.1
      vertex -3.912 -1.04822 3.1
      vertex 1.04822 -3.912 3.1
    endloop
  endfacet
  facet normal 0 0 1
    outer loop
      vertex -1.4 -2.42487 3.1
      vertex -1.9799 -1.9799 3.1
      vertex -3.912 -1.04822 3.1
    endloop
  endfacet
  facet normal 0 0 1
    outer loop
      vertex 0.724693 -2.70459 3.1
      vertex 0 -2.8 3.1
      vertex 2.025 -3.5074 3.1
    endloop
  endfacet
  facet normal 0 0 1
    outer loop
      vertex 1.4 -2.42487 3.1
      vertex 0.724693 -2.70459 3.1
      vertex 2.86378 -2.86378 3.1
    endloop
  endfacet
  facet normal 0 0 1
    outer loop
      vertex 2.42487 -1.4 3.1
      vertex 1.9799 -1.9799 3.1
      vertex 3.5074 -2.025 3.1
    endloop
  endfacet
  facet normal 0 0 1
    outer loop
      vertex 2.70459 -0.724693 3.1
      vertex 2.42487 -1.4 3.1
      vertex 3.912 -1.04822 3.1
    endloop
  endfacet
  facet normal 0 0 1
    outer loop
      vertex 2.8 0 3.1
      vertex 2.70459 -0.724693 3.1
      vertex 4.05 0 3.1
    endloop
  endfacet
  facet normal 0 0 1
    outer loop
      vertex 0.724693 2.70459 3.1
      vertex 1.4 2.42487 3.1
      vertex 2.025 3.5074 3.1
    endloop
  endfacet
  facet normal 0 0 1
    outer loop
      vertex -0.724693 2.70459 3.1
      vertex 0 2.8 3.1
      vertex 1.04822 3.912 3.1
    endloop
  endfacet
  facet normal 0 0 1
    outer loop
      vertex -2.025 3.5074 3.1
      vertex -3.912 -1.04822 3.1
      vertex -1.04822 3.912 3.1
    endloop
  endfacet
  facet normal 0 0 1
    outer loop
      vertex -2.86378 2.86378 3.1
      vertex -3.912 -1.04822 3.1
      vertex -2.025 3.5074 3.1
    endloop
  endfacet
  facet normal 0 0 1
    outer loop
      vertex -3.5074 2.025 3.1
      vertex -3.912 -1.04822 3.1
      vertex -2.86378 2.86378 3.1
    endloop
  endfacet
  facet normal 0 0 1
    outer loop
      vertex -3.912 1.04822 3.1
      vertex -3.912 -1.04822 3.1
      vertex -3.5074 2.025 3.1
    endloop
  endfacet
  facet normal 0 0 1
    outer loop
      vertex -4.05 0 3.1
      vertex -3.912 -1.04822 3.1
      vertex -3.912 1.04822 3.1
    endloop
  endfacet
  facet normal 0 0 1
    outer loop
      vertex 1.4 2.42487 3.1
      vertex 1.9799 1.9799 3.1
      vertex 2.86378 2.86378 3.1
    endloop
  endfacet
  facet normal 0 0 1
    outer loop
      vertex -1.9799 -1.9799 3.1
      vertex -2.42487 -1.4 3.1
      vertex -3.912 -1.04822 3.1
    endloop
  endfacet
  facet normal 0 0 1
    outer loop
      vertex -2.42487 1.4 3.1
      vertex -3.912 -1.04822 3.1
      vertex -2.70459 0.724693 3.1
    endloop
  endfacet
  facet normal 0 0 1
    outer loop
      vertex -1.4 2.42487 3.1
      vertex -0.724693 2.70459 3.1
      vertex 0 4.05 3.1
    endloop
  endfacet
  facet normal 0 0 1
    outer loop
      vertex -1.04822 3.912 3.1
      vertex -3.912 -1.04822 3.1
      vertex -2.42487 1.4 3.1
    endloop
  endfacet
  facet normal 0 0 1
    outer loop
      vertex -1.04822 3.912 3.1
      vertex -1.9799 1.9799 3.1
      vertex 0 4.05 3.1
    endloop
  endfacet
  facet normal 0 0 1
    outer loop
      vertex -1.9799 1.9799 3.1
      vertex -1.4 2.42487 3.1
      vertex 0 4.05 3.1
    endloop
  endfacet
  facet normal 0 0 1
    outer loop
      vertex 0 4.05 3.1
      vertex -0.724693 2.70459 3.1
      vertex 1.04822 3.912 3.1
    endloop
  endfacet
  facet normal 0 0 1
    outer loop
      vertex -2.42487 1.4 3.1
      vertex -1.9799 1.9799 3.1
      vertex -1.04822 3.912 3.1
    endloop
  endfacet
  facet normal 0 0 1
    outer loop
      vertex 1.04822 3.912 3.1
      vertex 0 2.8 3.1
      vertex 2.025 3.5074 3.1
    endloop
  endfacet
  facet normal 0 0 1
    outer loop
      vertex 0 2.8 3.1
      vertex 0.724693 2.70459 3.1
      vertex 2.025 3.5074 3.1
    endloop
  endfacet
  facet normal 0 0 1
    outer loop
      vertex 2.025 3.5074 3.1
      vertex 1.4 2.42487 3.1
      vertex 2.86378 2.86378 3.1
    endloop
  endfacet
  facet normal 0 0 1
    outer loop
      vertex 2.42487 1.4 3.1
      vertex 2.70459 0.724693 3.1
      vertex 3.912 1.04822 3.1
    endloop
  endfacet
  facet normal 0 0 1
    outer loop
      vertex 2.86378 2.86378 3.1
      vertex 1.9799 1.9799 3.1
      vertex 3.5074 2.025 3.1
    endloop
  endfacet
  facet normal 0 0 1
    outer loop
      vertex -2.8 0 3.1
      vertex -2.70459 0.724693 3.1
      vertex -3.912 -1.04822 3.1
    endloop
  endfacet
  facet normal 0 0 1
    outer loop
      vertex 3.5074 2.025 3.1
      vertex 2.42487 1.4 3.1
      vertex 3.912 1.04822 3.1
    endloop
  endfacet
  facet normal 0 0 1
    outer loop
      vertex -2.42487 -1.4 3.1
      vertex -2.70459 -0.724693 3.1
      vertex -3.912 -1.04822 3.1
    endloop
  endfacet
  facet normal 0 0 1
    outer loop
      vertex 3.912 1.04822 3.1
      vertex 2.70459 0.724693 3.1
      vertex 4.05 0 3.1
    endloop
  endfacet
  facet normal 0 0 1
    outer loop
      vertex 2.70459 0.724693 3.1
      vertex 2.8 0 3.1
      vertex 4.05 0 3.1
    endloop
  endfacet
  facet normal 0 0 1
    outer loop
      vertex 4.05 0 3.1
      vertex 2.70459 -0.724693 3.1
      vertex 3.912 -1.04822 3.1
    endloop
  endfacet
  facet normal 0 0 1
    outer loop
      vertex 3.912 -1.04822 3.1
      vertex 2.42487 -1.4 3.1
      vertex 3.5074 -2.025 3.1
    endloop
  endfacet
  facet normal 0 0 1
    outer loop
      vertex 3.5074 -2.025 3.1
      vertex 1.9799 -1.9799 3.1
      vertex 2.86378 -2.86378 3.1
    endloop
  endfacet
  facet normal 0 0 1
    outer loop
      vertex 1.9799 -1.9799 3.1
      vertex 1.4 -2.42487 3.1
      vertex 2.86378 -2.86378 3.1
    endloop
  endfacet
  facet normal 0 0 1
    outer loop
      vertex 2.86378 -2.86378 3.1
      vertex 0.724693 -2.70459 3.1
      vertex 2.025 -3.5074 3.1
    endloop
  endfacet
  facet normal 0 0 1
    outer loop
      vertex 2.025 -3.5074 3.1
      vertex 0 -2.8 3.1
      vertex 1.04822 -3.912 3.1
    endloop
  endfacet
  facet normal 0 0 1
    outer loop
      vertex 0 -2.8 3.1
      vertex -0.724693 -2.70459 3.1
      vertex 1.04822 -3.912 3.1
    endloop
  endfacet
  facet normal 0 0 1
    outer loop
      vertex -0.724693 -2.70459 3.1
      vertex -1.4 -2.42487 3.1
      vertex 1.04822 -3.912 3.1
    endloop
  endfacet
  facet normal 0 0 1
    outer loop
      vertex 1.9799 1.9799 3.1
      vertex 2.42487 1.4 3.1
      vertex 3.5074 2.025 3.1
    endloop
  endfacet
  facet normal 0 0 1
    outer loop
      vertex -2.70459 -0.724693 3.1
      vertex -2.8 0 3.1
      vertex -3.912 -1.04822 3.1
    endloop
  endfacet
endsolid OpenSCAD_Model
