solid OpenSCAD_Model
  facet normal -0.414948 -0.902061 0.118759
    outer loop
      vertex -22.3307 0 4.39102
      vertex -27.6 2.3 3.45
      vertex -22.6 0 3.45
    endloop
  endfacet
  facet normal -0.414948 -0.902061 -0.118759
    outer loop
      vertex -22.6 0 3.45
      vertex -27.6 2.3 3.45
      vertex -27.6 2.37837 2.85472
    endloop
  endfacet
  facet normal -0.414948 -0.902061 -0.118759
    outer loop
      vertex -22.5162 0 3.15734
      vertex -22.6 0 3.45
      vertex -27.6 2.37837 2.85472
    endloop
  endfacet
  facet normal -1 0 0
    outer loop
      vertex -27.6 2.37837 2.85472
      vertex -27.6 2.3 3.45
      vertex -27.6 2.37837 4.04528
    endloop
  endfacet
  facet normal -1 0 0
    outer loop
      vertex -27.6 2.37837 2.85472
      vertex -27.6 2.37837 4.04528
      vertex -27.6 2.60814 4.6
    endloop
  endfacet
  facet normal -1 0 0
    outer loop
      vertex -27.6 2.37837 2.85472
      vertex -27.6 2.60814 4.6
      vertex -27.6 2.97365 5.07635
    endloop
  endfacet
  facet normal -1 0 0
    outer loop
      vertex -27.6 2.37837 2.85472
      vertex -27.6 2.97365 5.07635
      vertex -27.6 3.45 5.44186
    endloop
  endfacet
  facet normal -1 0 0
    outer loop
      vertex -27.6 2.37837 2.85472
      vertex -27.6 3.45 5.44186
      vertex -27.6 4.00472 5.67163
    endloop
  endfacet
  facet normal -1 0 0
    outer loop
      vertex -27.6 2.37837 2.85472
      vertex -27.6 4.00472 5.67163
      vertex -27.6 4.6 5.75
    endloop
  endfacet
  facet normal -1 0 0
    outer loop
      vertex -27.6 2.37837 2.85472
      vertex -27.6 4.6 5.75
      vertex -27.6 5.19528 5.67163
    endloop
  endfacet
  facet normal -1 0 0
    outer loop
      vertex -27.6 2.37837 2.85472
      vertex -27.6 5.19528 5.67163
      vertex -27.6 5.75 5.44186
    endloop
  endfacet
  facet normal -1 0 0
    outer loop
      vertex -27.6 2.37837 2.85472
      vertex -27.6 5.75 5.44186
      vertex -27.6 6.22635 5.07635
    endloop
  endfacet
  facet normal -1 0 0
    outer loop
      vertex -27.6 2.37837 2.85472
      vertex -27.6 6.22635 5.07635
      vertex -27.6 6.59186 4.6
    endloop
  endfacet
  facet normal -1 0 0
    outer loop
      vertex -27.6 2.37837 2.85472
      vertex -27.6 6.59186 4.6
      vertex -27.6 6.82163 4.04528
    endloop
  endfacet
  facet normal -1 0 0
    outer loop
      vertex -27.6 2.37837 2.85472
      vertex -27.6 6.82163 4.04528
      vertex -27.6 6.9 3.45
    endloop
  endfacet
  facet normal -1 0 0
    outer loop
      vertex -27.6 2.37837 2.85472
      vertex -27.6 6.9 3.45
      vertex -27.6 6.82163 2.85472
    endloop
  endfacet
  facet normal -1 0 0
    outer loop
      vertex -27.6 2.37837 2.85472
      vertex -27.6 6.82163 2.85472
      vertex -27.6 6.59186 2.3
    endloop
  endfacet
  facet normal -1 0 0
    outer loop
      vertex -27.6 2.37837 2.85472
      vertex -27.6 6.59186 2.3
      vertex -27.6 6.22635 1.82365
    endloop
  endfacet
  facet normal -1 0 0
    outer loop
      vertex -27.6 2.37837 2.85472
      vertex -27.6 6.22635 1.82365
      vertex -27.6 5.75 1.45814
    endloop
  endfacet
  facet normal -1 0 0
    outer loop
      vertex -27.6 2.37837 2.85472
      vertex -27.6 5.75 1.45814
      vertex -27.6 5.19528 1.22837
    endloop
  endfacet
  facet normal -1 0 0
    outer loop
      vertex -27.6 2.37837 2.85472
      vertex -27.6 5.19528 1.22837
      vertex -27.6 4.6 1.15
    endloop
  endfacet
  facet normal -1 0 0
    outer loop
      vertex -27.6 2.37837 2.85472
      vertex -27.6 4.6 1.15
      vertex -27.6 4.00472 1.22837
    endloop
  endfacet
  facet normal -1 0 0
    outer loop
      vertex -27.6 2.37837 2.85472
      vertex -27.6 4.00472 1.22837
      vertex -27.6 3.45 1.45814
    endloop
  endfacet
  facet normal -1 0 0
    outer loop
      vertex -27.6 2.37837 2.85472
      vertex -27.6 3.45 1.45814
      vertex -27.6 2.97365 1.82365
    endloop
  endfacet
  facet normal -1 0 0
    outer loop
      vertex -27.6 2.37837 2.85472
      vertex -27.6 2.97365 1.82365
      vertex -27.6 2.60814 2.3
    endloop
  endfacet
  facet normal -0.414948 -0.902061 0.118759
    outer loop
      vertex -27.6 2.37837 4.04528
      vertex -27.6 2.3 3.45
      vertex -22.3307 0 4.39102
    endloop
  endfacet
  facet normal -0.414948 -0.902061 0.118759
    outer loop
      vertex -22.2472 0 4.68257
      vertex -27.6 2.37837 4.04528
      vertex -22.3307 0 4.39102
    endloop
  endfacet
  facet normal 0 -1 0
    outer loop
      vertex -22.0187 0 1.94511
      vertex -21.053 0 0.794189
      vertex -22.3307 0 4.39102
    endloop
  endfacet
  facet normal 0 -1 0
    outer loop
      vertex -22.3307 0 4.39102
      vertex -22.6 0 3.45
      vertex -22.5162 0 3.15734
    endloop
  endfacet
  facet normal 0 -1 0
    outer loop
      vertex -22.2472 0 2.21743
      vertex -22.3307 0 4.39102
      vertex -22.5162 0 3.15734
    endloop
  endfacet
  facet normal 0 -1 0
    outer loop
      vertex -22.2472 0 2.21743
      vertex -22.0187 0 1.94511
      vertex -22.3307 0 4.39102
    endloop
  endfacet
  facet normal 0 -1 0
    outer loop
      vertex -20 0 1.8
      vertex 20 0 1.8
      vertex -22.3307 0 4.39102
    endloop
  endfacet
  facet normal 0 -1 0
    outer loop
      vertex -21.053 0 0.794189
      vertex -20.7628 0 0.576786
      vertex -22.3307 0 4.39102
    endloop
  endfacet
  facet normal 0 -1 0
    outer loop
      vertex -20.7628 0 0.576786
      vertex -20 0 0.0053186
      vertex -22.3307 0 4.39102
    endloop
  endfacet
  facet normal 0 -1 0
    outer loop
      vertex -20 0 0.0053186
      vertex -20 0 1.8
      vertex -22.3307 0 4.39102
    endloop
  endfacet
  facet normal 0 -1 0
    outer loop
      vertex 20 0 1.8
      vertex 22.2472 0 2.21743
      vertex -22.3307 0 4.39102
    endloop
  endfacet
  facet normal 0 -1 0
    outer loop
      vertex 22.5162 0 3.74266
      vertex 22.2472 0 4.68257
      vertex -22.3307 0 4.39102
    endloop
  endfacet
  facet normal 0 -1 0
    outer loop
      vertex 20 0 0.00531889
      vertex 21.053 0 0.794189
      vertex 20 0 1.8
    endloop
  endfacet
  facet normal 0 -1 0
    outer loop
      vertex 21.053 0 0.794189
      vertex 21.2643 0 1.04607
      vertex 20 0 1.8
    endloop
  endfacet
  facet normal 0 -1 0
    outer loop
      vertex 21.2643 0 1.04607
      vertex 22.2472 0 2.21743
      vertex 20 0 1.8
    endloop
  endfacet
  facet normal 0 -1 0
    outer loop
      vertex 22.2472 0 2.21743
      vertex 22.3307 0 2.50898
      vertex -22.3307 0 4.39102
    endloop
  endfacet
  facet normal 0 -1 0
    outer loop
      vertex 22.3307 0 2.50898
      vertex 22.6 0 3.45
      vertex -22.3307 0 4.39102
    endloop
  endfacet
  facet normal 0 -1 0
    outer loop
      vertex 22.6 0 3.45
      vertex 22.5162 0 3.74266
      vertex -22.3307 0 4.39102
    endloop
  endfacet
  facet normal 0 -1 0
    outer loop
      vertex 22.0187 0 4.95489
      vertex 21.053 0 6.10581
      vertex -22.3307 0 4.39102
    endloop
  endfacet
  facet normal 0 -1 0
    outer loop
      vertex 22.2472 0 4.68257
      vertex 22.0187 0 4.95489
      vertex -22.3307 0 4.39102
    endloop
  endfacet
  facet normal 0 -1 0
    outer loop
      vertex 21.053 0 6.10581
      vertex 20.7628 0 6.32321
      vertex -22.3307 0 4.39102
    endloop
  endfacet
  facet normal 0 -1 0
    outer loop
      vertex 20.7628 0 6.32321
      vertex 19.9929 0 6.9
      vertex -22.3307 0 4.39102
    endloop
  endfacet
  facet normal 0 -1 0
    outer loop
      vertex 19.9929 0 6.9
      vertex -19.9929 0 6.9
      vertex -22.3307 0 4.39102
    endloop
  endfacet
  facet normal 0 -1 0
    outer loop
      vertex -19.9929 0 6.9
      vertex -21.053 0 6.10581
      vertex -22.3307 0 4.39102
    endloop
  endfacet
  facet normal 0 -1 0
    outer loop
      vertex -21.053 0 6.10581
      vertex -21.2643 0 5.85393
      vertex -22.3307 0 4.39102
    endloop
  endfacet
  facet normal 0 -1 0
    outer loop
      vertex -21.2643 0 5.85393
      vertex -22.2472 0 4.68257
      vertex -22.3307 0 4.39102
    endloop
  endfacet
  facet normal -0.414948 -0.902061 -0.118759
    outer loop
      vertex -22.2472 0 2.21743
      vertex -22.5162 0 3.15734
      vertex -27.6 2.37837 2.85472
    endloop
  endfacet
  facet normal -0.414948 -0.840587 -0.348183
    outer loop
      vertex -22.2472 0 2.21743
      vertex -27.6 2.37837 2.85472
      vertex -27.6 2.60814 2.3
    endloop
  endfacet
  facet normal -0.414948 -0.840587 -0.348183
    outer loop
      vertex -22.0187 0 1.94511
      vertex -22.2472 0 2.21743
      vertex -27.6 2.60814 2.3
    endloop
  endfacet
  facet normal -0.414948 -0.840587 -0.348183
    outer loop
      vertex -21.053 0 0.794189
      vertex -22.0187 0 1.94511
      vertex -27.6 2.60814 2.3
    endloop
  endfacet
  facet normal -0.414948 -0.721829 -0.553877
    outer loop
      vertex -21.053 0 0.794189
      vertex -27.6 2.60814 2.3
      vertex -27.6 2.97365 1.82365
    endloop
  endfacet
  facet normal -0.414948 -0.721829 -0.553877
    outer loop
      vertex -20.7628 0 0.576786
      vertex -21.053 0 0.794189
      vertex -27.6 2.97365 1.82365
    endloop
  endfacet
  facet normal -0.414948 -0.721829 -0.553878
    outer loop
      vertex -20 0.0040811 0
      vertex -20.7628 0 0.576786
      vertex -21.9934 1.15 0
    endloop
  endfacet
  facet normal -0.414948 -0.721829 -0.553878
    outer loop
      vertex -21.9934 1.15 0
      vertex -20.7628 0 0.576786
      vertex -27.6 2.97365 1.82365
    endloop
  endfacet
  facet normal -0.414948 -0.721829 -0.553878
    outer loop
      vertex -20 0 0.0053186
      vertex -20.7628 0 0.576786
      vertex -20 0.0040811 0
    endloop
  endfacet
  facet normal -0.414948 -0.553878 -0.721829
    outer loop
      vertex -27.6 2.97365 1.82365
      vertex -27.6 3.45 1.45814
      vertex -21.9934 1.15 0
    endloop
  endfacet
  facet normal -0.414948 -0.553878 -0.721829
    outer loop
      vertex -21.9934 1.15 0
      vertex -27.6 3.45 1.45814
      vertex -22.5496 1.56669 0
    endloop
  endfacet
  facet normal -0.414948 -0.553878 -0.721829
    outer loop
      vertex -22.5496 1.56669 0
      vertex -27.6 3.45 1.45814
      vertex -23.9397 2.60814 0
    endloop
  endfacet
  facet normal -0.414948 -0.348183 -0.840587
    outer loop
      vertex -27.6 3.45 1.45814
      vertex -27.6 4.00472 1.22837
      vertex -23.9397 2.60814 0
    endloop
  endfacet
  facet normal -0.414948 -0.348183 -0.840587
    outer loop
      vertex -23.9397 2.60814 0
      vertex -27.6 4.00472 1.22837
      vertex -24.3278 3.07059 0
    endloop
  endfacet
  facet normal -0.414948 -0.348183 -0.840587
    outer loop
      vertex -24.3278 3.07059 0
      vertex -27.6 4.00472 1.22837
      vertex -24.8354 3.67558 0
    endloop
  endfacet
  facet normal -0.414948 -0.118759 -0.902061
    outer loop
      vertex -27.6 4.00472 1.22837
      vertex -27.6 4.6 1.15
      vertex -24.8354 3.67558 0
    endloop
  endfacet
  facet normal -0.414948 -0.118759 -0.902061
    outer loop
      vertex -24.8354 3.67558 0
      vertex -27.6 4.6 1.15
      vertex -24.9653 4.12949 0
    endloop
  endfacet
  facet normal -0.414948 -0.118759 -0.902061
    outer loop
      vertex -24.9653 4.12949 0
      vertex -27.6 4.6 1.15
      vertex -25.1 4.6 0
    endloop
  endfacet
  facet normal -0.414948 0.118759 -0.902061
    outer loop
      vertex -27.6 4.6 1.15
      vertex -27.6 5.19528 1.22837
      vertex -25.1 4.6 0
    endloop
  endfacet
  facet normal -0.414948 0.118759 -0.902061
    outer loop
      vertex -25.1 4.6 0
      vertex -27.6 5.19528 1.22837
      vertex -24.9744 5.03898 0
    endloop
  endfacet
  facet normal -0.414948 0.118759 -0.902061
    outer loop
      vertex -24.9744 5.03898 0
      vertex -27.6 5.19528 1.22837
      vertex -24.8354 5.52442 0
    endloop
  endfacet
  facet normal -0.414948 0.348183 -0.840587
    outer loop
      vertex -27.6 5.19528 1.22837
      vertex -27.6 5.75 1.45814
      vertex -24.8354 5.52442 0
    endloop
  endfacet
  facet normal -0.414948 0.348183 -0.840587
    outer loop
      vertex -24.8354 5.52442 0
      vertex -27.6 5.75 1.45814
      vertex -24.4797 5.94841 0
    endloop
  endfacet
  facet normal -0.414948 0.348183 -0.840587
    outer loop
      vertex -24.4797 5.94841 0
      vertex -27.6 5.75 1.45814
      vertex -23.9397 6.59186 0
    endloop
  endfacet
  facet normal -0.414948 0.553877 -0.721829
    outer loop
      vertex -27.6 5.75 1.45814
      vertex -27.6 6.22635 1.82365
      vertex -23.9397 6.59186 0
    endloop
  endfacet
  facet normal -0.414948 0.553877 -0.721829
    outer loop
      vertex -23.9397 6.59186 0
      vertex -27.6 6.22635 1.82365
      vertex -23.4069 6.99101 0
    endloop
  endfacet
  facet normal -0.414948 0.553878 -0.721829
    outer loop
      vertex -23.4069 6.99101 0
      vertex -27.6 6.22635 1.82365
      vertex -21.9934 8.05 0
    endloop
  endfacet
  facet normal -0.414948 0.721829 -0.553878
    outer loop
      vertex -27.6 6.22635 1.82365
      vertex -27.6 6.59186 2.3
      vertex -21.9934 8.05 0
    endloop
  endfacet
  facet normal -0.414948 0.721829 -0.553878
    outer loop
      vertex -21.9934 8.05 0
      vertex -27.6 6.59186 2.3
      vertex -21.4322 8.37262 0
    endloop
  endfacet
  facet normal -0.414948 0.721829 -0.553878
    outer loop
      vertex -21.4322 8.37262 0
      vertex -27.6 6.59186 2.3
      vertex -21.053 9.2 0.794189
    endloop
  endfacet
  facet normal -0.414948 0.721829 -0.553878
    outer loop
      vertex -21.4322 8.37262 0
      vertex -21.053 9.2 0.794189
      vertex -20 9.2 0.00531889
    endloop
  endfacet
  facet normal -0.414948 0.721829 -0.553878
    outer loop
      vertex -21.4322 8.37262 0
      vertex -20 9.2 0.00531889
      vertex -20 9.19592 0
    endloop
  endfacet
  facet normal -0.414948 0.840587 -0.348183
    outer loop
      vertex -27.6 6.59186 2.3
      vertex -27.6 6.82163 2.85472
      vertex -21.053 9.2 0.794189
    endloop
  endfacet
  facet normal -0.414948 0.840587 -0.348183
    outer loop
      vertex -21.053 9.2 0.794189
      vertex -27.6 6.82163 2.85472
      vertex -21.2643 9.2 1.04607
    endloop
  endfacet
  facet normal -0.414948 0.840587 -0.348183
    outer loop
      vertex -21.2643 9.2 1.04607
      vertex -27.6 6.82163 2.85472
      vertex -22.2472 9.2 2.21743
    endloop
  endfacet
  facet normal -0.414948 0.902061 -0.118759
    outer loop
      vertex -27.6 6.82163 2.85472
      vertex -27.6 6.9 3.45
      vertex -22.2472 9.2 2.21743
    endloop
  endfacet
  facet normal -0.414948 0.902061 -0.118759
    outer loop
      vertex -22.2472 9.2 2.21743
      vertex -27.6 6.9 3.45
      vertex -22.3307 9.2 2.50898
    endloop
  endfacet
  facet normal -0.414948 0.902061 -0.118759
    outer loop
      vertex -22.3307 9.2 2.50898
      vertex -27.6 6.9 3.45
      vertex -22.6 9.2 3.45
    endloop
  endfacet
  facet normal -0.414948 0.902061 0.118759
    outer loop
      vertex -27.6 6.82163 4.04528
      vertex -22.5162 9.2 3.74266
      vertex -27.6 6.9 3.45
    endloop
  endfacet
  facet normal -0.414948 0.902061 0.118759
    outer loop
      vertex -27.6 6.9 3.45
      vertex -22.5162 9.2 3.74266
      vertex -22.6 9.2 3.45
    endloop
  endfacet
  facet normal -0.414948 0.902061 0.118759
    outer loop
      vertex -27.6 6.82163 4.04528
      vertex -22.2472 9.2 4.68257
      vertex -22.5162 9.2 3.74266
    endloop
  endfacet
  facet normal -0.414948 0.840587 0.348183
    outer loop
      vertex -27.6 6.59186 4.6
      vertex -22.0187 9.2 4.95489
      vertex -27.6 6.82163 4.04528
    endloop
  endfacet
  facet normal -0.414948 0.840587 0.348183
    outer loop
      vertex -27.6 6.82163 4.04528
      vertex -22.0187 9.2 4.95489
      vertex -22.2472 9.2 4.68257
    endloop
  endfacet
  facet normal -0.414948 0.840587 0.348183
    outer loop
      vertex -27.6 6.59186 4.6
      vertex -21.053 9.2 6.10581
      vertex -22.0187 9.2 4.95489
    endloop
  endfacet
  facet normal -0.414948 0.721829 0.553877
    outer loop
      vertex -27.6 6.22635 5.07635
      vertex -20.7628 9.2 6.32321
      vertex -27.6 6.59186 4.6
    endloop
  endfacet
  facet normal -0.414948 0.721829 0.553877
    outer loop
      vertex -27.6 6.59186 4.6
      vertex -20.7628 9.2 6.32321
      vertex -21.053 9.2 6.10581
    endloop
  endfacet
  facet normal -0.414948 0.721829 0.553878
    outer loop
      vertex -27.6 6.22635 5.07635
      vertex -21.9934 8.05 6.9
      vertex -19.9929 9.2 6.9
    endloop
  endfacet
  facet normal -0.414948 0.721829 0.553878
    outer loop
      vertex -27.6 6.22635 5.07635
      vertex -19.9929 9.2 6.9
      vertex -20.7628 9.2 6.32321
    endloop
  endfacet
  facet normal -0.414948 0.553878 0.721829
    outer loop
      vertex -27.6 6.22635 5.07635
      vertex -27.6 5.75 5.44186
      vertex -22.5496 7.63331 6.9
    endloop
  endfacet
  facet normal -0.414948 0.553878 0.721829
    outer loop
      vertex -21.9934 8.05 6.9
      vertex -27.6 6.22635 5.07635
      vertex -22.5496 7.63331 6.9
    endloop
  endfacet
  facet normal -0.414948 0.553878 0.721829
    outer loop
      vertex -22.5496 7.63331 6.9
      vertex -27.6 5.75 5.44186
      vertex -23.9397 6.59186 6.9
    endloop
  endfacet
  facet normal -0.414948 0.348183 0.840587
    outer loop
      vertex -27.6 5.75 5.44186
      vertex -27.6 5.19528 5.67163
      vertex -24.3278 6.12941 6.9
    endloop
  endfacet
  facet normal -0.414948 0.348183 0.840587
    outer loop
      vertex -23.9397 6.59186 6.9
      vertex -27.6 5.75 5.44186
      vertex -24.3278 6.12941 6.9
    endloop
  endfacet
  facet normal -0.414948 0.348183 0.840587
    outer loop
      vertex -24.3278 6.12941 6.9
      vertex -27.6 5.19528 5.67163
      vertex -24.8354 5.52442 6.9
    endloop
  endfacet
  facet normal -0.414948 0.118759 0.902061
    outer loop
      vertex -27.6 5.19528 5.67163
      vertex -27.6 4.6 5.75
      vertex -24.9653 5.07051 6.9
    endloop
  endfacet
  facet normal -0.414948 0.118759 0.902061
    outer loop
      vertex -24.8354 5.52442 6.9
      vertex -27.6 5.19528 5.67163
      vertex -24.9653 5.07051 6.9
    endloop
  endfacet
  facet normal -0.414948 0.118759 0.902061
    outer loop
      vertex -24.9653 5.07051 6.9
      vertex -27.6 4.6 5.75
      vertex -25.1 4.6 6.9
    endloop
  endfacet
  facet normal -0.414948 -0.118759 0.902061
    outer loop
      vertex -27.6 4.6 5.75
      vertex -27.6 4.00472 5.67163
      vertex -24.9744 4.16102 6.9
    endloop
  endfacet
  facet normal -0.414948 -0.118759 0.902061
    outer loop
      vertex -25.1 4.6 6.9
      vertex -27.6 4.6 5.75
      vertex -24.9744 4.16102 6.9
    endloop
  endfacet
  facet normal -0.414948 -0.118759 0.902061
    outer loop
      vertex -24.9744 4.16102 6.9
      vertex -27.6 4.00472 5.67163
      vertex -24.8354 3.67558 6.9
    endloop
  endfacet
  facet normal -0.414948 -0.348183 0.840587
    outer loop
      vertex -27.6 4.00472 5.67163
      vertex -27.6 3.45 5.44186
      vertex -24.4797 3.25159 6.9
    endloop
  endfacet
  facet normal -0.414948 -0.348183 0.840587
    outer loop
      vertex -24.8354 3.67558 6.9
      vertex -27.6 4.00472 5.67163
      vertex -24.4797 3.25159 6.9
    endloop
  endfacet
  facet normal -0.414948 -0.348183 0.840587
    outer loop
      vertex -24.4797 3.25159 6.9
      vertex -27.6 3.45 5.44186
      vertex -23.9397 2.60814 6.9
    endloop
  endfacet
  facet normal -0.414948 -0.553877 0.721829
    outer loop
      vertex -27.6 3.45 5.44186
      vertex -27.6 2.97365 5.07635
      vertex -23.4069 2.20899 6.9
    endloop
  endfacet
  facet normal -0.414948 -0.553877 0.721829
    outer loop
      vertex -23.9397 2.60814 6.9
      vertex -27.6 3.45 5.44186
      vertex -23.4069 2.20899 6.9
    endloop
  endfacet
  facet normal -0.414948 -0.553878 0.721829
    outer loop
      vertex -23.4069 2.20899 6.9
      vertex -27.6 2.97365 5.07635
      vertex -21.9934 1.15 6.9
    endloop
  endfacet
  facet normal -0.414948 -0.721829 0.553878
    outer loop
      vertex -27.6 2.97365 5.07635
      vertex -27.6 2.60814 4.6
      vertex -21.4322 0.827384 6.9
    endloop
  endfacet
  facet normal -0.414948 -0.721829 0.553878
    outer loop
      vertex -21.9934 1.15 6.9
      vertex -27.6 2.97365 5.07635
      vertex -21.4322 0.827384 6.9
    endloop
  endfacet
  facet normal -0.414948 -0.721829 0.553878
    outer loop
      vertex -21.4322 0.827384 6.9
      vertex -27.6 2.60814 4.6
      vertex -19.9929 0 6.9
    endloop
  endfacet
  facet normal -0.414948 -0.721829 0.553878
    outer loop
      vertex -19.9929 0 6.9
      vertex -27.6 2.60814 4.6
      vertex -21.053 0 6.10581
    endloop
  endfacet
  facet normal -0.414948 -0.840587 0.348183
    outer loop
      vertex -27.6 2.60814 4.6
      vertex -27.6 2.37837 4.04528
      vertex -21.2643 0 5.85393
    endloop
  endfacet
  facet normal -0.414948 -0.840587 0.348183
    outer loop
      vertex -21.053 0 6.10581
      vertex -27.6 2.60814 4.6
      vertex -21.2643 0 5.85393
    endloop
  endfacet
  facet normal -0.414948 -0.840587 0.348183
    outer loop
      vertex -21.2643 0 5.85393
      vertex -27.6 2.37837 4.04528
      vertex -22.2472 0 4.68257
    endloop
  endfacet
  facet normal 0 0 1
    outer loop
      vertex -24.4797 3.25159 6.9
      vertex -23.9397 2.60814 6.9
      vertex -24.9653 5.07051 6.9
    endloop
  endfacet
  facet normal 0 0 1
    outer loop
      vertex -24.9653 5.07051 6.9
      vertex -25.1 4.6 6.9
      vertex -24.9744 4.16102 6.9
    endloop
  endfacet
  facet normal 0 0 1
    outer loop
      vertex -24.8354 3.67558 6.9
      vertex -24.9653 5.07051 6.9
      vertex -24.9744 4.16102 6.9
    endloop
  endfacet
  facet normal 0 0 1
    outer loop
      vertex -24.8354 3.67558 6.9
      vertex -24.4797 3.25159 6.9
      vertex -24.9653 5.07051 6.9
    endloop
  endfacet
  facet normal 0 0 1
    outer loop
      vertex -21.4322 0.827384 6.9
      vertex -19.9929 0 6.9
      vertex -24.9653 5.07051 6.9
    endloop
  endfacet
  facet normal 0 0 1
    outer loop
      vertex -23.9397 2.60814 6.9
      vertex -23.4069 2.20899 6.9
      vertex -24.9653 5.07051 6.9
    endloop
  endfacet
  facet normal 0 0 1
    outer loop
      vertex -23.4069 2.20899 6.9
      vertex -21.9934 1.15 6.9
      vertex -24.9653 5.07051 6.9
    endloop
  endfacet
  facet normal 0 0 1
    outer loop
      vertex -21.9934 1.15 6.9
      vertex -21.4322 0.827384 6.9
      vertex -24.9653 5.07051 6.9
    endloop
  endfacet
  facet normal 0 0 1
    outer loop
      vertex 22.5496 1.56669 6.9
      vertex 23.9397 2.60814 6.9
      vertex -24.9653 5.07051 6.9
    endloop
  endfacet
  facet normal 0 0 1
    outer loop
      vertex -19.9929 0 6.9
      vertex 19.9929 0 6.9
      vertex -24.9653 5.07051 6.9
    endloop
  endfacet
  facet normal 0 0 1
    outer loop
      vertex 19.9929 0 6.9
      vertex 21.9934 1.15 6.9
      vertex -24.9653 5.07051 6.9
    endloop
  endfacet
  facet normal 0 0 1
    outer loop
      vertex 21.9934 1.15 6.9
      vertex 22.5496 1.56669 6.9
      vertex -24.9653 5.07051 6.9
    endloop
  endfacet
  facet normal 0 0 1
    outer loop
      vertex 24.9744 5.03898 6.9
      vertex 24.8354 5.52442 6.9
      vertex -24.9653 5.07051 6.9
    endloop
  endfacet
  facet normal 0 0 1
    outer loop
      vertex 23.9397 2.60814 6.9
      vertex 24.3278 3.07059 6.9
      vertex -24.9653 5.07051 6.9
    endloop
  endfacet
  facet normal 0 0 1
    outer loop
      vertex 24.3278 3.07059 6.9
      vertex 24.8354 3.67558 6.9
      vertex -24.9653 5.07051 6.9
    endloop
  endfacet
  facet normal 0 0 1
    outer loop
      vertex 24.8354 3.67558 6.9
      vertex 24.9653 4.12949 6.9
      vertex -24.9653 5.07051 6.9
    endloop
  endfacet
  facet normal 0 0 1
    outer loop
      vertex 24.9653 4.12949 6.9
      vertex 25.1 4.6 6.9
      vertex -24.9653 5.07051 6.9
    endloop
  endfacet
  facet normal 0 0 1
    outer loop
      vertex 25.1 4.6 6.9
      vertex 24.9744 5.03898 6.9
      vertex -24.9653 5.07051 6.9
    endloop
  endfacet
  facet normal 0 0 1
    outer loop
      vertex 24.4797 5.94841 6.9
      vertex 23.9397 6.59186 6.9
      vertex -24.9653 5.07051 6.9
    endloop
  endfacet
  facet normal 0 0 1
    outer loop
      vertex 24.8354 5.52442 6.9
      vertex 24.4797 5.94841 6.9
      vertex -24.9653 5.07051 6.9
    endloop
  endfacet
  facet normal 0 0 1
    outer loop
      vertex 21.4322 8.37262 6.9
      vertex 19.9929 9.2 6.9
      vertex -24.9653 5.07051 6.9
    endloop
  endfacet
  facet normal 0 0 1
    outer loop
      vertex 23.9397 6.59186 6.9
      vertex 23.4069 6.99101 6.9
      vertex -24.9653 5.07051 6.9
    endloop
  endfacet
  facet normal 0 0 1
    outer loop
      vertex 23.4069 6.99101 6.9
      vertex 21.9934 8.05 6.9
      vertex -24.9653 5.07051 6.9
    endloop
  endfacet
  facet normal 0 0 1
    outer loop
      vertex 21.9934 8.05 6.9
      vertex 21.4322 8.37262 6.9
      vertex -24.9653 5.07051 6.9
    endloop
  endfacet
  facet normal 0 0 1
    outer loop
      vertex -22.5496 7.63331 6.9
      vertex -23.9397 6.59186 6.9
      vertex -24.9653 5.07051 6.9
    endloop
  endfacet
  facet normal 0 0 1
    outer loop
      vertex 19.9929 9.2 6.9
      vertex -19.9929 9.2 6.9
      vertex -24.9653 5.07051 6.9
    endloop
  endfacet
  facet normal 0 0 1
    outer loop
      vertex -19.9929 9.2 6.9
      vertex -21.9934 8.05 6.9
      vertex -24.9653 5.07051 6.9
    endloop
  endfacet
  facet normal 0 0 1
    outer loop
      vertex -21.9934 8.05 6.9
      vertex -22.5496 7.63331 6.9
      vertex -24.9653 5.07051 6.9
    endloop
  endfacet
  facet normal 0 0 1
    outer loop
      vertex -23.9397 6.59186 6.9
      vertex -24.3278 6.12941 6.9
      vertex -24.9653 5.07051 6.9
    endloop
  endfacet
  facet normal 0 0 1
    outer loop
      vertex -24.3278 6.12941 6.9
      vertex -24.8354 5.52442 6.9
      vertex -24.9653 5.07051 6.9
    endloop
  endfacet
  facet normal 0.414948 -0.721829 0.553878
    outer loop
      vertex 21.9934 1.15 6.9
      vertex 19.9929 0 6.9
      vertex 20.7628 0 6.32321
    endloop
  endfacet
  facet normal 0.414948 -0.721829 0.553878
    outer loop
      vertex 27.6 2.97365 5.07635
      vertex 21.9934 1.15 6.9
      vertex 20.7628 0 6.32321
    endloop
  endfacet
  facet normal 0.414948 -0.721829 0.553877
    outer loop
      vertex 27.6 2.97365 5.07635
      vertex 20.7628 0 6.32321
      vertex 21.053 0 6.10581
    endloop
  endfacet
  facet normal 0.414948 -0.721829 0.553877
    outer loop
      vertex 27.6 2.60814 4.6
      vertex 27.6 2.97365 5.07635
      vertex 21.053 0 6.10581
    endloop
  endfacet
  facet normal 0.414948 -0.840587 0.348183
    outer loop
      vertex 27.6 2.60814 4.6
      vertex 21.053 0 6.10581
      vertex 22.0187 0 4.95489
    endloop
  endfacet
  facet normal 0.414948 -0.840587 0.348183
    outer loop
      vertex 27.6 2.60814 4.6
      vertex 22.0187 0 4.95489
      vertex 22.2472 0 4.68257
    endloop
  endfacet
  facet normal 0.414948 -0.840587 0.348183
    outer loop
      vertex 27.6 2.37837 4.04528
      vertex 27.6 2.60814 4.6
      vertex 22.2472 0 4.68257
    endloop
  endfacet
  facet normal 0.414948 -0.902061 0.118759
    outer loop
      vertex 27.6 2.37837 4.04528
      vertex 22.2472 0 4.68257
      vertex 22.5162 0 3.74266
    endloop
  endfacet
  facet normal 0.414948 -0.902061 0.118759
    outer loop
      vertex 27.6 2.37837 4.04528
      vertex 22.5162 0 3.74266
      vertex 22.6 0 3.45
    endloop
  endfacet
  facet normal 0.414948 -0.902061 0.118759
    outer loop
      vertex 27.6 2.3 3.45
      vertex 27.6 2.37837 4.04528
      vertex 22.6 0 3.45
    endloop
  endfacet
  facet normal 0.414948 -0.902061 -0.118759
    outer loop
      vertex 22.6 0 3.45
      vertex 22.3307 0 2.50898
      vertex 27.6 2.3 3.45
    endloop
  endfacet
  facet normal 0.414948 -0.902061 -0.118759
    outer loop
      vertex 22.3307 0 2.50898
      vertex 22.2472 0 2.21743
      vertex 27.6 2.37837 2.85472
    endloop
  endfacet
  facet normal 0.414948 -0.902061 -0.118759
    outer loop
      vertex 27.6 2.3 3.45
      vertex 22.3307 0 2.50898
      vertex 27.6 2.37837 2.85472
    endloop
  endfacet
  facet normal 0.414948 -0.840587 -0.348183
    outer loop
      vertex 22.2472 0 2.21743
      vertex 21.2643 0 1.04607
      vertex 27.6 2.37837 2.85472
    endloop
  endfacet
  facet normal 0.414948 -0.840587 -0.348183
    outer loop
      vertex 21.2643 0 1.04607
      vertex 21.053 0 0.794189
      vertex 27.6 2.60814 2.3
    endloop
  endfacet
  facet normal 0.414948 -0.840587 -0.348183
    outer loop
      vertex 27.6 2.37837 2.85472
      vertex 21.2643 0 1.04607
      vertex 27.6 2.60814 2.3
    endloop
  endfacet
  facet normal 0.414948 -0.721829 -0.553878
    outer loop
      vertex 21.053 0 0.794189
      vertex 20 0 0.00531889
      vertex 20 0.00408132 0
    endloop
  endfacet
  facet normal 0.414948 -0.721829 -0.553878
    outer loop
      vertex 27.6 2.60814 2.3
      vertex 21.053 0 0.794189
      vertex 21.4322 0.827384 0
    endloop
  endfacet
  facet normal 0.414948 -0.721829 -0.553878
    outer loop
      vertex 21.4322 0.827384 0
      vertex 21.053 0 0.794189
      vertex 20 0.00408132 0
    endloop
  endfacet
  facet normal 1 0 0
    outer loop
      vertex 20 -22.5 1.8
      vertex 20 -22.5 -1.8
      vertex 20 22.5 -1.8
    endloop
  endfacet
  facet normal 1 0 0
    outer loop
      vertex 20 0.00408132 0
      vertex 20 -22.5 1.8
      vertex 20 22.5 -1.8
    endloop
  endfacet
  facet normal 1 0 0
    outer loop
      vertex 20 22.5 1.8
      vertex 20 9.2 1.8
      vertex 20 22.5 -1.8
    endloop
  endfacet
  facet normal 1 0 0
    outer loop
      vertex 20 9.2 1.8
      vertex 20 9.2 0.0053186
      vertex 20 22.5 -1.8
    endloop
  endfacet
  facet normal 1 0 0
    outer loop
      vertex 20 9.2 0.0053186
      vertex 20 9.19592 0
      vertex 20 22.5 -1.8
    endloop
  endfacet
  facet normal 1 0 0
    outer loop
      vertex 20 9.19592 0
      vertex 20 0.00408132 0
      vertex 20 22.5 -1.8
    endloop
  endfacet
  facet normal 1 0 0
    outer loop
      vertex 20 0 0.00531889
      vertex 20 -22.5 1.8
      vertex 20 0.00408132 0
    endloop
  endfacet
  facet normal 1 0 0
    outer loop
      vertex 20 0 0.00531889
      vertex 20 0 1.8
      vertex 20 -22.5 1.8
    endloop
  endfacet
  facet normal 0 0 1
    outer loop
      vertex -20 0 1.8
      vertex -20 -22.5 1.8
      vertex 20 -22.5 1.8
    endloop
  endfacet
  facet normal 0 0 1
    outer loop
      vertex 20 0 1.8
      vertex -20 0 1.8
      vertex 20 -22.5 1.8
    endloop
  endfacet
  facet normal -1 0 0
    outer loop
      vertex -20 -22.5 -1.8
      vertex -20 -22.5 1.8
      vertex -20 22.5 -1.8
    endloop
  endfacet
  facet normal -1 0 0
    outer loop
      vertex -20 0 0.0053186
      vertex -20 -22.5 1.8
      vertex -20 0 1.8
    endloop
  endfacet
  facet normal -1 0 0
    outer loop
      vertex -20 0.0040811 0
      vertex -20 -22.5 1.8
      vertex -20 0 0.0053186
    endloop
  endfacet
  facet normal -1 0 0
    outer loop
      vertex -20 22.5 -1.8
      vertex -20 -22.5 1.8
      vertex -20 0.0040811 0
    endloop
  endfacet
  facet normal -1 0 0
    outer loop
      vertex -20 9.2 1.8
      vertex -20 22.5 -1.8
      vertex -20 9.2 0.00531889
    endloop
  endfacet
  facet normal -1 0 0
    outer loop
      vertex -20 22.5 -1.8
      vertex -20 9.19592 0
      vertex -20 9.2 0.00531889
    endloop
  endfacet
  facet normal -1 0 0
    outer loop
      vertex -20 22.5 -1.8
      vertex -20 9.2 1.8
      vertex -20 22.5 1.8
    endloop
  endfacet
  facet normal -1 0 0
    outer loop
      vertex -20 9.19592 0
      vertex -20 22.5 -1.8
      vertex -20 0.0040811 0
    endloop
  endfacet
  facet normal 0 0 -1
    outer loop
      vertex -25.1 4.6 0
      vertex -24.9744 5.03898 0
      vertex -24.9653 4.12949 0
    endloop
  endfacet
  facet normal 0 0 -1
    outer loop
      vertex -24.9653 4.12949 0
      vertex -24.9744 5.03898 0
      vertex -24.8354 5.52442 0
    endloop
  endfacet
  facet normal 0 0 -1
    outer loop
      vertex -24.9653 4.12949 0
      vertex -24.8354 5.52442 0
      vertex -24.4797 5.94841 0
    endloop
  endfacet
  facet normal 0 0 -1
    outer loop
      vertex -24.9653 4.12949 0
      vertex -24.4797 5.94841 0
      vertex -23.9397 6.59186 0
    endloop
  endfacet
  facet normal 0 0 -1
    outer loop
      vertex -24.9653 4.12949 0
      vertex -23.9397 6.59186 0
      vertex -23.4069 6.99101 0
    endloop
  endfacet
  facet normal 0 0 -1
    outer loop
      vertex -24.9653 4.12949 0
      vertex -23.4069 6.99101 0
      vertex -21.9934 8.05 0
    endloop
  endfacet
  facet normal 0 0 -1
    outer loop
      vertex -24.9653 4.12949 0
      vertex -21.9934 8.05 0
      vertex -21.4322 8.37262 0
    endloop
  endfacet
  facet normal 0 0 -1
    outer loop
      vertex -24.9653 4.12949 0
      vertex -21.4322 8.37262 0
      vertex -20 9.19592 0
    endloop
  endfacet
  facet normal 0 0 -1
    outer loop
      vertex -24.9653 4.12949 0
      vertex -20 9.19592 0
      vertex -20 0.0040811 0
    endloop
  endfacet
  facet normal 0 0 -1
    outer loop
      vertex -24.9653 4.12949 0
      vertex -20 0.0040811 0
      vertex -21.9934 1.15 0
    endloop
  endfacet
  facet normal 0 0 -1
    outer loop
      vertex -24.9653 4.12949 0
      vertex -21.9934 1.15 0
      vertex -22.5496 1.56669 0
    endloop
  endfacet
  facet normal 0 0 -1
    outer loop
      vertex -24.9653 4.12949 0
      vertex -22.5496 1.56669 0
      vertex -23.9397 2.60814 0
    endloop
  endfacet
  facet normal 0 0 -1
    outer loop
      vertex -24.9653 4.12949 0
      vertex -23.9397 2.60814 0
      vertex -24.3278 3.07059 0
    endloop
  endfacet
  facet normal 0 0 -1
    outer loop
      vertex -24.9653 4.12949 0
      vertex -24.3278 3.07059 0
      vertex -24.8354 3.67558 0
    endloop
  endfacet
  facet normal 0 1 0
    outer loop
      vertex -22.6 9.2 3.45
      vertex -22.5162 9.2 3.74266
      vertex -22.3307 9.2 2.50898
    endloop
  endfacet
  facet normal 0 1 0
    outer loop
      vertex -22.3307 9.2 2.50898
      vertex -22.5162 9.2 3.74266
      vertex -22.2472 9.2 4.68257
    endloop
  endfacet
  facet normal 0 1 0
    outer loop
      vertex -22.3307 9.2 2.50898
      vertex -22.2472 9.2 4.68257
      vertex -22.0187 9.2 4.95489
    endloop
  endfacet
  facet normal 0 1 0
    outer loop
      vertex -22.3307 9.2 2.50898
      vertex -22.0187 9.2 4.95489
      vertex -21.053 9.2 6.10581
    endloop
  endfacet
  facet normal 0 1 0
    outer loop
      vertex -22.3307 9.2 2.50898
      vertex -21.053 9.2 6.10581
      vertex -20.7628 9.2 6.32321
    endloop
  endfacet
  facet normal 0 1 0
    outer loop
      vertex -22.3307 9.2 2.50898
      vertex -20.7628 9.2 6.32321
      vertex -19.9929 9.2 6.9
    endloop
  endfacet
  facet normal 0 1 0
    outer loop
      vertex -22.3307 9.2 2.50898
      vertex -19.9929 9.2 6.9
      vertex 19.9929 9.2 6.9
    endloop
  endfacet
  facet normal 0 1 0
    outer loop
      vertex -22.3307 9.2 2.50898
      vertex 19.9929 9.2 6.9
      vertex 21.053 9.2 6.10581
    endloop
  endfacet
  facet normal 0 1 0
    outer loop
      vertex -22.3307 9.2 2.50898
      vertex 21.053 9.2 6.10581
      vertex 21.2643 9.2 5.85393
    endloop
  endfacet
  facet normal 0 1 0
    outer loop
      vertex -22.3307 9.2 2.50898
      vertex 21.2643 9.2 5.85393
      vertex 22.2472 9.2 4.68257
    endloop
  endfacet
  facet normal 0 1 0
    outer loop
      vertex -22.3307 9.2 2.50898
      vertex 22.2472 9.2 4.68257
      vertex 22.3307 9.2 4.39102
    endloop
  endfacet
  facet normal 0 1 0
    outer loop
      vertex -22.3307 9.2 2.50898
      vertex 22.3307 9.2 4.39102
      vertex 22.6 9.2 3.45
    endloop
  endfacet
  facet normal 0 1 0
    outer loop
      vertex -22.3307 9.2 2.50898
      vertex 22.6 9.2 3.45
      vertex 22.5162 9.2 3.15734
    endloop
  endfacet
  facet normal 0 1 0
    outer loop
      vertex -22.3307 9.2 2.50898
      vertex 22.5162 9.2 3.15734
      vertex 22.2472 9.2 2.21743
    endloop
  endfacet
  facet normal 0 1 0
    outer loop
      vertex -22.3307 9.2 2.50898
      vertex 22.2472 9.2 2.21743
      vertex 22.0187 9.2 1.94511
    endloop
  endfacet
  facet normal 0 1 0
    outer loop
      vertex 20 9.2 1.8
      vertex 22.0187 9.2 1.94511
      vertex 21.053 9.2 0.794189
    endloop
  endfacet
  facet normal 0 1 0
    outer loop
      vertex -22.3307 9.2 2.50898
      vertex 22.0187 9.2 1.94511
      vertex 20 9.2 1.8
    endloop
  endfacet
  facet normal 0 1 0
    outer loop
      vertex -20 9.2 1.8
      vertex -22.3307 9.2 2.50898
      vertex 20 9.2 1.8
    endloop
  endfacet
  facet normal 0 1 0
    outer loop
      vertex -22.3307 9.2 2.50898
      vertex -20 9.2 1.8
      vertex -20 9.2 0.00531889
    endloop
  endfacet
  facet normal 0 1 0
    outer loop
      vertex -22.3307 9.2 2.50898
      vertex -20 9.2 0.00531889
      vertex -21.053 9.2 0.794189
    endloop
  endfacet
  facet normal 0 1 0
    outer loop
      vertex -22.3307 9.2 2.50898
      vertex -21.053 9.2 0.794189
      vertex -21.2643 9.2 1.04607
    endloop
  endfacet
  facet normal 0 1 0
    outer loop
      vertex -22.3307 9.2 2.50898
      vertex -21.2643 9.2 1.04607
      vertex -22.2472 9.2 2.21743
    endloop
  endfacet
  facet normal 0 1 0
    outer loop
      vertex 20 9.2 1.8
      vertex 21.053 9.2 0.794189
      vertex 20.7628 9.2 0.576786
    endloop
  endfacet
  facet normal 0 1 0
    outer loop
      vertex 20 9.2 1.8
      vertex 20.7628 9.2 0.576786
      vertex 20 9.2 0.0053186
    endloop
  endfacet
  facet normal 0.414948 0.721829 0.553878
    outer loop
      vertex 19.9929 9.2 6.9
      vertex 21.4322 8.37262 6.9
      vertex 21.053 9.2 6.10581
    endloop
  endfacet
  facet normal 0.414948 0.721829 0.553878
    outer loop
      vertex 21.053 9.2 6.10581
      vertex 21.4322 8.37262 6.9
      vertex 27.6 6.59186 4.6
    endloop
  endfacet
  facet normal 0.414948 0.721829 0.553878
    outer loop
      vertex 21.4322 8.37262 6.9
      vertex 21.9934 8.05 6.9
      vertex 27.6 6.59186 4.6
    endloop
  endfacet
  facet normal 0.414948 0.721829 0.553878
    outer loop
      vertex 27.6 6.59186 4.6
      vertex 21.9934 8.05 6.9
      vertex 27.6 6.22635 5.07635
    endloop
  endfacet
  facet normal 0.414948 0.553878 0.721829
    outer loop
      vertex 27.6 6.22635 5.07635
      vertex 21.9934 8.05 6.9
      vertex 23.4069 6.99101 6.9
    endloop
  endfacet
  facet normal 0.414948 0.553877 0.721829
    outer loop
      vertex 27.6 6.22635 5.07635
      vertex 23.4069 6.99101 6.9
      vertex 23.9397 6.59186 6.9
    endloop
  endfacet
  facet normal 0.414948 0.553877 0.721829
    outer loop
      vertex 27.6 5.75 5.44186
      vertex 27.6 6.22635 5.07635
      vertex 23.9397 6.59186 6.9
    endloop
  endfacet
  facet normal 0.414948 0.348183 0.840587
    outer loop
      vertex 27.6 5.75 5.44186
      vertex 23.9397 6.59186 6.9
      vertex 24.4797 5.94841 6.9
    endloop
  endfacet
  facet normal 0.414948 0.348183 0.840587
    outer loop
      vertex 27.6 5.75 5.44186
      vertex 24.4797 5.94841 6.9
      vertex 24.8354 5.52442 6.9
    endloop
  endfacet
  facet normal 0.414948 0.348183 0.840587
    outer loop
      vertex 27.6 5.19528 5.67163
      vertex 27.6 5.75 5.44186
      vertex 24.8354 5.52442 6.9
    endloop
  endfacet
  facet normal 0.414948 0.118759 0.902061
    outer loop
      vertex 27.6 5.19528 5.67163
      vertex 24.8354 5.52442 6.9
      vertex 24.9744 5.03898 6.9
    endloop
  endfacet
  facet normal 0.414948 0.118759 0.902061
    outer loop
      vertex 27.6 5.19528 5.67163
      vertex 24.9744 5.03898 6.9
      vertex 25.1 4.6 6.9
    endloop
  endfacet
  facet normal 0.414948 0.118759 0.902061
    outer loop
      vertex 27.6 4.6 5.75
      vertex 27.6 5.19528 5.67163
      vertex 25.1 4.6 6.9
    endloop
  endfacet
  facet normal 0.414948 -0.118759 0.902061
    outer loop
      vertex 25.1 4.6 6.9
      vertex 24.9653 4.12949 6.9
      vertex 27.6 4.6 5.75
    endloop
  endfacet
  facet normal 0.414948 -0.118759 0.902061
    outer loop
      vertex 24.9653 4.12949 6.9
      vertex 24.8354 3.67558 6.9
      vertex 27.6 4.00472 5.67163
    endloop
  endfacet
  facet normal 0.414948 -0.118759 0.902061
    outer loop
      vertex 27.6 4.6 5.75
      vertex 24.9653 4.12949 6.9
      vertex 27.6 4.00472 5.67163
    endloop
  endfacet
  facet normal 0.414948 -0.348183 0.840587
    outer loop
      vertex 24.8354 3.67558 6.9
      vertex 24.3278 3.07059 6.9
      vertex 27.6 4.00472 5.67163
    endloop
  endfacet
  facet normal 0.414948 -0.348183 0.840587
    outer loop
      vertex 24.3278 3.07059 6.9
      vertex 23.9397 2.60814 6.9
      vertex 27.6 3.45 5.44186
    endloop
  endfacet
  facet normal 0.414948 -0.348183 0.840587
    outer loop
      vertex 27.6 4.00472 5.67163
      vertex 24.3278 3.07059 6.9
      vertex 27.6 3.45 5.44186
    endloop
  endfacet
  facet normal 0.414948 -0.553878 0.721829
    outer loop
      vertex 23.9397 2.60814 6.9
      vertex 22.5496 1.56669 6.9
      vertex 27.6 3.45 5.44186
    endloop
  endfacet
  facet normal 0.414948 -0.553878 0.721829
    outer loop
      vertex 22.5496 1.56669 6.9
      vertex 21.9934 1.15 6.9
      vertex 27.6 2.97365 5.07635
    endloop
  endfacet
  facet normal 0.414948 -0.553878 0.721829
    outer loop
      vertex 27.6 3.45 5.44186
      vertex 22.5496 1.56669 6.9
      vertex 27.6 2.97365 5.07635
    endloop
  endfacet
  facet normal 1 0 0
    outer loop
      vertex 27.6 2.37837 2.85472
      vertex 27.6 2.37837 4.04528
      vertex 27.6 2.3 3.45
    endloop
  endfacet
  facet normal 1 0 0
    outer loop
      vertex 27.6 2.60814 2.3
      vertex 27.6 2.37837 4.04528
      vertex 27.6 2.37837 2.85472
    endloop
  endfacet
  facet normal 1 0 0
    outer loop
      vertex 27.6 2.97365 1.82365
      vertex 27.6 2.37837 4.04528
      vertex 27.6 2.60814 2.3
    endloop
  endfacet
  facet normal 1 0 0
    outer loop
      vertex 27.6 3.45 1.45814
      vertex 27.6 2.37837 4.04528
      vertex 27.6 2.97365 1.82365
    endloop
  endfacet
  facet normal 1 0 0
    outer loop
      vertex 27.6 4.00472 1.22837
      vertex 27.6 2.37837 4.04528
      vertex 27.6 3.45 1.45814
    endloop
  endfacet
  facet normal 1 0 0
    outer loop
      vertex 27.6 4.6 1.15
      vertex 27.6 2.37837 4.04528
      vertex 27.6 4.00472 1.22837
    endloop
  endfacet
  facet normal 1 0 0
    outer loop
      vertex 27.6 5.19528 1.22837
      vertex 27.6 2.37837 4.04528
      vertex 27.6 4.6 1.15
    endloop
  endfacet
  facet normal 1 0 0
    outer loop
      vertex 27.6 5.75 1.45814
      vertex 27.6 2.37837 4.04528
      vertex 27.6 5.19528 1.22837
    endloop
  endfacet
  facet normal 1 0 0
    outer loop
      vertex 27.6 6.22635 1.82365
      vertex 27.6 2.37837 4.04528
      vertex 27.6 5.75 1.45814
    endloop
  endfacet
  facet normal 1 0 0
    outer loop
      vertex 27.6 6.59186 2.3
      vertex 27.6 2.37837 4.04528
      vertex 27.6 6.22635 1.82365
    endloop
  endfacet
  facet normal 1 0 0
    outer loop
      vertex 27.6 6.82163 2.85472
      vertex 27.6 2.37837 4.04528
      vertex 27.6 6.59186 2.3
    endloop
  endfacet
  facet normal 1 0 0
    outer loop
      vertex 27.6 6.9 3.45
      vertex 27.6 2.37837 4.04528
      vertex 27.6 6.82163 2.85472
    endloop
  endfacet
  facet normal 1 0 0
    outer loop
      vertex 27.6 6.82163 4.04528
      vertex 27.6 2.37837 4.04528
      vertex 27.6 6.9 3.45
    endloop
  endfacet
  facet normal 1 0 0
    outer loop
      vertex 27.6 6.59186 4.6
      vertex 27.6 2.37837 4.04528
      vertex 27.6 6.82163 4.04528
    endloop
  endfacet
  facet normal 1 0 0
    outer loop
      vertex 27.6 6.22635 5.07635
      vertex 27.6 2.37837 4.04528
      vertex 27.6 6.59186 4.6
    endloop
  endfacet
  facet normal 1 0 0
    outer loop
      vertex 27.6 5.75 5.44186
      vertex 27.6 2.37837 4.04528
      vertex 27.6 6.22635 5.07635
    endloop
  endfacet
  facet normal 1 0 0
    outer loop
      vertex 27.6 5.19528 5.67163
      vertex 27.6 2.37837 4.04528
      vertex 27.6 5.75 5.44186
    endloop
  endfacet
  facet normal 1 0 0
    outer loop
      vertex 27.6 4.6 5.75
      vertex 27.6 2.37837 4.04528
      vertex 27.6 5.19528 5.67163
    endloop
  endfacet
  facet normal 1 0 0
    outer loop
      vertex 27.6 4.00472 5.67163
      vertex 27.6 2.37837 4.04528
      vertex 27.6 4.6 5.75
    endloop
  endfacet
  facet normal 1 0 0
    outer loop
      vertex 27.6 3.45 5.44186
      vertex 27.6 2.37837 4.04528
      vertex 27.6 4.00472 5.67163
    endloop
  endfacet
  facet normal 1 0 0
    outer loop
      vertex 27.6 2.97365 5.07635
      vertex 27.6 2.37837 4.04528
      vertex 27.6 3.45 5.44186
    endloop
  endfacet
  facet normal 1 0 0
    outer loop
      vertex 27.6 2.60814 4.6
      vertex 27.6 2.37837 4.04528
      vertex 27.6 2.97365 5.07635
    endloop
  endfacet
  facet normal 0.414948 -0.721829 -0.553878
    outer loop
      vertex 27.6 2.60814 2.3
      vertex 21.4322 0.827384 0
      vertex 21.9934 1.15 0
    endloop
  endfacet
  facet normal 0.414948 -0.721829 -0.553878
    outer loop
      vertex 27.6 2.97365 1.82365
      vertex 27.6 2.60814 2.3
      vertex 21.9934 1.15 0
    endloop
  endfacet
  facet normal 0 0 -1
    outer loop
      vertex 20 0.00408132 0
      vertex 20 9.19592 0
      vertex 21.4322 0.827384 0
    endloop
  endfacet
  facet normal 0 0 -1
    outer loop
      vertex 21.4322 0.827384 0
      vertex 20 9.19592 0
      vertex 21.9934 8.05 0
    endloop
  endfacet
  facet normal 0 0 -1
    outer loop
      vertex 21.4322 0.827384 0
      vertex 21.9934 8.05 0
      vertex 22.5496 7.63331 0
    endloop
  endfacet
  facet normal 0 0 -1
    outer loop
      vertex 21.4322 0.827384 0
      vertex 22.5496 7.63331 0
      vertex 23.9397 6.59186 0
    endloop
  endfacet
  facet normal 0 0 -1
    outer loop
      vertex 21.4322 0.827384 0
      vertex 23.9397 6.59186 0
      vertex 24.3278 6.12941 0
    endloop
  endfacet
  facet normal 0 0 -1
    outer loop
      vertex 21.4322 0.827384 0
      vertex 24.3278 6.12941 0
      vertex 24.8354 5.52442 0
    endloop
  endfacet
  facet normal 0 0 -1
    outer loop
      vertex 21.4322 0.827384 0
      vertex 24.8354 5.52442 0
      vertex 24.9653 5.07051 0
    endloop
  endfacet
  facet normal 0 0 -1
    outer loop
      vertex 21.4322 0.827384 0
      vertex 24.9653 5.07051 0
      vertex 25.1 4.6 0
    endloop
  endfacet
  facet normal 0 0 -1
    outer loop
      vertex 21.4322 0.827384 0
      vertex 25.1 4.6 0
      vertex 24.9744 4.16102 0
    endloop
  endfacet
  facet normal 0 0 -1
    outer loop
      vertex 21.4322 0.827384 0
      vertex 24.9744 4.16102 0
      vertex 24.8354 3.67558 0
    endloop
  endfacet
  facet normal 0 0 -1
    outer loop
      vertex 21.4322 0.827384 0
      vertex 24.8354 3.67558 0
      vertex 24.4797 3.25159 0
    endloop
  endfacet
  facet normal 0 0 -1
    outer loop
      vertex 21.4322 0.827384 0
      vertex 24.4797 3.25159 0
      vertex 23.9397 2.60814 0
    endloop
  endfacet
  facet normal 0 0 -1
    outer loop
      vertex 21.4322 0.827384 0
      vertex 23.9397 2.60814 0
      vertex 23.4069 2.20899 0
    endloop
  endfacet
  facet normal 0 0 -1
    outer loop
      vertex 21.4322 0.827384 0
      vertex 23.4069 2.20899 0
      vertex 21.9934 1.15 0
    endloop
  endfacet
  facet normal 0 -1 0
    outer loop
      vertex -20 -22.5 1.8
      vertex -20 -22.5 -1.8
      vertex 20 -22.5 -1.8
    endloop
  endfacet
  facet normal 0 -1 0
    outer loop
      vertex 20 -22.5 1.8
      vertex -20 -22.5 1.8
      vertex 20 -22.5 -1.8
    endloop
  endfacet
  facet normal 0.414948 0.721829 -0.553878
    outer loop
      vertex 20 9.19592 0
      vertex 20 9.2 0.0053186
      vertex 21.9934 8.05 0
    endloop
  endfacet
  facet normal 0.414948 0.721829 -0.553878
    outer loop
      vertex 21.9934 8.05 0
      vertex 20 9.2 0.0053186
      vertex 20.7628 9.2 0.576786
    endloop
  endfacet
  facet normal 0.414948 0.721829 -0.553878
    outer loop
      vertex 21.9934 8.05 0
      vertex 20.7628 9.2 0.576786
      vertex 27.6 6.22635 1.82365
    endloop
  endfacet
  facet normal 0 0 1
    outer loop
      vertex -20 22.5 1.8
      vertex -20 9.2 1.8
      vertex 20 9.2 1.8
    endloop
  endfacet
  facet normal 0 0 1
    outer loop
      vertex 20 22.5 1.8
      vertex -20 22.5 1.8
      vertex 20 9.2 1.8
    endloop
  endfacet
  facet normal 0 1 0
    outer loop
      vertex -20 22.5 -1.8
      vertex -20 22.5 1.8
      vertex 20 22.5 -1.8
    endloop
  endfacet
  facet normal 0 1 0
    outer loop
      vertex 20 22.5 -1.8
      vertex -20 22.5 1.8
      vertex 20 22.5 1.8
    endloop
  endfacet
  facet normal 0 0 -1
    outer loop
      vertex -20 -22.5 -1.8
      vertex -20 22.5 -1.8
      vertex 20 -22.5 -1.8
    endloop
  endfacet
  facet normal 0 0 -1
    outer loop
      vertex 20 -22.5 -1.8
      vertex -20 22.5 -1.8
      vertex 20 22.5 -1.8
    endloop
  endfacet
  facet normal 0.414948 0.721829 -0.553877
    outer loop
      vertex 20.7628 9.2 0.576786
      vertex 21.053 9.2 0.794189
      vertex 27.6 6.22635 1.82365
    endloop
  endfacet
  facet normal 0.414948 0.721829 -0.553877
    outer loop
      vertex 27.6 6.22635 1.82365
      vertex 21.053 9.2 0.794189
      vertex 27.6 6.59186 2.3
    endloop
  endfacet
  facet normal 0.414948 0.840587 -0.348183
    outer loop
      vertex 21.053 9.2 0.794189
      vertex 22.0187 9.2 1.94511
      vertex 27.6 6.59186 2.3
    endloop
  endfacet
  facet normal 0.414948 0.840587 -0.348183
    outer loop
      vertex 22.0187 9.2 1.94511
      vertex 22.2472 9.2 2.21743
      vertex 27.6 6.59186 2.3
    endloop
  endfacet
  facet normal 0.414948 0.840587 -0.348183
    outer loop
      vertex 27.6 6.59186 2.3
      vertex 22.2472 9.2 2.21743
      vertex 27.6 6.82163 2.85472
    endloop
  endfacet
  facet normal 0.414948 0.902061 -0.118759
    outer loop
      vertex 22.2472 9.2 2.21743
      vertex 22.5162 9.2 3.15734
      vertex 27.6 6.82163 2.85472
    endloop
  endfacet
  facet normal 0.414948 0.902061 -0.118759
    outer loop
      vertex 22.5162 9.2 3.15734
      vertex 22.6 9.2 3.45
      vertex 27.6 6.82163 2.85472
    endloop
  endfacet
  facet normal 0.414948 0.902061 -0.118759
    outer loop
      vertex 27.6 6.82163 2.85472
      vertex 22.6 9.2 3.45
      vertex 27.6 6.9 3.45
    endloop
  endfacet
  facet normal 0.414948 0.902061 0.118759
    outer loop
      vertex 22.3307 9.2 4.39102
      vertex 27.6 6.9 3.45
      vertex 22.6 9.2 3.45
    endloop
  endfacet
  facet normal 0.414948 0.902061 0.118759
    outer loop
      vertex 22.2472 9.2 4.68257
      vertex 27.6 6.82163 4.04528
      vertex 22.3307 9.2 4.39102
    endloop
  endfacet
  facet normal 0.414948 0.902061 0.118759
    outer loop
      vertex 22.3307 9.2 4.39102
      vertex 27.6 6.82163 4.04528
      vertex 27.6 6.9 3.45
    endloop
  endfacet
  facet normal 0.414948 0.840587 0.348183
    outer loop
      vertex 21.2643 9.2 5.85393
      vertex 27.6 6.82163 4.04528
      vertex 22.2472 9.2 4.68257
    endloop
  endfacet
  facet normal 0.414948 0.840587 0.348183
    outer loop
      vertex 21.053 9.2 6.10581
      vertex 27.6 6.59186 4.6
      vertex 21.2643 9.2 5.85393
    endloop
  endfacet
  facet normal 0.414948 0.840587 0.348183
    outer loop
      vertex 21.2643 9.2 5.85393
      vertex 27.6 6.59186 4.6
      vertex 27.6 6.82163 4.04528
    endloop
  endfacet
  facet normal 0.414948 0.553878 -0.721829
    outer loop
      vertex 21.9934 8.05 0
      vertex 27.6 6.22635 1.82365
      vertex 22.5496 7.63331 0
    endloop
  endfacet
  facet normal 0.414948 0.553878 -0.721829
    outer loop
      vertex 22.5496 7.63331 0
      vertex 27.6 6.22635 1.82365
      vertex 27.6 5.75 1.45814
    endloop
  endfacet
  facet normal 0.414948 0.553878 -0.721829
    outer loop
      vertex 22.5496 7.63331 0
      vertex 27.6 5.75 1.45814
      vertex 23.9397 6.59186 0
    endloop
  endfacet
  facet normal 0.414948 0.348183 -0.840587
    outer loop
      vertex 23.9397 6.59186 0
      vertex 27.6 5.75 1.45814
      vertex 24.3278 6.12941 0
    endloop
  endfacet
  facet normal 0.414948 0.348183 -0.840587
    outer loop
      vertex 24.3278 6.12941 0
      vertex 27.6 5.75 1.45814
      vertex 27.6 5.19528 1.22837
    endloop
  endfacet
  facet normal 0.414948 0.348183 -0.840587
    outer loop
      vertex 24.3278 6.12941 0
      vertex 27.6 5.19528 1.22837
      vertex 24.8354 5.52442 0
    endloop
  endfacet
  facet normal 0.414948 0.118759 -0.902061
    outer loop
      vertex 24.8354 5.52442 0
      vertex 27.6 5.19528 1.22837
      vertex 24.9653 5.07051 0
    endloop
  endfacet
  facet normal 0.414948 0.118759 -0.902061
    outer loop
      vertex 24.9653 5.07051 0
      vertex 27.6 5.19528 1.22837
      vertex 27.6 4.6 1.15
    endloop
  endfacet
  facet normal 0.414948 0.118759 -0.902061
    outer loop
      vertex 24.9653 5.07051 0
      vertex 27.6 4.6 1.15
      vertex 25.1 4.6 0
    endloop
  endfacet
  facet normal 0.414948 -0.118759 -0.902061
    outer loop
      vertex 24.9744 4.16102 0
      vertex 25.1 4.6 0
      vertex 27.6 4.00472 1.22837
    endloop
  endfacet
  facet normal 0.414948 -0.118759 -0.902061
    outer loop
      vertex 27.6 4.00472 1.22837
      vertex 25.1 4.6 0
      vertex 27.6 4.6 1.15
    endloop
  endfacet
  facet normal 0.414948 -0.118759 -0.902061
    outer loop
      vertex 24.8354 3.67558 0
      vertex 24.9744 4.16102 0
      vertex 27.6 4.00472 1.22837
    endloop
  endfacet
  facet normal 0.414948 -0.348183 -0.840587
    outer loop
      vertex 24.4797 3.25159 0
      vertex 24.8354 3.67558 0
      vertex 27.6 3.45 1.45814
    endloop
  endfacet
  facet normal 0.414948 -0.348183 -0.840587
    outer loop
      vertex 27.6 3.45 1.45814
      vertex 24.8354 3.67558 0
      vertex 27.6 4.00472 1.22837
    endloop
  endfacet
  facet normal 0.414948 -0.348183 -0.840587
    outer loop
      vertex 23.9397 2.60814 0
      vertex 24.4797 3.25159 0
      vertex 27.6 3.45 1.45814
    endloop
  endfacet
  facet normal 0.414948 -0.553877 -0.721829
    outer loop
      vertex 23.4069 2.20899 0
      vertex 23.9397 2.60814 0
      vertex 27.6 2.97365 1.82365
    endloop
  endfacet
  facet normal 0.414948 -0.553877 -0.721829
    outer loop
      vertex 27.6 2.97365 1.82365
      vertex 23.9397 2.60814 0
      vertex 27.6 3.45 1.45814
    endloop
  endfacet
  facet normal 0.414948 -0.553878 -0.721829
    outer loop
      vertex 21.9934 1.15 0
      vertex 23.4069 2.20899 0
      vertex 27.6 2.97365 1.82365
    endloop
  endfacet
  facet normal -1 0 -2.22045e-16
    outer loop
      vertex -25.6 4.6 5.45
      vertex -25.6 5.11764 5.38185
      vertex -25.6 4.08236 5.38185
    endloop
  endfacet
  facet normal -1 0 -2.22045e-16
    outer loop
      vertex -25.6 4.08236 5.38185
      vertex -25.6 5.11764 5.38185
      vertex -25.6 5.6 5.18205
    endloop
  endfacet
  facet normal -1 0 -2.22045e-16
    outer loop
      vertex -25.6 4.08236 5.38185
      vertex -25.6 5.6 5.18205
      vertex -25.6 6.01421 4.86421
    endloop
  endfacet
  facet normal -1 0 -2.22045e-16
    outer loop
      vertex -25.6 4.08236 5.38185
      vertex -25.6 6.01421 4.86421
      vertex -25.6 6.33205 4.45
    endloop
  endfacet
  facet normal -1 0 -2.22045e-16
    outer loop
      vertex -25.6 4.08236 5.38185
      vertex -25.6 6.33205 4.45
      vertex -25.6 6.53185 3.96764
    endloop
  endfacet
  facet normal -1 0 -2.22045e-16
    outer loop
      vertex -25.6 4.08236 5.38185
      vertex -25.6 6.53185 3.96764
      vertex -25.6 6.6 3.45
    endloop
  endfacet
  facet normal -1 0 -2.22045e-16
    outer loop
      vertex -25.6 4.08236 5.38185
      vertex -25.6 6.6 3.45
      vertex -25.6 6.53185 2.93236
    endloop
  endfacet
  facet normal -1 0 -2.22045e-16
    outer loop
      vertex -25.6 4.08236 5.38185
      vertex -25.6 6.53185 2.93236
      vertex -25.6 6.33205 2.45
    endloop
  endfacet
  facet normal -1 0 -2.22045e-16
    outer loop
      vertex -25.6 4.08236 5.38185
      vertex -25.6 6.33205 2.45
      vertex -25.6 6.01421 2.03579
    endloop
  endfacet
  facet normal -1 0 -2.22045e-16
    outer loop
      vertex -25.6 4.08236 5.38185
      vertex -25.6 6.01421 2.03579
      vertex -25.6 5.6 1.71795
    endloop
  endfacet
  facet normal -1 0 -2.22045e-16
    outer loop
      vertex -25.6 4.08236 5.38185
      vertex -25.6 5.6 1.71795
      vertex -25.6 5.11764 1.51815
    endloop
  endfacet
  facet normal -1 0 -2.22045e-16
    outer loop
      vertex -25.6 4.08236 5.38185
      vertex -25.6 5.11764 1.51815
      vertex -25.6 4.6 1.45
    endloop
  endfacet
  facet normal -1 0 -2.22045e-16
    outer loop
      vertex -25.6 4.08236 5.38185
      vertex -25.6 4.6 1.45
      vertex -25.6 4.08236 1.51815
    endloop
  endfacet
  facet normal -1 0 -2.22045e-16
    outer loop
      vertex -25.6 4.08236 5.38185
      vertex -25.6 4.08236 1.51815
      vertex -25.6 3.6 1.71795
    endloop
  endfacet
  facet normal -1 0 -2.22045e-16
    outer loop
      vertex -25.6 4.08236 5.38185
      vertex -25.6 3.6 1.71795
      vertex -25.6 3.18579 2.03579
    endloop
  endfacet
  facet normal -1 0 -2.22045e-16
    outer loop
      vertex -25.6 4.08236 5.38185
      vertex -25.6 3.18579 2.03579
      vertex -25.6 2.86795 2.45
    endloop
  endfacet
  facet normal -1 0 -2.22045e-16
    outer loop
      vertex -25.6 4.08236 5.38185
      vertex -25.6 2.86795 2.45
      vertex -25.6 2.66815 2.93236
    endloop
  endfacet
  facet normal -1 0 -2.22045e-16
    outer loop
      vertex -25.6 4.08236 5.38185
      vertex -25.6 2.66815 2.93236
      vertex -25.6 2.6 3.45
    endloop
  endfacet
  facet normal -1 0 -2.22045e-16
    outer loop
      vertex -25.6 4.08236 5.38185
      vertex -25.6 2.6 3.45
      vertex -25.6 2.66815 3.96764
    endloop
  endfacet
  facet normal -1 0 -2.22045e-16
    outer loop
      vertex -25.6 4.08236 5.38185
      vertex -25.6 2.66815 3.96764
      vertex -25.6 2.86795 4.45
    endloop
  endfacet
  facet normal -1 0 -2.22045e-16
    outer loop
      vertex -25.6 4.08236 5.38185
      vertex -25.6 2.86795 4.45
      vertex -25.6 3.18579 4.86421
    endloop
  endfacet
  facet normal -1 0 -2.22045e-16
    outer loop
      vertex -25.6 4.08236 5.38185
      vertex -25.6 3.18579 4.86421
      vertex -25.6 3.6 5.18205
    endloop
  endfacet
  facet normal -2.20145e-16 0.130526 0.991445
    outer loop
      vertex -25.6 5.11764 5.38185
      vertex -25.6 4.6 5.45
      vertex 25.6 4.6 5.45
    endloop
  endfacet
  facet normal -2.20145e-16 0.130526 0.991445
    outer loop
      vertex 25.6 5.11764 5.38185
      vertex -25.6 5.11764 5.38185
      vertex 25.6 4.6 5.45
    endloop
  endfacet
  facet normal -2.20145e-16 -0.130526 0.991445
    outer loop
      vertex 25.6 4.6 5.45
      vertex -25.6 4.6 5.45
      vertex -25.6 4.08236 5.38185
    endloop
  endfacet
  facet normal -2.20145e-16 -0.130526 0.991445
    outer loop
      vertex 25.6 4.08236 5.38185
      vertex 25.6 4.6 5.45
      vertex -25.6 4.08236 5.38185
    endloop
  endfacet
  facet normal -2.05142e-16 -0.382684 0.923879
    outer loop
      vertex 25.6 4.08236 5.38185
      vertex -25.6 4.08236 5.38185
      vertex -25.6 3.6 5.18205
    endloop
  endfacet
  facet normal -2.05142e-16 -0.382684 0.923879
    outer loop
      vertex 25.6 3.6 5.18205
      vertex 25.6 4.08236 5.38185
      vertex -25.6 3.6 5.18205
    endloop
  endfacet
  facet normal -1.7616e-16 -0.608761 0.793354
    outer loop
      vertex 25.6 3.6 5.18205
      vertex -25.6 3.6 5.18205
      vertex -25.6 3.18579 4.86421
    endloop
  endfacet
  facet normal -1.7616e-16 -0.608761 0.793354
    outer loop
      vertex 25.6 3.18579 4.86421
      vertex 25.6 3.6 5.18205
      vertex -25.6 3.18579 4.86421
    endloop
  endfacet
  facet normal -1.35172e-16 -0.793354 0.608761
    outer loop
      vertex 25.6 3.18579 4.86421
      vertex -25.6 3.18579 4.86421
      vertex -25.6 2.86795 4.45
    endloop
  endfacet
  facet normal -1.35172e-16 -0.793354 0.608761
    outer loop
      vertex 25.6 2.86795 4.45
      vertex 25.6 3.18579 4.86421
      vertex -25.6 2.86795 4.45
    endloop
  endfacet
  facet normal -8.49728e-17 -0.923879 0.382684
    outer loop
      vertex 25.6 2.86795 4.45
      vertex -25.6 2.86795 4.45
      vertex -25.6 2.66815 3.96764
    endloop
  endfacet
  facet normal -8.49728e-17 -0.923879 0.382684
    outer loop
      vertex 25.6 2.66815 3.96764
      vertex 25.6 2.86795 4.45
      vertex -25.6 2.66815 3.96764
    endloop
  endfacet
  facet normal -2.89825e-17 -0.991445 0.130526
    outer loop
      vertex 25.6 2.66815 3.96764
      vertex -25.6 2.66815 3.96764
      vertex -25.6 2.6 3.45
    endloop
  endfacet
  facet normal -2.89825e-17 -0.991445 0.130526
    outer loop
      vertex 25.6 2.6 3.45
      vertex 25.6 2.66815 3.96764
      vertex -25.6 2.6 3.45
    endloop
  endfacet
  facet normal 2.89825e-17 -0.991445 -0.130526
    outer loop
      vertex 25.6 2.6 3.45
      vertex -25.6 2.6 3.45
      vertex -25.6 2.66815 2.93236
    endloop
  endfacet
  facet normal 2.89825e-17 -0.991445 -0.130526
    outer loop
      vertex 25.6 2.66815 2.93236
      vertex 25.6 2.6 3.45
      vertex -25.6 2.66815 2.93236
    endloop
  endfacet
  facet normal 8.49728e-17 -0.923879 -0.382684
    outer loop
      vertex 25.6 2.66815 2.93236
      vertex -25.6 2.66815 2.93236
      vertex -25.6 2.86795 2.45
    endloop
  endfacet
  facet normal 8.49728e-17 -0.923879 -0.382684
    outer loop
      vertex 25.6 2.86795 2.45
      vertex 25.6 2.66815 2.93236
      vertex -25.6 2.86795 2.45
    endloop
  endfacet
  facet normal 1.35172e-16 -0.793354 -0.608761
    outer loop
      vertex 25.6 2.86795 2.45
      vertex -25.6 2.86795 2.45
      vertex -25.6 3.18579 2.03579
    endloop
  endfacet
  facet normal 1.35172e-16 -0.793354 -0.608761
    outer loop
      vertex 25.6 3.18579 2.03579
      vertex 25.6 2.86795 2.45
      vertex -25.6 3.18579 2.03579
    endloop
  endfacet
  facet normal 1.7616e-16 -0.608761 -0.793354
    outer loop
      vertex 20 3.49307 1.8
      vertex 25.6 3.18579 2.03579
      vertex -20 3.49307 1.8
    endloop
  endfacet
  facet normal 1.7616e-16 -0.608761 -0.793354
    outer loop
      vertex -25.6 3.18579 2.03579
      vertex -25.6 3.6 1.71795
      vertex -20 3.49307 1.8
    endloop
  endfacet
  facet normal 1.7616e-16 -0.608761 -0.793354
    outer loop
      vertex -25.6 3.18579 2.03579
      vertex -20 3.49307 1.8
      vertex 25.6 3.18579 2.03579
    endloop
  endfacet
  facet normal 1.7616e-16 -0.608761 -0.793354
    outer loop
      vertex 25.6 3.18579 2.03579
      vertex 20 3.49307 1.8
      vertex 20 3.6 1.71795
    endloop
  endfacet
  facet normal 1.7616e-16 -0.608761 -0.793354
    outer loop
      vertex 25.6 3.18579 2.03579
      vertex 20 3.6 1.71795
      vertex 25.6 3.6 1.71795
    endloop
  endfacet
  facet normal 1.7616e-16 -0.608761 -0.793354
    outer loop
      vertex -20 3.49307 1.8
      vertex -25.6 3.6 1.71795
      vertex -20 3.6 1.71795
    endloop
  endfacet
  facet normal 2.05142e-16 -0.382684 -0.923879
    outer loop
      vertex -25.6 3.6 1.71795
      vertex -25.6 4.08236 1.51815
      vertex -20 3.6 1.71795
    endloop
  endfacet
  facet normal 2.05142e-16 -0.382684 -0.923879
    outer loop
      vertex -20 3.6 1.71795
      vertex -25.6 4.08236 1.51815
      vertex -20 4.08236 1.51815
    endloop
  endfacet
  facet normal 2.20145e-16 -0.130526 -0.991445
    outer loop
      vertex -25.6 4.08236 1.51815
      vertex -25.6 4.6 1.45
      vertex -20 4.08236 1.51815
    endloop
  endfacet
  facet normal 2.20145e-16 -0.130526 -0.991445
    outer loop
      vertex -20 4.08236 1.51815
      vertex -25.6 4.6 1.45
      vertex -20 4.6 1.45
    endloop
  endfacet
  facet normal 2.20145e-16 0.130526 -0.991445
    outer loop
      vertex -25.6 5.11764 1.51815
      vertex -20 5.11764 1.51815
      vertex -25.6 4.6 1.45
    endloop
  endfacet
  facet normal 2.20145e-16 0.130526 -0.991445
    outer loop
      vertex -25.6 4.6 1.45
      vertex -20 5.11764 1.51815
      vertex -20 4.6 1.45
    endloop
  endfacet
  facet normal 2.05142e-16 0.382684 -0.923879
    outer loop
      vertex -25.6 5.6 1.71795
      vertex -20 5.6 1.71795
      vertex -25.6 5.11764 1.51815
    endloop
  endfacet
  facet normal 2.05142e-16 0.382684 -0.923879
    outer loop
      vertex -25.6 5.11764 1.51815
      vertex -20 5.6 1.71795
      vertex -20 5.11764 1.51815
    endloop
  endfacet
  facet normal 1.7616e-16 0.608761 -0.793354
    outer loop
      vertex -20 5.6 1.71795
      vertex -25.6 5.6 1.71795
      vertex -20 5.70693 1.8
    endloop
  endfacet
  facet normal 1.7616e-16 0.608761 -0.793354
    outer loop
      vertex 20 5.6 1.71795
      vertex 25.6 6.01421 2.03579
      vertex 25.6 5.6 1.71795
    endloop
  endfacet
  facet normal 1.7616e-16 0.608761 -0.793354
    outer loop
      vertex 20 5.70693 1.8
      vertex 25.6 6.01421 2.03579
      vertex 20 5.6 1.71795
    endloop
  endfacet
  facet normal 1.7616e-16 0.608761 -0.793354
    outer loop
      vertex -25.6 6.01421 2.03579
      vertex 25.6 6.01421 2.03579
      vertex -20 5.70693 1.8
    endloop
  endfacet
  facet normal 1.7616e-16 0.608761 -0.793354
    outer loop
      vertex -25.6 6.01421 2.03579
      vertex -20 5.70693 1.8
      vertex -25.6 5.6 1.71795
    endloop
  endfacet
  facet normal 1.7616e-16 0.608761 -0.793354
    outer loop
      vertex -20 5.70693 1.8
      vertex 25.6 6.01421 2.03579
      vertex 20 5.70693 1.8
    endloop
  endfacet
  facet normal 1.35172e-16 0.793354 -0.608761
    outer loop
      vertex -25.6 6.33205 2.45
      vertex 25.6 6.33205 2.45
      vertex -25.6 6.01421 2.03579
    endloop
  endfacet
  facet normal 1.35172e-16 0.793354 -0.608761
    outer loop
      vertex -25.6 6.01421 2.03579
      vertex 25.6 6.33205 2.45
      vertex 25.6 6.01421 2.03579
    endloop
  endfacet
  facet normal 8.49728e-17 0.923879 -0.382684
    outer loop
      vertex -25.6 6.53185 2.93236
      vertex 25.6 6.53185 2.93236
      vertex -25.6 6.33205 2.45
    endloop
  endfacet
  facet normal 8.49728e-17 0.923879 -0.382684
    outer loop
      vertex -25.6 6.33205 2.45
      vertex 25.6 6.53185 2.93236
      vertex 25.6 6.33205 2.45
    endloop
  endfacet
  facet normal 2.89825e-17 0.991445 -0.130526
    outer loop
      vertex -25.6 6.6 3.45
      vertex 25.6 6.6 3.45
      vertex -25.6 6.53185 2.93236
    endloop
  endfacet
  facet normal 2.89825e-17 0.991445 -0.130526
    outer loop
      vertex -25.6 6.53185 2.93236
      vertex 25.6 6.6 3.45
      vertex 25.6 6.53185 2.93236
    endloop
  endfacet
  facet normal -2.89825e-17 0.991445 0.130526
    outer loop
      vertex -25.6 6.53185 3.96764
      vertex 25.6 6.53185 3.96764
      vertex -25.6 6.6 3.45
    endloop
  endfacet
  facet normal -2.89825e-17 0.991445 0.130526
    outer loop
      vertex -25.6 6.6 3.45
      vertex 25.6 6.53185 3.96764
      vertex 25.6 6.6 3.45
    endloop
  endfacet
  facet normal -8.49728e-17 0.923879 0.382684
    outer loop
      vertex -25.6 6.33205 4.45
      vertex 25.6 6.33205 4.45
      vertex -25.6 6.53185 3.96764
    endloop
  endfacet
  facet normal -8.49728e-17 0.923879 0.382684
    outer loop
      vertex -25.6 6.53185 3.96764
      vertex 25.6 6.33205 4.45
      vertex 25.6 6.53185 3.96764
    endloop
  endfacet
  facet normal -1.35172e-16 0.793354 0.608761
    outer loop
      vertex -25.6 6.01421 4.86421
      vertex 25.6 6.01421 4.86421
      vertex -25.6 6.33205 4.45
    endloop
  endfacet
  facet normal -1.35172e-16 0.793354 0.608761
    outer loop
      vertex -25.6 6.33205 4.45
      vertex 25.6 6.01421 4.86421
      vertex 25.6 6.33205 4.45
    endloop
  endfacet
  facet normal -1.7616e-16 0.608761 0.793354
    outer loop
      vertex -25.6 6.01421 4.86421
      vertex -25.6 5.6 5.18205
      vertex 25.6 5.6 5.18205
    endloop
  endfacet
  facet normal -1.7616e-16 0.608761 0.793354
    outer loop
      vertex 25.6 6.01421 4.86421
      vertex -25.6 6.01421 4.86421
      vertex 25.6 5.6 5.18205
    endloop
  endfacet
  facet normal -2.05142e-16 0.382684 0.923879
    outer loop
      vertex -25.6 5.6 5.18205
      vertex -25.6 5.11764 5.38185
      vertex 25.6 5.11764 5.38185
    endloop
  endfacet
  facet normal -2.05142e-16 0.382684 0.923879
    outer loop
      vertex 25.6 5.6 5.18205
      vertex -25.6 5.6 5.18205
      vertex 25.6 5.11764 5.38185
    endloop
  endfacet
  facet normal 1 0 2.22045e-16
    outer loop
      vertex 25.6 5.11764 5.38185
      vertex 25.6 4.6 5.45
      vertex 25.6 4.08236 5.38185
    endloop
  endfacet
  facet normal 1 0 2.22045e-16
    outer loop
      vertex 25.6 3.18579 4.86421
      vertex 25.6 5.11764 5.38185
      vertex 25.6 3.6 5.18205
    endloop
  endfacet
  facet normal 1 0 2.22045e-16
    outer loop
      vertex 25.6 3.6 5.18205
      vertex 25.6 5.11764 5.38185
      vertex 25.6 4.08236 5.38185
    endloop
  endfacet
  facet normal 1 0 2.22045e-16
    outer loop
      vertex 25.6 2.86795 4.45
      vertex 25.6 5.11764 5.38185
      vertex 25.6 3.18579 4.86421
    endloop
  endfacet
  facet normal 1 0 2.22045e-16
    outer loop
      vertex 25.6 2.66815 3.96764
      vertex 25.6 5.11764 5.38185
      vertex 25.6 2.86795 4.45
    endloop
  endfacet
  facet normal 1 0 2.22045e-16
    outer loop
      vertex 25.6 2.6 3.45
      vertex 25.6 5.11764 5.38185
      vertex 25.6 2.66815 3.96764
    endloop
  endfacet
  facet normal 1 0 2.22045e-16
    outer loop
      vertex 25.6 2.66815 2.93236
      vertex 25.6 5.11764 5.38185
      vertex 25.6 2.6 3.45
    endloop
  endfacet
  facet normal 1 0 2.22045e-16
    outer loop
      vertex 25.6 2.86795 2.45
      vertex 25.6 5.11764 5.38185
      vertex 25.6 2.66815 2.93236
    endloop
  endfacet
  facet normal 1 0 2.22045e-16
    outer loop
      vertex 25.6 3.18579 2.03579
      vertex 25.6 5.11764 5.38185
      vertex 25.6 2.86795 2.45
    endloop
  endfacet
  facet normal 1 0 2.22045e-16
    outer loop
      vertex 25.6 3.6 1.71795
      vertex 25.6 5.11764 5.38185
      vertex 25.6 3.18579 2.03579
    endloop
  endfacet
  facet normal 1 0 2.22045e-16
    outer loop
      vertex 25.6 4.08236 1.51815
      vertex 25.6 5.11764 5.38185
      vertex 25.6 3.6 1.71795
    endloop
  endfacet
  facet normal 1 0 2.22045e-16
    outer loop
      vertex 25.6 4.6 1.45
      vertex 25.6 5.11764 5.38185
      vertex 25.6 4.08236 1.51815
    endloop
  endfacet
  facet normal 1 0 2.22045e-16
    outer loop
      vertex 25.6 5.11764 1.51815
      vertex 25.6 5.11764 5.38185
      vertex 25.6 4.6 1.45
    endloop
  endfacet
  facet normal 1 0 2.22045e-16
    outer loop
      vertex 25.6 5.6 1.71795
      vertex 25.6 5.11764 5.38185
      vertex 25.6 5.11764 1.51815
    endloop
  endfacet
  facet normal 1 0 2.22045e-16
    outer loop
      vertex 25.6 6.01421 2.03579
      vertex 25.6 5.11764 5.38185
      vertex 25.6 5.6 1.71795
    endloop
  endfacet
  facet normal 1 0 2.22045e-16
    outer loop
      vertex 25.6 6.33205 2.45
      vertex 25.6 5.11764 5.38185
      vertex 25.6 6.01421 2.03579
    endloop
  endfacet
  facet normal 1 0 2.22045e-16
    outer loop
      vertex 25.6 6.53185 2.93236
      vertex 25.6 5.11764 5.38185
      vertex 25.6 6.33205 2.45
    endloop
  endfacet
  facet normal 1 0 2.22045e-16
    outer loop
      vertex 25.6 6.6 3.45
      vertex 25.6 5.11764 5.38185
      vertex 25.6 6.53185 2.93236
    endloop
  endfacet
  facet normal 1 0 2.22045e-16
    outer loop
      vertex 25.6 6.53185 3.96764
      vertex 25.6 5.11764 5.38185
      vertex 25.6 6.6 3.45
    endloop
  endfacet
  facet normal 1 0 2.22045e-16
    outer loop
      vertex 25.6 6.33205 4.45
      vertex 25.6 5.11764 5.38185
      vertex 25.6 6.53185 3.96764
    endloop
  endfacet
  facet normal 1 0 2.22045e-16
    outer loop
      vertex 25.6 6.01421 4.86421
      vertex 25.6 5.11764 5.38185
      vertex 25.6 6.33205 4.45
    endloop
  endfacet
  facet normal 1 0 2.22045e-16
    outer loop
      vertex 25.6 5.6 5.18205
      vertex 25.6 5.11764 5.38185
      vertex 25.6 6.01421 4.86421
    endloop
  endfacet
  facet normal 2.05142e-16 -0.382684 -0.923879
    outer loop
      vertex 20 3.6 1.71795
      vertex 20 4.08236 1.51815
      vertex 25.6 3.6 1.71795
    endloop
  endfacet
  facet normal 2.05142e-16 -0.382684 -0.923879
    outer loop
      vertex 25.6 3.6 1.71795
      vertex 20 4.08236 1.51815
      vertex 25.6 4.08236 1.51815
    endloop
  endfacet
  facet normal -1 0 0
    outer loop
      vertex 20 5.6 1.71795
      vertex 20 5.11764 1.51815
      vertex 20 5.70693 1.8
    endloop
  endfacet
  facet normal -1 0 0
    outer loop
      vertex 20 5.70693 1.8
      vertex 20 5.11764 1.51815
      vertex 20 4.6 1.45
    endloop
  endfacet
  facet normal -1 0 0
    outer loop
      vertex 20 5.70693 1.8
      vertex 20 4.6 1.45
      vertex 20 4.08236 1.51815
    endloop
  endfacet
  facet normal -1 0 0
    outer loop
      vertex 20 5.70693 1.8
      vertex 20 4.08236 1.51815
      vertex 20 3.6 1.71795
    endloop
  endfacet
  facet normal -1 0 0
    outer loop
      vertex 20 5.70693 1.8
      vertex 20 3.6 1.71795
      vertex 20 3.49307 1.8
    endloop
  endfacet
  facet normal 0 0 -1
    outer loop
      vertex 20 5.70693 1.8
      vertex 20 3.49307 1.8
      vertex -20 5.70693 1.8
    endloop
  endfacet
  facet normal 0 0 -1
    outer loop
      vertex -20 5.70693 1.8
      vertex 20 3.49307 1.8
      vertex -20 3.49307 1.8
    endloop
  endfacet
  facet normal 1 0 0
    outer loop
      vertex -20 3.6 1.71795
      vertex -20 4.08236 1.51815
      vertex -20 4.6 1.45
    endloop
  endfacet
  facet normal 1 0 0
    outer loop
      vertex -20 5.6 1.71795
      vertex -20 3.6 1.71795
      vertex -20 5.11764 1.51815
    endloop
  endfacet
  facet normal 1 0 0
    outer loop
      vertex -20 5.11764 1.51815
      vertex -20 3.6 1.71795
      vertex -20 4.6 1.45
    endloop
  endfacet
  facet normal 1 0 0
    outer loop
      vertex -20 5.70693 1.8
      vertex -20 3.6 1.71795
      vertex -20 5.6 1.71795
    endloop
  endfacet
  facet normal 1 0 0
    outer loop
      vertex -20 3.49307 1.8
      vertex -20 3.6 1.71795
      vertex -20 5.70693 1.8
    endloop
  endfacet
  facet normal 2.05142e-16 0.382684 -0.923879
    outer loop
      vertex 20 5.11764 1.51815
      vertex 20 5.6 1.71795
      vertex 25.6 5.11764 1.51815
    endloop
  endfacet
  facet normal 2.05142e-16 0.382684 -0.923879
    outer loop
      vertex 25.6 5.11764 1.51815
      vertex 20 5.6 1.71795
      vertex 25.6 5.6 1.71795
    endloop
  endfacet
  facet normal 2.20145e-16 0.130526 -0.991445
    outer loop
      vertex 20 4.6 1.45
      vertex 20 5.11764 1.51815
      vertex 25.6 4.6 1.45
    endloop
  endfacet
  facet normal 2.20145e-16 0.130526 -0.991445
    outer loop
      vertex 25.6 4.6 1.45
      vertex 20 5.11764 1.51815
      vertex 25.6 5.11764 1.51815
    endloop
  endfacet
  facet normal 2.20145e-16 -0.130526 -0.991445
    outer loop
      vertex 20 4.08236 1.51815
      vertex 20 4.6 1.45
      vertex 25.6 4.08236 1.51815
    endloop
  endfacet
  facet normal 2.20145e-16 -0.130526 -0.991445
    outer loop
      vertex 25.6 4.08236 1.51815
      vertex 20 4.6 1.45
      vertex 25.6 4.6 1.45
    endloop
  endfacet
endsolid OpenSCAD_Model
